M48
;DRILL file {KiCad 4.0.7} date 01/05/18 23:40:45
;FORMAT={3:3/ absolute / metric / suppress trailing zeros}
FMAT,2
METRIC,LZ
T1C0.400
T2C0.800
T3C1.500
T4C2.000
%
G90
G05
M71
T1
X070866Y-082296
X070866Y-09906
X070866Y-104648
X07112Y-089408
X071374Y-094488
X071882Y-084074
X073406Y-096266
X073914Y-10668
X073914Y-108966
X073914Y-11176
X073914Y-12192
X074168Y-085852
X074168Y-09906
X074168Y-104648
X075184Y-08636
X075184Y-1143
X075184Y-117094
X075184Y-11938
X075438Y-068072
X075438Y-070866
X075438Y-074422
X075438Y-07747
X075438Y-080264
X0762Y-092964
X076454Y-069342
X077153Y-094107
X077153Y-104458
X077153Y-115189
X07747Y-070866
X078486Y-074168
X078486Y-079502
X07874Y-076708
X08128Y-074168
X08128Y-076708
X082296Y-079756
X082296Y-081026
X083312Y-084328
X08382Y-06477
X084582Y-07239
X084836Y-069342
X084836Y-08255
X086106Y-070358
X08763Y-073914
X089027Y-078613
X094742Y-077851
X09652Y-084201
X09906Y-06858
X09906Y-10668
X09906Y-12573
X09906Y-14478
X10922Y-085217
X110744Y-057658
X11811Y-06858
X11811Y-10668
X11811Y-12573
X11811Y-14478
X127762Y-085979
X13716Y-06858
X13716Y-10668
X13716Y-12573
X13716Y-14478
X14986Y-081153
X150368Y-07874
X15621Y-06858
X15621Y-08763
X15621Y-10668
X15621Y-12573
X15621Y-14478
T2
X07239Y-10795
X07239Y-11049
X07239Y-11557
X07239Y-11811
X07239Y-12065
X07239Y-12319
X07239Y-12573
X07239Y-12827
T3
X09525Y-06096
X09525Y-08001
X09525Y-09906
X09525Y-11811
X09525Y-13716
X1016Y-05842
X1016Y-07747
X1016Y-09652
X1016Y-11557
X1016Y-13462
X1143Y-06096
X1143Y-08001
X1143Y-09906
X1143Y-11811
X1143Y-13716
X12065Y-05842
X12065Y-07747
X12065Y-09652
X12065Y-11557
X12065Y-13462
X13335Y-06096
X13335Y-08001
X13335Y-09906
X13335Y-11811
X13335Y-13716
X1397Y-05842
X1397Y-07747
X1397Y-09652
X1397Y-11557
X1397Y-13462
X1524Y-06096
X1524Y-08001
X1524Y-09906
X1524Y-11811
X1524Y-13716
X15875Y-05842
X15875Y-07747
X15875Y-09652
X15875Y-11557
X15875Y-13462
T4
X08255Y-054212
X08255Y-061812
X08255Y-092112
X08255Y-099712
X08255Y-103488
X08255Y-111088
X08255Y-141388
X08255Y-148988
T0
M30
