G04 #@! TF.FileFunction,Legend,Bot*
%FSLAX46Y46*%
G04 Gerber Fmt 4.6, Leading zero omitted, Abs format (unit mm)*
G04 Created by KiCad (PCBNEW 4.0.7) date 01/05/18 23:40:39*
%MOMM*%
%LPD*%
G01*
G04 APERTURE LIST*
%ADD10C,0.100000*%
%ADD11C,0.150000*%
%ADD12C,0.500000*%
%ADD13C,0.010000*%
%ADD14C,3.700000*%
%ADD15C,1.910000*%
%ADD16C,2.700000*%
%ADD17C,4.200000*%
%ADD18C,2.400000*%
%ADD19R,1.000000X1.200000*%
%ADD20R,1.200000X1.000000*%
%ADD21C,1.600000*%
%ADD22R,1.500000X0.700000*%
%ADD23R,0.700000X1.500000*%
%ADD24R,1.650000X2.000000*%
%ADD25R,1.150000X1.500000*%
G04 APERTURE END LIST*
D10*
D11*
X90620000Y-71166000D02*
X90620000Y-70566000D01*
X89720000Y-71166000D02*
X89720000Y-70566000D01*
X93668000Y-71166000D02*
X93668000Y-70566000D01*
X92768000Y-71166000D02*
X92768000Y-70566000D01*
X72194000Y-89870000D02*
X72194000Y-90470000D01*
X73094000Y-89870000D02*
X73094000Y-90470000D01*
X86568000Y-72332000D02*
X87168000Y-72332000D01*
X86568000Y-71432000D02*
X87168000Y-71432000D01*
X78948000Y-67506000D02*
X79548000Y-67506000D01*
X78948000Y-66606000D02*
X79548000Y-66606000D01*
X78948000Y-69792000D02*
X79548000Y-69792000D01*
X78948000Y-68892000D02*
X79548000Y-68892000D01*
X76650000Y-90470000D02*
X76650000Y-89870000D01*
X75750000Y-90470000D02*
X75750000Y-89870000D01*
X69850000Y-72470000D02*
X69850000Y-82470000D01*
X69850000Y-82470000D02*
X83850000Y-82470000D01*
X83850000Y-82470000D02*
X83850000Y-72470000D01*
X83850000Y-72470000D02*
X69850000Y-72470000D01*
X92329000Y-75057000D02*
X91059000Y-75057000D01*
X92329000Y-73279000D02*
X91059000Y-73279000D01*
D12*
X74522000Y-91986000D02*
X74322000Y-91986000D01*
D11*
X73922000Y-92186000D02*
X73922000Y-90186000D01*
X74922000Y-92186000D02*
X74922000Y-90186000D01*
D12*
X148490000Y-133185000D02*
X148690000Y-133185000D01*
D11*
X149090000Y-132985000D02*
X149090000Y-134985000D01*
X148090000Y-132985000D02*
X148090000Y-134985000D01*
D12*
X148490000Y-114135000D02*
X148690000Y-114135000D01*
D11*
X149090000Y-113935000D02*
X149090000Y-115935000D01*
X148090000Y-113935000D02*
X148090000Y-115935000D01*
D12*
X148490000Y-95085000D02*
X148690000Y-95085000D01*
D11*
X149090000Y-94885000D02*
X149090000Y-96885000D01*
X148090000Y-94885000D02*
X148090000Y-96885000D01*
D12*
X148490000Y-76035000D02*
X148690000Y-76035000D01*
D11*
X149090000Y-75835000D02*
X149090000Y-77835000D01*
X148090000Y-75835000D02*
X148090000Y-77835000D01*
D12*
X148490000Y-56985000D02*
X148690000Y-56985000D01*
D11*
X149090000Y-56785000D02*
X149090000Y-58785000D01*
X148090000Y-56785000D02*
X148090000Y-58785000D01*
D12*
X129440000Y-133185000D02*
X129640000Y-133185000D01*
D11*
X130040000Y-132985000D02*
X130040000Y-134985000D01*
X129040000Y-132985000D02*
X129040000Y-134985000D01*
D12*
X129440000Y-114135000D02*
X129640000Y-114135000D01*
D11*
X130040000Y-113935000D02*
X130040000Y-115935000D01*
X129040000Y-113935000D02*
X129040000Y-115935000D01*
D12*
X129440000Y-95085000D02*
X129640000Y-95085000D01*
D11*
X130040000Y-94885000D02*
X130040000Y-96885000D01*
X129040000Y-94885000D02*
X129040000Y-96885000D01*
D12*
X129440000Y-76035000D02*
X129640000Y-76035000D01*
D11*
X130040000Y-75835000D02*
X130040000Y-77835000D01*
X129040000Y-75835000D02*
X129040000Y-77835000D01*
D12*
X129440000Y-56985000D02*
X129640000Y-56985000D01*
D11*
X130040000Y-56785000D02*
X130040000Y-58785000D01*
X129040000Y-56785000D02*
X129040000Y-58785000D01*
D12*
X110390000Y-133185000D02*
X110590000Y-133185000D01*
D11*
X110990000Y-132985000D02*
X110990000Y-134985000D01*
X109990000Y-132985000D02*
X109990000Y-134985000D01*
D12*
X110390000Y-114135000D02*
X110590000Y-114135000D01*
D11*
X110990000Y-113935000D02*
X110990000Y-115935000D01*
X109990000Y-113935000D02*
X109990000Y-115935000D01*
D12*
X110390000Y-95085000D02*
X110590000Y-95085000D01*
D11*
X110990000Y-94885000D02*
X110990000Y-96885000D01*
X109990000Y-94885000D02*
X109990000Y-96885000D01*
D12*
X110390000Y-76035000D02*
X110590000Y-76035000D01*
D11*
X110990000Y-75835000D02*
X110990000Y-77835000D01*
X109990000Y-75835000D02*
X109990000Y-77835000D01*
D12*
X110390000Y-56985000D02*
X110590000Y-56985000D01*
D11*
X110990000Y-56785000D02*
X110990000Y-58785000D01*
X109990000Y-56785000D02*
X109990000Y-58785000D01*
D12*
X91340000Y-133185000D02*
X91540000Y-133185000D01*
D11*
X91940000Y-132985000D02*
X91940000Y-134985000D01*
X90940000Y-132985000D02*
X90940000Y-134985000D01*
D12*
X91340000Y-114135000D02*
X91540000Y-114135000D01*
D11*
X91940000Y-113935000D02*
X91940000Y-115935000D01*
X90940000Y-113935000D02*
X90940000Y-115935000D01*
D12*
X91340000Y-95085000D02*
X91540000Y-95085000D01*
D11*
X91940000Y-94885000D02*
X91940000Y-96885000D01*
X90940000Y-94885000D02*
X90940000Y-96885000D01*
D12*
X98198000Y-76035000D02*
X98398000Y-76035000D01*
D11*
X98798000Y-75835000D02*
X98798000Y-77835000D01*
X97798000Y-75835000D02*
X97798000Y-77835000D01*
D12*
X91340000Y-56985000D02*
X91540000Y-56985000D01*
D11*
X91940000Y-56785000D02*
X91940000Y-58785000D01*
X90940000Y-56785000D02*
X90940000Y-58785000D01*
D13*
G36*
X77346759Y-144471184D02*
X77320247Y-144484282D01*
X77287553Y-144507106D01*
X77263725Y-144531996D01*
X77247406Y-144563249D01*
X77237240Y-144605166D01*
X77231872Y-144662044D01*
X77229944Y-144738184D01*
X77229831Y-144770917D01*
X77230161Y-144842656D01*
X77231527Y-144893927D01*
X77234500Y-144929404D01*
X77239649Y-144953763D01*
X77247543Y-144971680D01*
X77255757Y-144983902D01*
X77308187Y-145035905D01*
X77369930Y-145067184D01*
X77436536Y-145076592D01*
X77503558Y-145062980D01*
X77524792Y-145053354D01*
X77575624Y-145026859D01*
X77575624Y-145442052D01*
X77538525Y-145422868D01*
X77489643Y-145408025D01*
X77429561Y-145404222D01*
X77369564Y-145411243D01*
X77324256Y-145427013D01*
X77286675Y-145457047D01*
X77254564Y-145500024D01*
X77252150Y-145504436D01*
X77241967Y-145525221D01*
X77234530Y-145546170D01*
X77229411Y-145571548D01*
X77226181Y-145605618D01*
X77224413Y-145652641D01*
X77223677Y-145716882D01*
X77223544Y-145789176D01*
X77223544Y-146019822D01*
X77361861Y-146019822D01*
X77361861Y-145594533D01*
X77400549Y-145561979D01*
X77440738Y-145535940D01*
X77478797Y-145531205D01*
X77517066Y-145543389D01*
X77537462Y-145555320D01*
X77552642Y-145572313D01*
X77563438Y-145597995D01*
X77570683Y-145635991D01*
X77575208Y-145689926D01*
X77577844Y-145763425D01*
X77578772Y-145812347D01*
X77581911Y-146013535D01*
X77647926Y-146017336D01*
X77713940Y-146021136D01*
X77713940Y-144772650D01*
X77575624Y-144772650D01*
X77572097Y-144842254D01*
X77560215Y-144890569D01*
X77538020Y-144920631D01*
X77503559Y-144935471D01*
X77468742Y-144938436D01*
X77429329Y-144935028D01*
X77403171Y-144921617D01*
X77386814Y-144903896D01*
X77373937Y-144884835D01*
X77366272Y-144863601D01*
X77362861Y-144833849D01*
X77362749Y-144789236D01*
X77363897Y-144751880D01*
X77366532Y-144695604D01*
X77370456Y-144658658D01*
X77377063Y-144635223D01*
X77387749Y-144619480D01*
X77397833Y-144610380D01*
X77439970Y-144590537D01*
X77489840Y-144587332D01*
X77518476Y-144594168D01*
X77546828Y-144618464D01*
X77565609Y-144665728D01*
X77574712Y-144735624D01*
X77575624Y-144772650D01*
X77713940Y-144772650D01*
X77713940Y-144460614D01*
X77644782Y-144460614D01*
X77603260Y-144462256D01*
X77581838Y-144468087D01*
X77575626Y-144479461D01*
X77575624Y-144479798D01*
X77572742Y-144490938D01*
X77560030Y-144489673D01*
X77534757Y-144477433D01*
X77475869Y-144458707D01*
X77409615Y-144456739D01*
X77346759Y-144471184D01*
X77346759Y-144471184D01*
G37*
X77346759Y-144471184D02*
X77320247Y-144484282D01*
X77287553Y-144507106D01*
X77263725Y-144531996D01*
X77247406Y-144563249D01*
X77237240Y-144605166D01*
X77231872Y-144662044D01*
X77229944Y-144738184D01*
X77229831Y-144770917D01*
X77230161Y-144842656D01*
X77231527Y-144893927D01*
X77234500Y-144929404D01*
X77239649Y-144953763D01*
X77247543Y-144971680D01*
X77255757Y-144983902D01*
X77308187Y-145035905D01*
X77369930Y-145067184D01*
X77436536Y-145076592D01*
X77503558Y-145062980D01*
X77524792Y-145053354D01*
X77575624Y-145026859D01*
X77575624Y-145442052D01*
X77538525Y-145422868D01*
X77489643Y-145408025D01*
X77429561Y-145404222D01*
X77369564Y-145411243D01*
X77324256Y-145427013D01*
X77286675Y-145457047D01*
X77254564Y-145500024D01*
X77252150Y-145504436D01*
X77241967Y-145525221D01*
X77234530Y-145546170D01*
X77229411Y-145571548D01*
X77226181Y-145605618D01*
X77224413Y-145652641D01*
X77223677Y-145716882D01*
X77223544Y-145789176D01*
X77223544Y-146019822D01*
X77361861Y-146019822D01*
X77361861Y-145594533D01*
X77400549Y-145561979D01*
X77440738Y-145535940D01*
X77478797Y-145531205D01*
X77517066Y-145543389D01*
X77537462Y-145555320D01*
X77552642Y-145572313D01*
X77563438Y-145597995D01*
X77570683Y-145635991D01*
X77575208Y-145689926D01*
X77577844Y-145763425D01*
X77578772Y-145812347D01*
X77581911Y-146013535D01*
X77647926Y-146017336D01*
X77713940Y-146021136D01*
X77713940Y-144772650D01*
X77575624Y-144772650D01*
X77572097Y-144842254D01*
X77560215Y-144890569D01*
X77538020Y-144920631D01*
X77503559Y-144935471D01*
X77468742Y-144938436D01*
X77429329Y-144935028D01*
X77403171Y-144921617D01*
X77386814Y-144903896D01*
X77373937Y-144884835D01*
X77366272Y-144863601D01*
X77362861Y-144833849D01*
X77362749Y-144789236D01*
X77363897Y-144751880D01*
X77366532Y-144695604D01*
X77370456Y-144658658D01*
X77377063Y-144635223D01*
X77387749Y-144619480D01*
X77397833Y-144610380D01*
X77439970Y-144590537D01*
X77489840Y-144587332D01*
X77518476Y-144594168D01*
X77546828Y-144618464D01*
X77565609Y-144665728D01*
X77574712Y-144735624D01*
X77575624Y-144772650D01*
X77713940Y-144772650D01*
X77713940Y-144460614D01*
X77644782Y-144460614D01*
X77603260Y-144462256D01*
X77581838Y-144468087D01*
X77575626Y-144479461D01*
X77575624Y-144479798D01*
X77572742Y-144490938D01*
X77560030Y-144489673D01*
X77534757Y-144477433D01*
X77475869Y-144458707D01*
X77409615Y-144456739D01*
X77346759Y-144471184D01*
G36*
X76822210Y-145408555D02*
X76763055Y-145424339D01*
X76718023Y-145452948D01*
X76686246Y-145490419D01*
X76676366Y-145506411D01*
X76669073Y-145523163D01*
X76663974Y-145544592D01*
X76660679Y-145574616D01*
X76658797Y-145617154D01*
X76657937Y-145676122D01*
X76657707Y-145755440D01*
X76657703Y-145776484D01*
X76657703Y-146019822D01*
X76718059Y-146019822D01*
X76756557Y-146017126D01*
X76785023Y-146010295D01*
X76792155Y-146006083D01*
X76811652Y-145998813D01*
X76831566Y-146006083D01*
X76864353Y-146015160D01*
X76911978Y-146018813D01*
X76964764Y-146017228D01*
X77013036Y-146010589D01*
X77041218Y-146002072D01*
X77095753Y-145967063D01*
X77129835Y-145918479D01*
X77145157Y-145853882D01*
X77145299Y-145852223D01*
X77143955Y-145823566D01*
X77022356Y-145823566D01*
X77011726Y-145856161D01*
X76994410Y-145874505D01*
X76959652Y-145888379D01*
X76913773Y-145893917D01*
X76866988Y-145891191D01*
X76829514Y-145880274D01*
X76819015Y-145873269D01*
X76800668Y-145840904D01*
X76796020Y-145804111D01*
X76796020Y-145755763D01*
X76865582Y-145755763D01*
X76931667Y-145760850D01*
X76981764Y-145775263D01*
X77012929Y-145797729D01*
X77022356Y-145823566D01*
X77143955Y-145823566D01*
X77141987Y-145781647D01*
X77118710Y-145725845D01*
X77074948Y-145683647D01*
X77068899Y-145679808D01*
X77042907Y-145667309D01*
X77010735Y-145659740D01*
X76965760Y-145656061D01*
X76912331Y-145655216D01*
X76796020Y-145655169D01*
X76796020Y-145606411D01*
X76800953Y-145568581D01*
X76813543Y-145543236D01*
X76815017Y-145541887D01*
X76843034Y-145530800D01*
X76885326Y-145526503D01*
X76932064Y-145528615D01*
X76973418Y-145536756D01*
X76997957Y-145548965D01*
X77011253Y-145558746D01*
X77025294Y-145560613D01*
X77044671Y-145552600D01*
X77073976Y-145532739D01*
X77117803Y-145499063D01*
X77121825Y-145495909D01*
X77119764Y-145484236D01*
X77102568Y-145464822D01*
X77076433Y-145443248D01*
X77047552Y-145425096D01*
X77038478Y-145420809D01*
X77005380Y-145412256D01*
X76956880Y-145406155D01*
X76902695Y-145403708D01*
X76900161Y-145403703D01*
X76822210Y-145408555D01*
X76822210Y-145408555D01*
G37*
X76822210Y-145408555D02*
X76763055Y-145424339D01*
X76718023Y-145452948D01*
X76686246Y-145490419D01*
X76676366Y-145506411D01*
X76669073Y-145523163D01*
X76663974Y-145544592D01*
X76660679Y-145574616D01*
X76658797Y-145617154D01*
X76657937Y-145676122D01*
X76657707Y-145755440D01*
X76657703Y-145776484D01*
X76657703Y-146019822D01*
X76718059Y-146019822D01*
X76756557Y-146017126D01*
X76785023Y-146010295D01*
X76792155Y-146006083D01*
X76811652Y-145998813D01*
X76831566Y-146006083D01*
X76864353Y-146015160D01*
X76911978Y-146018813D01*
X76964764Y-146017228D01*
X77013036Y-146010589D01*
X77041218Y-146002072D01*
X77095753Y-145967063D01*
X77129835Y-145918479D01*
X77145157Y-145853882D01*
X77145299Y-145852223D01*
X77143955Y-145823566D01*
X77022356Y-145823566D01*
X77011726Y-145856161D01*
X76994410Y-145874505D01*
X76959652Y-145888379D01*
X76913773Y-145893917D01*
X76866988Y-145891191D01*
X76829514Y-145880274D01*
X76819015Y-145873269D01*
X76800668Y-145840904D01*
X76796020Y-145804111D01*
X76796020Y-145755763D01*
X76865582Y-145755763D01*
X76931667Y-145760850D01*
X76981764Y-145775263D01*
X77012929Y-145797729D01*
X77022356Y-145823566D01*
X77143955Y-145823566D01*
X77141987Y-145781647D01*
X77118710Y-145725845D01*
X77074948Y-145683647D01*
X77068899Y-145679808D01*
X77042907Y-145667309D01*
X77010735Y-145659740D01*
X76965760Y-145656061D01*
X76912331Y-145655216D01*
X76796020Y-145655169D01*
X76796020Y-145606411D01*
X76800953Y-145568581D01*
X76813543Y-145543236D01*
X76815017Y-145541887D01*
X76843034Y-145530800D01*
X76885326Y-145526503D01*
X76932064Y-145528615D01*
X76973418Y-145536756D01*
X76997957Y-145548965D01*
X77011253Y-145558746D01*
X77025294Y-145560613D01*
X77044671Y-145552600D01*
X77073976Y-145532739D01*
X77117803Y-145499063D01*
X77121825Y-145495909D01*
X77119764Y-145484236D01*
X77102568Y-145464822D01*
X77076433Y-145443248D01*
X77047552Y-145425096D01*
X77038478Y-145420809D01*
X77005380Y-145412256D01*
X76956880Y-145406155D01*
X76902695Y-145403708D01*
X76900161Y-145403703D01*
X76822210Y-145408555D01*
G36*
X76431356Y-145405020D02*
X76412539Y-145410660D01*
X76406473Y-145423053D01*
X76406218Y-145428647D01*
X76405129Y-145444230D01*
X76397632Y-145446676D01*
X76377381Y-145435993D01*
X76365351Y-145428694D01*
X76327400Y-145413063D01*
X76282072Y-145405334D01*
X76234544Y-145404740D01*
X76189995Y-145410513D01*
X76153602Y-145421884D01*
X76130543Y-145438088D01*
X76125996Y-145458355D01*
X76128291Y-145463843D01*
X76145020Y-145486626D01*
X76170963Y-145514647D01*
X76175655Y-145519177D01*
X76200383Y-145540005D01*
X76221718Y-145546735D01*
X76251555Y-145542038D01*
X76263508Y-145538917D01*
X76300705Y-145531421D01*
X76326859Y-145534792D01*
X76348946Y-145546681D01*
X76369178Y-145562635D01*
X76384079Y-145582700D01*
X76394434Y-145610702D01*
X76401029Y-145650467D01*
X76404649Y-145705823D01*
X76406078Y-145780594D01*
X76406218Y-145825740D01*
X76406218Y-146019822D01*
X76531960Y-146019822D01*
X76531960Y-145403683D01*
X76469089Y-145403683D01*
X76431356Y-145405020D01*
X76431356Y-145405020D01*
G37*
X76431356Y-145405020D02*
X76412539Y-145410660D01*
X76406473Y-145423053D01*
X76406218Y-145428647D01*
X76405129Y-145444230D01*
X76397632Y-145446676D01*
X76377381Y-145435993D01*
X76365351Y-145428694D01*
X76327400Y-145413063D01*
X76282072Y-145405334D01*
X76234544Y-145404740D01*
X76189995Y-145410513D01*
X76153602Y-145421884D01*
X76130543Y-145438088D01*
X76125996Y-145458355D01*
X76128291Y-145463843D01*
X76145020Y-145486626D01*
X76170963Y-145514647D01*
X76175655Y-145519177D01*
X76200383Y-145540005D01*
X76221718Y-145546735D01*
X76251555Y-145542038D01*
X76263508Y-145538917D01*
X76300705Y-145531421D01*
X76326859Y-145534792D01*
X76348946Y-145546681D01*
X76369178Y-145562635D01*
X76384079Y-145582700D01*
X76394434Y-145610702D01*
X76401029Y-145650467D01*
X76404649Y-145705823D01*
X76406078Y-145780594D01*
X76406218Y-145825740D01*
X76406218Y-146019822D01*
X76531960Y-146019822D01*
X76531960Y-145403683D01*
X76469089Y-145403683D01*
X76431356Y-145405020D01*
G36*
X75639188Y-146019822D02*
X75708346Y-146019822D01*
X75748488Y-146018645D01*
X75769394Y-146013772D01*
X75776922Y-146003186D01*
X75777505Y-145996029D01*
X75778774Y-145981676D01*
X75786779Y-145978923D01*
X75807815Y-145987771D01*
X75824173Y-145996029D01*
X75886977Y-146015597D01*
X75955248Y-146016729D01*
X76010752Y-146002135D01*
X76062438Y-145966877D01*
X76101838Y-145914835D01*
X76123413Y-145853450D01*
X76123962Y-145850018D01*
X76127167Y-145812571D01*
X76128761Y-145758813D01*
X76128633Y-145718155D01*
X75991279Y-145718155D01*
X75988097Y-145772194D01*
X75980859Y-145816735D01*
X75971060Y-145841888D01*
X75933989Y-145876260D01*
X75889974Y-145888582D01*
X75844584Y-145878618D01*
X75805797Y-145848895D01*
X75791108Y-145828905D01*
X75782519Y-145805050D01*
X75778496Y-145770230D01*
X75777505Y-145717930D01*
X75779278Y-145666139D01*
X75783963Y-145620634D01*
X75790603Y-145590181D01*
X75791710Y-145587452D01*
X75818491Y-145555000D01*
X75857579Y-145537183D01*
X75901315Y-145534306D01*
X75942038Y-145546674D01*
X75972087Y-145574593D01*
X75975204Y-145580148D01*
X75984961Y-145614022D01*
X75990277Y-145662728D01*
X75991279Y-145718155D01*
X76128633Y-145718155D01*
X76128568Y-145697540D01*
X76127664Y-145664563D01*
X76121514Y-145582981D01*
X76108733Y-145521730D01*
X76087471Y-145476449D01*
X76055878Y-145442779D01*
X76025207Y-145423014D01*
X75982354Y-145409120D01*
X75929056Y-145404354D01*
X75874480Y-145408236D01*
X75827792Y-145420282D01*
X75803124Y-145434693D01*
X75777505Y-145457878D01*
X75777505Y-145164773D01*
X75639188Y-145164773D01*
X75639188Y-146019822D01*
X75639188Y-146019822D01*
G37*
X75639188Y-146019822D02*
X75708346Y-146019822D01*
X75748488Y-146018645D01*
X75769394Y-146013772D01*
X75776922Y-146003186D01*
X75777505Y-145996029D01*
X75778774Y-145981676D01*
X75786779Y-145978923D01*
X75807815Y-145987771D01*
X75824173Y-145996029D01*
X75886977Y-146015597D01*
X75955248Y-146016729D01*
X76010752Y-146002135D01*
X76062438Y-145966877D01*
X76101838Y-145914835D01*
X76123413Y-145853450D01*
X76123962Y-145850018D01*
X76127167Y-145812571D01*
X76128761Y-145758813D01*
X76128633Y-145718155D01*
X75991279Y-145718155D01*
X75988097Y-145772194D01*
X75980859Y-145816735D01*
X75971060Y-145841888D01*
X75933989Y-145876260D01*
X75889974Y-145888582D01*
X75844584Y-145878618D01*
X75805797Y-145848895D01*
X75791108Y-145828905D01*
X75782519Y-145805050D01*
X75778496Y-145770230D01*
X75777505Y-145717930D01*
X75779278Y-145666139D01*
X75783963Y-145620634D01*
X75790603Y-145590181D01*
X75791710Y-145587452D01*
X75818491Y-145555000D01*
X75857579Y-145537183D01*
X75901315Y-145534306D01*
X75942038Y-145546674D01*
X75972087Y-145574593D01*
X75975204Y-145580148D01*
X75984961Y-145614022D01*
X75990277Y-145662728D01*
X75991279Y-145718155D01*
X76128633Y-145718155D01*
X76128568Y-145697540D01*
X76127664Y-145664563D01*
X76121514Y-145582981D01*
X76108733Y-145521730D01*
X76087471Y-145476449D01*
X76055878Y-145442779D01*
X76025207Y-145423014D01*
X75982354Y-145409120D01*
X75929056Y-145404354D01*
X75874480Y-145408236D01*
X75827792Y-145420282D01*
X75803124Y-145434693D01*
X75777505Y-145457878D01*
X75777505Y-145164773D01*
X75639188Y-145164773D01*
X75639188Y-146019822D01*
G36*
X75156476Y-145406237D02*
X75106745Y-145409971D01*
X74976709Y-145799773D01*
X74956322Y-145730614D01*
X74944054Y-145687874D01*
X74927915Y-145630115D01*
X74910488Y-145566625D01*
X74901274Y-145532570D01*
X74866612Y-145403683D01*
X74723609Y-145403683D01*
X74766354Y-145538857D01*
X74787404Y-145605342D01*
X74812833Y-145685539D01*
X74839390Y-145769193D01*
X74863098Y-145843782D01*
X74917098Y-146013535D01*
X74975402Y-146017328D01*
X75033705Y-146021122D01*
X75065321Y-145916734D01*
X75084818Y-145851889D01*
X75106096Y-145780400D01*
X75124692Y-145717263D01*
X75125426Y-145714750D01*
X75139316Y-145671969D01*
X75151571Y-145642779D01*
X75160154Y-145631741D01*
X75161918Y-145633018D01*
X75168109Y-145650130D01*
X75179872Y-145686787D01*
X75195775Y-145738378D01*
X75214386Y-145800294D01*
X75224457Y-145834352D01*
X75278993Y-146019822D01*
X75394736Y-146019822D01*
X75487263Y-145727471D01*
X75513256Y-145645462D01*
X75536934Y-145570987D01*
X75557180Y-145507544D01*
X75572874Y-145458632D01*
X75582898Y-145427749D01*
X75585945Y-145418726D01*
X75583533Y-145409487D01*
X75564592Y-145405441D01*
X75525177Y-145405846D01*
X75519007Y-145406152D01*
X75445914Y-145409971D01*
X75398043Y-145586010D01*
X75380447Y-145650211D01*
X75364723Y-145706649D01*
X75352254Y-145750422D01*
X75344426Y-145776630D01*
X75342980Y-145780903D01*
X75336986Y-145775990D01*
X75324899Y-145750532D01*
X75308107Y-145707997D01*
X75287997Y-145651850D01*
X75270997Y-145601130D01*
X75206206Y-145402504D01*
X75156476Y-145406237D01*
X75156476Y-145406237D01*
G37*
X75156476Y-145406237D02*
X75106745Y-145409971D01*
X74976709Y-145799773D01*
X74956322Y-145730614D01*
X74944054Y-145687874D01*
X74927915Y-145630115D01*
X74910488Y-145566625D01*
X74901274Y-145532570D01*
X74866612Y-145403683D01*
X74723609Y-145403683D01*
X74766354Y-145538857D01*
X74787404Y-145605342D01*
X74812833Y-145685539D01*
X74839390Y-145769193D01*
X74863098Y-145843782D01*
X74917098Y-146013535D01*
X74975402Y-146017328D01*
X75033705Y-146021122D01*
X75065321Y-145916734D01*
X75084818Y-145851889D01*
X75106096Y-145780400D01*
X75124692Y-145717263D01*
X75125426Y-145714750D01*
X75139316Y-145671969D01*
X75151571Y-145642779D01*
X75160154Y-145631741D01*
X75161918Y-145633018D01*
X75168109Y-145650130D01*
X75179872Y-145686787D01*
X75195775Y-145738378D01*
X75214386Y-145800294D01*
X75224457Y-145834352D01*
X75278993Y-146019822D01*
X75394736Y-146019822D01*
X75487263Y-145727471D01*
X75513256Y-145645462D01*
X75536934Y-145570987D01*
X75557180Y-145507544D01*
X75572874Y-145458632D01*
X75582898Y-145427749D01*
X75585945Y-145418726D01*
X75583533Y-145409487D01*
X75564592Y-145405441D01*
X75525177Y-145405846D01*
X75519007Y-145406152D01*
X75445914Y-145409971D01*
X75398043Y-145586010D01*
X75380447Y-145650211D01*
X75364723Y-145706649D01*
X75352254Y-145750422D01*
X75344426Y-145776630D01*
X75342980Y-145780903D01*
X75336986Y-145775990D01*
X75324899Y-145750532D01*
X75308107Y-145707997D01*
X75287997Y-145651850D01*
X75270997Y-145601130D01*
X75206206Y-145402504D01*
X75156476Y-145406237D01*
G36*
X74399589Y-145407417D02*
X74346589Y-145420290D01*
X74331269Y-145427110D01*
X74301572Y-145444974D01*
X74278780Y-145465093D01*
X74261917Y-145490962D01*
X74250002Y-145526073D01*
X74242058Y-145573920D01*
X74237106Y-145637996D01*
X74234169Y-145721794D01*
X74233053Y-145777768D01*
X74228948Y-146019822D01*
X74299068Y-146019822D01*
X74341607Y-146018038D01*
X74363524Y-146011942D01*
X74369188Y-146001706D01*
X74372179Y-145990637D01*
X74385549Y-145992754D01*
X74403767Y-146001629D01*
X74449376Y-146015233D01*
X74507993Y-146018899D01*
X74569646Y-146012903D01*
X74624362Y-145997521D01*
X74629270Y-145995386D01*
X74679277Y-145960255D01*
X74712244Y-145911419D01*
X74727413Y-145854333D01*
X74726254Y-145833824D01*
X74602492Y-145833824D01*
X74591587Y-145861425D01*
X74559255Y-145881204D01*
X74507090Y-145891819D01*
X74479213Y-145893228D01*
X74432753Y-145889620D01*
X74401871Y-145875597D01*
X74394336Y-145868931D01*
X74373924Y-145832666D01*
X74369188Y-145799773D01*
X74369188Y-145755763D01*
X74430487Y-145755763D01*
X74501744Y-145759395D01*
X74551724Y-145770818D01*
X74583304Y-145790824D01*
X74590374Y-145799743D01*
X74602492Y-145833824D01*
X74726254Y-145833824D01*
X74724029Y-145794456D01*
X74701337Y-145737244D01*
X74670376Y-145698580D01*
X74651624Y-145681864D01*
X74633267Y-145670878D01*
X74609381Y-145664180D01*
X74574043Y-145660326D01*
X74521331Y-145657873D01*
X74500423Y-145657168D01*
X74369188Y-145652879D01*
X74369380Y-145613158D01*
X74374463Y-145571405D01*
X74392838Y-145546158D01*
X74429961Y-145530030D01*
X74430957Y-145529742D01*
X74483590Y-145523400D01*
X74535094Y-145531684D01*
X74573370Y-145551827D01*
X74588728Y-145561773D01*
X74605270Y-145560397D01*
X74630725Y-145545987D01*
X74645672Y-145535817D01*
X74674909Y-145514088D01*
X74693020Y-145497800D01*
X74695926Y-145493137D01*
X74683960Y-145469005D01*
X74648604Y-145440185D01*
X74633247Y-145430461D01*
X74589099Y-145413714D01*
X74529602Y-145404227D01*
X74463513Y-145402095D01*
X74399589Y-145407417D01*
X74399589Y-145407417D01*
G37*
X74399589Y-145407417D02*
X74346589Y-145420290D01*
X74331269Y-145427110D01*
X74301572Y-145444974D01*
X74278780Y-145465093D01*
X74261917Y-145490962D01*
X74250002Y-145526073D01*
X74242058Y-145573920D01*
X74237106Y-145637996D01*
X74234169Y-145721794D01*
X74233053Y-145777768D01*
X74228948Y-146019822D01*
X74299068Y-146019822D01*
X74341607Y-146018038D01*
X74363524Y-146011942D01*
X74369188Y-146001706D01*
X74372179Y-145990637D01*
X74385549Y-145992754D01*
X74403767Y-146001629D01*
X74449376Y-146015233D01*
X74507993Y-146018899D01*
X74569646Y-146012903D01*
X74624362Y-145997521D01*
X74629270Y-145995386D01*
X74679277Y-145960255D01*
X74712244Y-145911419D01*
X74727413Y-145854333D01*
X74726254Y-145833824D01*
X74602492Y-145833824D01*
X74591587Y-145861425D01*
X74559255Y-145881204D01*
X74507090Y-145891819D01*
X74479213Y-145893228D01*
X74432753Y-145889620D01*
X74401871Y-145875597D01*
X74394336Y-145868931D01*
X74373924Y-145832666D01*
X74369188Y-145799773D01*
X74369188Y-145755763D01*
X74430487Y-145755763D01*
X74501744Y-145759395D01*
X74551724Y-145770818D01*
X74583304Y-145790824D01*
X74590374Y-145799743D01*
X74602492Y-145833824D01*
X74726254Y-145833824D01*
X74724029Y-145794456D01*
X74701337Y-145737244D01*
X74670376Y-145698580D01*
X74651624Y-145681864D01*
X74633267Y-145670878D01*
X74609381Y-145664180D01*
X74574043Y-145660326D01*
X74521331Y-145657873D01*
X74500423Y-145657168D01*
X74369188Y-145652879D01*
X74369380Y-145613158D01*
X74374463Y-145571405D01*
X74392838Y-145546158D01*
X74429961Y-145530030D01*
X74430957Y-145529742D01*
X74483590Y-145523400D01*
X74535094Y-145531684D01*
X74573370Y-145551827D01*
X74588728Y-145561773D01*
X74605270Y-145560397D01*
X74630725Y-145545987D01*
X74645672Y-145535817D01*
X74674909Y-145514088D01*
X74693020Y-145497800D01*
X74695926Y-145493137D01*
X74683960Y-145469005D01*
X74648604Y-145440185D01*
X74633247Y-145430461D01*
X74589099Y-145413714D01*
X74529602Y-145404227D01*
X74463513Y-145402095D01*
X74399589Y-145407417D01*
G36*
X73802745Y-145403486D02*
X73754405Y-145413015D01*
X73726886Y-145427125D01*
X73697936Y-145450568D01*
X73739124Y-145502571D01*
X73764518Y-145534064D01*
X73781762Y-145549428D01*
X73798898Y-145551776D01*
X73823973Y-145544217D01*
X73835743Y-145539941D01*
X73883730Y-145533631D01*
X73927676Y-145547156D01*
X73959940Y-145577710D01*
X73965181Y-145587452D01*
X73970888Y-145613258D01*
X73975294Y-145660817D01*
X73978189Y-145726758D01*
X73979369Y-145807710D01*
X73979386Y-145819226D01*
X73979386Y-146019822D01*
X74117703Y-146019822D01*
X74117703Y-145403683D01*
X74048544Y-145403683D01*
X74008667Y-145404725D01*
X73987893Y-145409358D01*
X73980211Y-145419849D01*
X73979386Y-145429745D01*
X73979386Y-145455806D01*
X73946255Y-145429745D01*
X73908265Y-145411965D01*
X73857230Y-145403174D01*
X73802745Y-145403486D01*
X73802745Y-145403486D01*
G37*
X73802745Y-145403486D02*
X73754405Y-145413015D01*
X73726886Y-145427125D01*
X73697936Y-145450568D01*
X73739124Y-145502571D01*
X73764518Y-145534064D01*
X73781762Y-145549428D01*
X73798898Y-145551776D01*
X73823973Y-145544217D01*
X73835743Y-145539941D01*
X73883730Y-145533631D01*
X73927676Y-145547156D01*
X73959940Y-145577710D01*
X73965181Y-145587452D01*
X73970888Y-145613258D01*
X73975294Y-145660817D01*
X73978189Y-145726758D01*
X73979369Y-145807710D01*
X73979386Y-145819226D01*
X73979386Y-146019822D01*
X74117703Y-146019822D01*
X74117703Y-145403683D01*
X74048544Y-145403683D01*
X74008667Y-145404725D01*
X73987893Y-145409358D01*
X73980211Y-145419849D01*
X73979386Y-145429745D01*
X73979386Y-145455806D01*
X73946255Y-145429745D01*
X73908265Y-145411965D01*
X73857230Y-145403174D01*
X73802745Y-145403486D01*
G36*
X73405419Y-145406970D02*
X73345315Y-145422597D01*
X73294979Y-145454848D01*
X73270607Y-145478940D01*
X73230655Y-145535895D01*
X73207758Y-145601965D01*
X73199892Y-145683182D01*
X73199852Y-145689748D01*
X73199782Y-145755763D01*
X73579736Y-145755763D01*
X73571637Y-145790342D01*
X73557013Y-145821659D01*
X73531419Y-145854291D01*
X73526065Y-145859500D01*
X73480057Y-145887694D01*
X73427590Y-145892475D01*
X73367197Y-145873926D01*
X73356960Y-145868931D01*
X73325561Y-145853745D01*
X73304530Y-145845094D01*
X73300861Y-145844293D01*
X73288052Y-145852063D01*
X73263622Y-145871072D01*
X73251221Y-145881460D01*
X73225524Y-145905321D01*
X73217085Y-145921077D01*
X73222942Y-145935571D01*
X73226072Y-145939534D01*
X73247275Y-145956879D01*
X73282262Y-145977959D01*
X73306663Y-145990265D01*
X73375928Y-146011946D01*
X73452612Y-146018971D01*
X73525235Y-146010647D01*
X73545574Y-146004686D01*
X73608524Y-145970952D01*
X73655185Y-145919045D01*
X73685827Y-145848459D01*
X73700718Y-145758692D01*
X73702353Y-145711753D01*
X73697579Y-145643413D01*
X73577010Y-145643413D01*
X73565348Y-145648465D01*
X73534002Y-145652429D01*
X73488429Y-145654768D01*
X73457554Y-145655169D01*
X73402019Y-145654783D01*
X73366967Y-145652975D01*
X73347738Y-145648773D01*
X73339670Y-145641203D01*
X73338099Y-145630218D01*
X73348879Y-145596381D01*
X73376020Y-145562940D01*
X73411723Y-145537272D01*
X73447440Y-145526772D01*
X73495952Y-145536086D01*
X73537947Y-145563013D01*
X73567064Y-145601827D01*
X73577010Y-145643413D01*
X73697579Y-145643413D01*
X73695401Y-145612236D01*
X73673945Y-145532949D01*
X73637530Y-145473263D01*
X73585703Y-145432549D01*
X73518010Y-145410179D01*
X73481338Y-145405871D01*
X73405419Y-145406970D01*
X73405419Y-145406970D01*
G37*
X73405419Y-145406970D02*
X73345315Y-145422597D01*
X73294979Y-145454848D01*
X73270607Y-145478940D01*
X73230655Y-145535895D01*
X73207758Y-145601965D01*
X73199892Y-145683182D01*
X73199852Y-145689748D01*
X73199782Y-145755763D01*
X73579736Y-145755763D01*
X73571637Y-145790342D01*
X73557013Y-145821659D01*
X73531419Y-145854291D01*
X73526065Y-145859500D01*
X73480057Y-145887694D01*
X73427590Y-145892475D01*
X73367197Y-145873926D01*
X73356960Y-145868931D01*
X73325561Y-145853745D01*
X73304530Y-145845094D01*
X73300861Y-145844293D01*
X73288052Y-145852063D01*
X73263622Y-145871072D01*
X73251221Y-145881460D01*
X73225524Y-145905321D01*
X73217085Y-145921077D01*
X73222942Y-145935571D01*
X73226072Y-145939534D01*
X73247275Y-145956879D01*
X73282262Y-145977959D01*
X73306663Y-145990265D01*
X73375928Y-146011946D01*
X73452612Y-146018971D01*
X73525235Y-146010647D01*
X73545574Y-146004686D01*
X73608524Y-145970952D01*
X73655185Y-145919045D01*
X73685827Y-145848459D01*
X73700718Y-145758692D01*
X73702353Y-145711753D01*
X73697579Y-145643413D01*
X73577010Y-145643413D01*
X73565348Y-145648465D01*
X73534002Y-145652429D01*
X73488429Y-145654768D01*
X73457554Y-145655169D01*
X73402019Y-145654783D01*
X73366967Y-145652975D01*
X73347738Y-145648773D01*
X73339670Y-145641203D01*
X73338099Y-145630218D01*
X73348879Y-145596381D01*
X73376020Y-145562940D01*
X73411723Y-145537272D01*
X73447440Y-145526772D01*
X73495952Y-145536086D01*
X73537947Y-145563013D01*
X73567064Y-145601827D01*
X73577010Y-145643413D01*
X73697579Y-145643413D01*
X73695401Y-145612236D01*
X73673945Y-145532949D01*
X73637530Y-145473263D01*
X73585703Y-145432549D01*
X73518010Y-145410179D01*
X73481338Y-145405871D01*
X73405419Y-145406970D01*
G36*
X77976261Y-144467148D02*
X77910479Y-144496231D01*
X77860540Y-144544793D01*
X77826374Y-144612908D01*
X77807907Y-144700651D01*
X77806583Y-144714351D01*
X77805546Y-144810939D01*
X77818993Y-144895602D01*
X77846108Y-144964221D01*
X77860627Y-144986294D01*
X77911201Y-145033011D01*
X77975609Y-145063268D01*
X78047666Y-145075824D01*
X78121185Y-145069439D01*
X78177072Y-145049772D01*
X78225132Y-145016629D01*
X78264412Y-144973175D01*
X78265092Y-144972158D01*
X78281044Y-144945338D01*
X78291410Y-144918368D01*
X78297688Y-144884332D01*
X78301373Y-144836310D01*
X78302997Y-144796931D01*
X78303672Y-144761219D01*
X78177955Y-144761219D01*
X78176726Y-144796770D01*
X78172266Y-144844094D01*
X78164397Y-144874465D01*
X78150207Y-144896072D01*
X78136917Y-144908694D01*
X78089802Y-144935122D01*
X78040505Y-144938653D01*
X77994593Y-144919639D01*
X77971638Y-144898331D01*
X77955096Y-144876859D01*
X77945421Y-144856313D01*
X77941174Y-144829574D01*
X77940920Y-144789523D01*
X77942228Y-144752638D01*
X77945043Y-144699947D01*
X77949505Y-144665772D01*
X77957548Y-144643480D01*
X77971103Y-144626442D01*
X77981845Y-144616703D01*
X78026777Y-144591123D01*
X78075249Y-144589847D01*
X78115894Y-144604999D01*
X78150567Y-144636642D01*
X78171224Y-144688620D01*
X78177955Y-144761219D01*
X78303672Y-144761219D01*
X78304479Y-144718621D01*
X78301948Y-144660056D01*
X78294362Y-144616007D01*
X78280681Y-144581248D01*
X78259865Y-144550551D01*
X78252147Y-144541436D01*
X78203889Y-144496021D01*
X78152128Y-144469493D01*
X78088828Y-144458379D01*
X78057961Y-144457471D01*
X77976261Y-144467148D01*
X77976261Y-144467148D01*
G37*
X77976261Y-144467148D02*
X77910479Y-144496231D01*
X77860540Y-144544793D01*
X77826374Y-144612908D01*
X77807907Y-144700651D01*
X77806583Y-144714351D01*
X77805546Y-144810939D01*
X77818993Y-144895602D01*
X77846108Y-144964221D01*
X77860627Y-144986294D01*
X77911201Y-145033011D01*
X77975609Y-145063268D01*
X78047666Y-145075824D01*
X78121185Y-145069439D01*
X78177072Y-145049772D01*
X78225132Y-145016629D01*
X78264412Y-144973175D01*
X78265092Y-144972158D01*
X78281044Y-144945338D01*
X78291410Y-144918368D01*
X78297688Y-144884332D01*
X78301373Y-144836310D01*
X78302997Y-144796931D01*
X78303672Y-144761219D01*
X78177955Y-144761219D01*
X78176726Y-144796770D01*
X78172266Y-144844094D01*
X78164397Y-144874465D01*
X78150207Y-144896072D01*
X78136917Y-144908694D01*
X78089802Y-144935122D01*
X78040505Y-144938653D01*
X77994593Y-144919639D01*
X77971638Y-144898331D01*
X77955096Y-144876859D01*
X77945421Y-144856313D01*
X77941174Y-144829574D01*
X77940920Y-144789523D01*
X77942228Y-144752638D01*
X77945043Y-144699947D01*
X77949505Y-144665772D01*
X77957548Y-144643480D01*
X77971103Y-144626442D01*
X77981845Y-144616703D01*
X78026777Y-144591123D01*
X78075249Y-144589847D01*
X78115894Y-144604999D01*
X78150567Y-144636642D01*
X78171224Y-144688620D01*
X78177955Y-144761219D01*
X78303672Y-144761219D01*
X78304479Y-144718621D01*
X78301948Y-144660056D01*
X78294362Y-144616007D01*
X78280681Y-144581248D01*
X78259865Y-144550551D01*
X78252147Y-144541436D01*
X78203889Y-144496021D01*
X78152128Y-144469493D01*
X78088828Y-144458379D01*
X78057961Y-144457471D01*
X77976261Y-144467148D01*
G36*
X76794699Y-144474614D02*
X76782168Y-144480514D01*
X76738799Y-144512283D01*
X76697790Y-144558646D01*
X76667168Y-144609696D01*
X76658459Y-144633166D01*
X76650512Y-144675091D01*
X76645774Y-144725757D01*
X76645199Y-144746679D01*
X76645129Y-144812693D01*
X77025083Y-144812693D01*
X77016983Y-144847273D01*
X76997104Y-144888170D01*
X76962347Y-144923514D01*
X76920998Y-144946282D01*
X76894649Y-144951010D01*
X76858916Y-144945273D01*
X76816282Y-144930882D01*
X76801799Y-144924262D01*
X76748240Y-144897513D01*
X76702533Y-144932376D01*
X76676158Y-144955955D01*
X76662124Y-144975417D01*
X76661414Y-144981129D01*
X76673951Y-144994973D01*
X76701428Y-145016012D01*
X76726366Y-145032425D01*
X76793664Y-145061930D01*
X76869110Y-145075284D01*
X76943888Y-145071812D01*
X77003495Y-145053663D01*
X77064941Y-145014784D01*
X77108608Y-144963595D01*
X77135926Y-144897367D01*
X77148322Y-144813371D01*
X77149421Y-144774936D01*
X77145022Y-144686861D01*
X77144482Y-144684299D01*
X77018582Y-144684299D01*
X77015115Y-144692558D01*
X77000863Y-144697113D01*
X76971470Y-144699065D01*
X76922575Y-144699517D01*
X76903748Y-144699525D01*
X76846467Y-144698843D01*
X76810141Y-144696364D01*
X76790604Y-144691443D01*
X76783690Y-144683434D01*
X76783445Y-144680862D01*
X76791336Y-144660423D01*
X76811085Y-144631789D01*
X76819575Y-144621763D01*
X76851094Y-144593408D01*
X76883949Y-144582259D01*
X76901651Y-144581327D01*
X76949539Y-144592981D01*
X76989699Y-144624285D01*
X77015173Y-144669752D01*
X77015625Y-144671233D01*
X77018582Y-144684299D01*
X77144482Y-144684299D01*
X77130392Y-144617510D01*
X77104038Y-144562025D01*
X77071807Y-144522639D01*
X77012217Y-144479931D01*
X76942168Y-144457109D01*
X76867661Y-144455046D01*
X76794699Y-144474614D01*
X76794699Y-144474614D01*
G37*
X76794699Y-144474614D02*
X76782168Y-144480514D01*
X76738799Y-144512283D01*
X76697790Y-144558646D01*
X76667168Y-144609696D01*
X76658459Y-144633166D01*
X76650512Y-144675091D01*
X76645774Y-144725757D01*
X76645199Y-144746679D01*
X76645129Y-144812693D01*
X77025083Y-144812693D01*
X77016983Y-144847273D01*
X76997104Y-144888170D01*
X76962347Y-144923514D01*
X76920998Y-144946282D01*
X76894649Y-144951010D01*
X76858916Y-144945273D01*
X76816282Y-144930882D01*
X76801799Y-144924262D01*
X76748240Y-144897513D01*
X76702533Y-144932376D01*
X76676158Y-144955955D01*
X76662124Y-144975417D01*
X76661414Y-144981129D01*
X76673951Y-144994973D01*
X76701428Y-145016012D01*
X76726366Y-145032425D01*
X76793664Y-145061930D01*
X76869110Y-145075284D01*
X76943888Y-145071812D01*
X77003495Y-145053663D01*
X77064941Y-145014784D01*
X77108608Y-144963595D01*
X77135926Y-144897367D01*
X77148322Y-144813371D01*
X77149421Y-144774936D01*
X77145022Y-144686861D01*
X77144482Y-144684299D01*
X77018582Y-144684299D01*
X77015115Y-144692558D01*
X77000863Y-144697113D01*
X76971470Y-144699065D01*
X76922575Y-144699517D01*
X76903748Y-144699525D01*
X76846467Y-144698843D01*
X76810141Y-144696364D01*
X76790604Y-144691443D01*
X76783690Y-144683434D01*
X76783445Y-144680862D01*
X76791336Y-144660423D01*
X76811085Y-144631789D01*
X76819575Y-144621763D01*
X76851094Y-144593408D01*
X76883949Y-144582259D01*
X76901651Y-144581327D01*
X76949539Y-144592981D01*
X76989699Y-144624285D01*
X77015173Y-144669752D01*
X77015625Y-144671233D01*
X77018582Y-144684299D01*
X77144482Y-144684299D01*
X77130392Y-144617510D01*
X77104038Y-144562025D01*
X77071807Y-144522639D01*
X77012217Y-144479931D01*
X76942168Y-144457109D01*
X76867661Y-144455046D01*
X76794699Y-144474614D01*
G36*
X75423983Y-144458452D02*
X75376366Y-144467482D01*
X75326966Y-144486370D01*
X75321688Y-144488777D01*
X75284226Y-144508476D01*
X75258283Y-144526781D01*
X75249897Y-144538508D01*
X75257883Y-144557632D01*
X75277280Y-144585850D01*
X75285890Y-144596384D01*
X75321372Y-144637847D01*
X75367115Y-144610858D01*
X75410650Y-144592878D01*
X75460950Y-144583267D01*
X75509188Y-144582660D01*
X75546533Y-144591691D01*
X75555495Y-144597327D01*
X75572563Y-144623171D01*
X75574637Y-144652941D01*
X75561866Y-144676197D01*
X75554312Y-144680708D01*
X75531675Y-144686309D01*
X75491885Y-144692892D01*
X75442834Y-144699183D01*
X75433785Y-144700170D01*
X75355004Y-144713798D01*
X75297864Y-144736946D01*
X75259970Y-144771752D01*
X75238921Y-144820354D01*
X75232365Y-144879718D01*
X75241423Y-144947198D01*
X75270836Y-145000188D01*
X75320722Y-145038783D01*
X75391200Y-145063081D01*
X75469435Y-145072667D01*
X75533234Y-145072552D01*
X75584984Y-145063845D01*
X75620327Y-145051825D01*
X75664983Y-145030880D01*
X75706253Y-145006574D01*
X75720921Y-144995876D01*
X75758643Y-144965084D01*
X75713148Y-144919049D01*
X75667653Y-144873013D01*
X75615928Y-144907243D01*
X75564048Y-144932952D01*
X75508649Y-144946399D01*
X75455395Y-144947818D01*
X75409951Y-144937443D01*
X75377984Y-144915507D01*
X75367662Y-144896998D01*
X75369211Y-144867314D01*
X75394860Y-144844615D01*
X75444540Y-144828940D01*
X75498969Y-144821695D01*
X75582736Y-144807873D01*
X75644967Y-144781796D01*
X75686493Y-144742699D01*
X75708147Y-144689820D01*
X75711147Y-144627126D01*
X75696329Y-144561642D01*
X75662546Y-144512144D01*
X75609495Y-144478408D01*
X75536874Y-144460207D01*
X75483072Y-144456639D01*
X75423983Y-144458452D01*
X75423983Y-144458452D01*
G37*
X75423983Y-144458452D02*
X75376366Y-144467482D01*
X75326966Y-144486370D01*
X75321688Y-144488777D01*
X75284226Y-144508476D01*
X75258283Y-144526781D01*
X75249897Y-144538508D01*
X75257883Y-144557632D01*
X75277280Y-144585850D01*
X75285890Y-144596384D01*
X75321372Y-144637847D01*
X75367115Y-144610858D01*
X75410650Y-144592878D01*
X75460950Y-144583267D01*
X75509188Y-144582660D01*
X75546533Y-144591691D01*
X75555495Y-144597327D01*
X75572563Y-144623171D01*
X75574637Y-144652941D01*
X75561866Y-144676197D01*
X75554312Y-144680708D01*
X75531675Y-144686309D01*
X75491885Y-144692892D01*
X75442834Y-144699183D01*
X75433785Y-144700170D01*
X75355004Y-144713798D01*
X75297864Y-144736946D01*
X75259970Y-144771752D01*
X75238921Y-144820354D01*
X75232365Y-144879718D01*
X75241423Y-144947198D01*
X75270836Y-145000188D01*
X75320722Y-145038783D01*
X75391200Y-145063081D01*
X75469435Y-145072667D01*
X75533234Y-145072552D01*
X75584984Y-145063845D01*
X75620327Y-145051825D01*
X75664983Y-145030880D01*
X75706253Y-145006574D01*
X75720921Y-144995876D01*
X75758643Y-144965084D01*
X75713148Y-144919049D01*
X75667653Y-144873013D01*
X75615928Y-144907243D01*
X75564048Y-144932952D01*
X75508649Y-144946399D01*
X75455395Y-144947818D01*
X75409951Y-144937443D01*
X75377984Y-144915507D01*
X75367662Y-144896998D01*
X75369211Y-144867314D01*
X75394860Y-144844615D01*
X75444540Y-144828940D01*
X75498969Y-144821695D01*
X75582736Y-144807873D01*
X75644967Y-144781796D01*
X75686493Y-144742699D01*
X75708147Y-144689820D01*
X75711147Y-144627126D01*
X75696329Y-144561642D01*
X75662546Y-144512144D01*
X75609495Y-144478408D01*
X75536874Y-144460207D01*
X75483072Y-144456639D01*
X75423983Y-144458452D01*
G36*
X74827238Y-144468055D02*
X74763637Y-144502692D01*
X74713877Y-144557372D01*
X74690432Y-144601842D01*
X74680366Y-144641121D01*
X74673844Y-144697116D01*
X74671049Y-144761621D01*
X74672164Y-144826429D01*
X74677374Y-144883334D01*
X74683459Y-144913727D01*
X74703986Y-144955306D01*
X74739537Y-144999468D01*
X74782381Y-145038087D01*
X74824789Y-145063034D01*
X74825823Y-145063430D01*
X74878447Y-145074331D01*
X74940812Y-145074601D01*
X75000076Y-145064676D01*
X75022960Y-145056722D01*
X75081898Y-145023300D01*
X75124110Y-144979511D01*
X75151844Y-144921538D01*
X75167349Y-144845565D01*
X75170857Y-144805771D01*
X75170410Y-144755766D01*
X75035624Y-144755766D01*
X75031083Y-144828732D01*
X75018014Y-144884334D01*
X74997244Y-144919861D01*
X74982448Y-144930020D01*
X74944536Y-144937104D01*
X74899473Y-144935007D01*
X74860513Y-144924812D01*
X74850296Y-144919204D01*
X74823341Y-144886538D01*
X74805549Y-144836545D01*
X74797976Y-144775705D01*
X74801675Y-144710497D01*
X74809943Y-144671253D01*
X74833680Y-144625805D01*
X74871151Y-144597396D01*
X74916280Y-144587573D01*
X74962989Y-144597887D01*
X74998868Y-144623112D01*
X75017723Y-144643925D01*
X75028728Y-144664439D01*
X75033974Y-144692203D01*
X75035551Y-144734762D01*
X75035624Y-144755766D01*
X75170410Y-144755766D01*
X75169906Y-144699580D01*
X75152612Y-144612501D01*
X75118971Y-144544530D01*
X75068982Y-144495664D01*
X75002644Y-144465899D01*
X74988399Y-144462448D01*
X74902790Y-144454345D01*
X74827238Y-144468055D01*
X74827238Y-144468055D01*
G37*
X74827238Y-144468055D02*
X74763637Y-144502692D01*
X74713877Y-144557372D01*
X74690432Y-144601842D01*
X74680366Y-144641121D01*
X74673844Y-144697116D01*
X74671049Y-144761621D01*
X74672164Y-144826429D01*
X74677374Y-144883334D01*
X74683459Y-144913727D01*
X74703986Y-144955306D01*
X74739537Y-144999468D01*
X74782381Y-145038087D01*
X74824789Y-145063034D01*
X74825823Y-145063430D01*
X74878447Y-145074331D01*
X74940812Y-145074601D01*
X75000076Y-145064676D01*
X75022960Y-145056722D01*
X75081898Y-145023300D01*
X75124110Y-144979511D01*
X75151844Y-144921538D01*
X75167349Y-144845565D01*
X75170857Y-144805771D01*
X75170410Y-144755766D01*
X75035624Y-144755766D01*
X75031083Y-144828732D01*
X75018014Y-144884334D01*
X74997244Y-144919861D01*
X74982448Y-144930020D01*
X74944536Y-144937104D01*
X74899473Y-144935007D01*
X74860513Y-144924812D01*
X74850296Y-144919204D01*
X74823341Y-144886538D01*
X74805549Y-144836545D01*
X74797976Y-144775705D01*
X74801675Y-144710497D01*
X74809943Y-144671253D01*
X74833680Y-144625805D01*
X74871151Y-144597396D01*
X74916280Y-144587573D01*
X74962989Y-144597887D01*
X74998868Y-144623112D01*
X75017723Y-144643925D01*
X75028728Y-144664439D01*
X75033974Y-144692203D01*
X75035551Y-144734762D01*
X75035624Y-144755766D01*
X75170410Y-144755766D01*
X75169906Y-144699580D01*
X75152612Y-144612501D01*
X75118971Y-144544530D01*
X75068982Y-144495664D01*
X75002644Y-144465899D01*
X74988399Y-144462448D01*
X74902790Y-144454345D01*
X74827238Y-144468055D01*
G36*
X74444633Y-144656342D02*
X74443445Y-144748563D01*
X74439103Y-144818610D01*
X74430442Y-144869381D01*
X74416296Y-144903772D01*
X74395500Y-144924679D01*
X74366890Y-144935000D01*
X74331465Y-144937636D01*
X74294364Y-144934682D01*
X74266182Y-144923889D01*
X74245757Y-144902360D01*
X74231921Y-144867199D01*
X74223509Y-144815510D01*
X74219357Y-144744394D01*
X74218297Y-144656342D01*
X74218297Y-144460614D01*
X74079980Y-144460614D01*
X74079980Y-145064179D01*
X74149138Y-145064179D01*
X74190830Y-145062489D01*
X74212299Y-145056556D01*
X74218297Y-145045293D01*
X74221909Y-145035261D01*
X74236286Y-145037383D01*
X74265264Y-145051580D01*
X74331681Y-145073480D01*
X74402125Y-145071928D01*
X74469623Y-145048147D01*
X74501767Y-145029362D01*
X74526285Y-145009022D01*
X74544196Y-144983573D01*
X74556521Y-144949458D01*
X74564277Y-144903121D01*
X74568484Y-144841007D01*
X74570160Y-144759561D01*
X74570376Y-144696578D01*
X74570376Y-144460614D01*
X74444633Y-144460614D01*
X74444633Y-144656342D01*
X74444633Y-144656342D01*
G37*
X74444633Y-144656342D02*
X74443445Y-144748563D01*
X74439103Y-144818610D01*
X74430442Y-144869381D01*
X74416296Y-144903772D01*
X74395500Y-144924679D01*
X74366890Y-144935000D01*
X74331465Y-144937636D01*
X74294364Y-144934682D01*
X74266182Y-144923889D01*
X74245757Y-144902360D01*
X74231921Y-144867199D01*
X74223509Y-144815510D01*
X74219357Y-144744394D01*
X74218297Y-144656342D01*
X74218297Y-144460614D01*
X74079980Y-144460614D01*
X74079980Y-145064179D01*
X74149138Y-145064179D01*
X74190830Y-145062489D01*
X74212299Y-145056556D01*
X74218297Y-145045293D01*
X74221909Y-145035261D01*
X74236286Y-145037383D01*
X74265264Y-145051580D01*
X74331681Y-145073480D01*
X74402125Y-145071928D01*
X74469623Y-145048147D01*
X74501767Y-145029362D01*
X74526285Y-145009022D01*
X74544196Y-144983573D01*
X74556521Y-144949458D01*
X74564277Y-144903121D01*
X74568484Y-144841007D01*
X74570160Y-144759561D01*
X74570376Y-144696578D01*
X74570376Y-144460614D01*
X74444633Y-144460614D01*
X74444633Y-144656342D01*
G36*
X73220774Y-144465880D02*
X73147920Y-144496830D01*
X73124973Y-144511895D01*
X73095646Y-144535048D01*
X73077236Y-144553253D01*
X73074039Y-144559183D01*
X73083065Y-144572340D01*
X73106163Y-144594667D01*
X73124656Y-144610250D01*
X73175272Y-144650926D01*
X73215240Y-144617295D01*
X73246126Y-144595584D01*
X73276241Y-144588090D01*
X73310708Y-144589920D01*
X73365439Y-144603528D01*
X73403114Y-144631772D01*
X73426009Y-144677433D01*
X73436403Y-144743289D01*
X73436405Y-144743331D01*
X73435506Y-144816939D01*
X73421537Y-144870946D01*
X73393672Y-144907716D01*
X73374675Y-144920168D01*
X73324224Y-144935673D01*
X73270337Y-144935683D01*
X73223454Y-144920638D01*
X73212356Y-144913287D01*
X73184524Y-144894511D01*
X73162764Y-144891434D01*
X73139296Y-144905409D01*
X73113351Y-144930510D01*
X73072284Y-144972880D01*
X73117879Y-145010464D01*
X73188326Y-145052882D01*
X73267767Y-145073785D01*
X73350785Y-145072272D01*
X73405306Y-145058411D01*
X73469030Y-145024135D01*
X73519995Y-144970212D01*
X73543149Y-144932149D01*
X73561901Y-144877536D01*
X73571285Y-144808369D01*
X73571357Y-144733407D01*
X73562176Y-144661409D01*
X73543801Y-144601137D01*
X73540907Y-144594958D01*
X73498048Y-144534351D01*
X73440021Y-144490224D01*
X73371409Y-144463493D01*
X73296799Y-144455073D01*
X73220774Y-144465880D01*
X73220774Y-144465880D01*
G37*
X73220774Y-144465880D02*
X73147920Y-144496830D01*
X73124973Y-144511895D01*
X73095646Y-144535048D01*
X73077236Y-144553253D01*
X73074039Y-144559183D01*
X73083065Y-144572340D01*
X73106163Y-144594667D01*
X73124656Y-144610250D01*
X73175272Y-144650926D01*
X73215240Y-144617295D01*
X73246126Y-144595584D01*
X73276241Y-144588090D01*
X73310708Y-144589920D01*
X73365439Y-144603528D01*
X73403114Y-144631772D01*
X73426009Y-144677433D01*
X73436403Y-144743289D01*
X73436405Y-144743331D01*
X73435506Y-144816939D01*
X73421537Y-144870946D01*
X73393672Y-144907716D01*
X73374675Y-144920168D01*
X73324224Y-144935673D01*
X73270337Y-144935683D01*
X73223454Y-144920638D01*
X73212356Y-144913287D01*
X73184524Y-144894511D01*
X73162764Y-144891434D01*
X73139296Y-144905409D01*
X73113351Y-144930510D01*
X73072284Y-144972880D01*
X73117879Y-145010464D01*
X73188326Y-145052882D01*
X73267767Y-145073785D01*
X73350785Y-145072272D01*
X73405306Y-145058411D01*
X73469030Y-145024135D01*
X73519995Y-144970212D01*
X73543149Y-144932149D01*
X73561901Y-144877536D01*
X73571285Y-144808369D01*
X73571357Y-144733407D01*
X73562176Y-144661409D01*
X73543801Y-144601137D01*
X73540907Y-144594958D01*
X73498048Y-144534351D01*
X73440021Y-144490224D01*
X73371409Y-144463493D01*
X73296799Y-144455073D01*
X73220774Y-144465880D01*
G36*
X72760102Y-144458457D02*
X72727904Y-144466279D01*
X72666175Y-144494921D01*
X72613390Y-144538667D01*
X72576859Y-144591117D01*
X72571840Y-144602893D01*
X72564955Y-144633740D01*
X72560136Y-144679371D01*
X72558495Y-144725492D01*
X72558495Y-144812693D01*
X72740822Y-144812693D01*
X72816021Y-144812978D01*
X72868997Y-144814704D01*
X72902675Y-144819181D01*
X72919980Y-144827720D01*
X72923837Y-144841630D01*
X72917171Y-144862222D01*
X72905230Y-144886315D01*
X72871920Y-144926525D01*
X72825632Y-144946558D01*
X72769056Y-144945905D01*
X72704969Y-144924101D01*
X72649583Y-144897193D01*
X72603625Y-144933532D01*
X72557667Y-144969872D01*
X72600904Y-145009819D01*
X72658626Y-145047563D01*
X72729614Y-145070320D01*
X72805971Y-145076688D01*
X72879801Y-145065268D01*
X72891713Y-145061393D01*
X72956601Y-145027506D01*
X73004870Y-144976986D01*
X73037535Y-144908325D01*
X73055615Y-144820014D01*
X73055825Y-144818121D01*
X73057444Y-144721878D01*
X73050900Y-144687542D01*
X72923148Y-144687542D01*
X72911416Y-144692822D01*
X72879562Y-144696867D01*
X72832603Y-144699176D01*
X72802846Y-144699525D01*
X72747352Y-144699306D01*
X72712654Y-144697916D01*
X72694399Y-144694251D01*
X72688234Y-144687210D01*
X72689805Y-144675690D01*
X72691122Y-144671233D01*
X72713618Y-144629355D01*
X72748997Y-144595604D01*
X72780220Y-144580773D01*
X72821699Y-144581668D01*
X72863731Y-144600164D01*
X72898988Y-144630786D01*
X72920146Y-144668062D01*
X72923148Y-144687542D01*
X73050900Y-144687542D01*
X73041310Y-144637229D01*
X73009302Y-144566191D01*
X72963299Y-144510779D01*
X72905179Y-144473009D01*
X72836820Y-144454896D01*
X72760102Y-144458457D01*
X72760102Y-144458457D01*
G37*
X72760102Y-144458457D02*
X72727904Y-144466279D01*
X72666175Y-144494921D01*
X72613390Y-144538667D01*
X72576859Y-144591117D01*
X72571840Y-144602893D01*
X72564955Y-144633740D01*
X72560136Y-144679371D01*
X72558495Y-144725492D01*
X72558495Y-144812693D01*
X72740822Y-144812693D01*
X72816021Y-144812978D01*
X72868997Y-144814704D01*
X72902675Y-144819181D01*
X72919980Y-144827720D01*
X72923837Y-144841630D01*
X72917171Y-144862222D01*
X72905230Y-144886315D01*
X72871920Y-144926525D01*
X72825632Y-144946558D01*
X72769056Y-144945905D01*
X72704969Y-144924101D01*
X72649583Y-144897193D01*
X72603625Y-144933532D01*
X72557667Y-144969872D01*
X72600904Y-145009819D01*
X72658626Y-145047563D01*
X72729614Y-145070320D01*
X72805971Y-145076688D01*
X72879801Y-145065268D01*
X72891713Y-145061393D01*
X72956601Y-145027506D01*
X73004870Y-144976986D01*
X73037535Y-144908325D01*
X73055615Y-144820014D01*
X73055825Y-144818121D01*
X73057444Y-144721878D01*
X73050900Y-144687542D01*
X72923148Y-144687542D01*
X72911416Y-144692822D01*
X72879562Y-144696867D01*
X72832603Y-144699176D01*
X72802846Y-144699525D01*
X72747352Y-144699306D01*
X72712654Y-144697916D01*
X72694399Y-144694251D01*
X72688234Y-144687210D01*
X72689805Y-144675690D01*
X72691122Y-144671233D01*
X72713618Y-144629355D01*
X72748997Y-144595604D01*
X72780220Y-144580773D01*
X72821699Y-144581668D01*
X72863731Y-144600164D01*
X72898988Y-144630786D01*
X72920146Y-144668062D01*
X72923148Y-144687542D01*
X73050900Y-144687542D01*
X73041310Y-144637229D01*
X73009302Y-144566191D01*
X72963299Y-144510779D01*
X72905179Y-144473009D01*
X72836820Y-144454896D01*
X72760102Y-144458457D01*
G36*
X76192012Y-144471002D02*
X76160717Y-144485950D01*
X76130409Y-144507541D01*
X76107318Y-144532391D01*
X76090500Y-144564087D01*
X76079006Y-144606214D01*
X76071891Y-144662358D01*
X76068207Y-144736106D01*
X76067008Y-144831044D01*
X76066989Y-144840985D01*
X76066713Y-145064179D01*
X76205030Y-145064179D01*
X76205030Y-144858418D01*
X76205128Y-144782189D01*
X76205809Y-144726939D01*
X76207651Y-144688501D01*
X76211233Y-144662706D01*
X76217132Y-144645384D01*
X76225927Y-144632368D01*
X76238180Y-144619507D01*
X76281047Y-144591873D01*
X76327843Y-144586745D01*
X76372424Y-144604217D01*
X76387928Y-144617221D01*
X76399310Y-144629447D01*
X76407481Y-144642540D01*
X76412974Y-144660615D01*
X76416320Y-144687787D01*
X76418051Y-144728170D01*
X76418697Y-144785879D01*
X76418792Y-144856132D01*
X76418792Y-145064179D01*
X76557109Y-145064179D01*
X76557109Y-144460614D01*
X76487950Y-144460614D01*
X76446428Y-144462256D01*
X76425006Y-144468087D01*
X76418795Y-144479461D01*
X76418792Y-144479798D01*
X76415910Y-144490938D01*
X76403199Y-144489674D01*
X76377926Y-144477434D01*
X76320605Y-144459424D01*
X76255037Y-144457421D01*
X76192012Y-144471002D01*
X76192012Y-144471002D01*
G37*
X76192012Y-144471002D02*
X76160717Y-144485950D01*
X76130409Y-144507541D01*
X76107318Y-144532391D01*
X76090500Y-144564087D01*
X76079006Y-144606214D01*
X76071891Y-144662358D01*
X76068207Y-144736106D01*
X76067008Y-144831044D01*
X76066989Y-144840985D01*
X76066713Y-145064179D01*
X76205030Y-145064179D01*
X76205030Y-144858418D01*
X76205128Y-144782189D01*
X76205809Y-144726939D01*
X76207651Y-144688501D01*
X76211233Y-144662706D01*
X76217132Y-144645384D01*
X76225927Y-144632368D01*
X76238180Y-144619507D01*
X76281047Y-144591873D01*
X76327843Y-144586745D01*
X76372424Y-144604217D01*
X76387928Y-144617221D01*
X76399310Y-144629447D01*
X76407481Y-144642540D01*
X76412974Y-144660615D01*
X76416320Y-144687787D01*
X76418051Y-144728170D01*
X76418697Y-144785879D01*
X76418792Y-144856132D01*
X76418792Y-145064179D01*
X76557109Y-145064179D01*
X76557109Y-144460614D01*
X76487950Y-144460614D01*
X76446428Y-144462256D01*
X76425006Y-144468087D01*
X76418795Y-144479461D01*
X76418792Y-144479798D01*
X76415910Y-144490938D01*
X76403199Y-144489674D01*
X76377926Y-144477434D01*
X76320605Y-144459424D01*
X76255037Y-144457421D01*
X76192012Y-144471002D01*
G36*
X73638540Y-144460030D02*
X73595289Y-144473245D01*
X73567442Y-144489941D01*
X73558371Y-144503145D01*
X73560868Y-144518797D01*
X73577069Y-144543385D01*
X73590768Y-144560800D01*
X73619008Y-144592283D01*
X73640225Y-144605529D01*
X73658312Y-144604664D01*
X73711965Y-144591010D01*
X73751370Y-144591630D01*
X73783368Y-144607104D01*
X73794110Y-144616161D01*
X73828495Y-144648027D01*
X73828495Y-145064179D01*
X73966812Y-145064179D01*
X73966812Y-144460614D01*
X73897653Y-144460614D01*
X73856131Y-144462256D01*
X73834709Y-144468087D01*
X73828498Y-144479461D01*
X73828495Y-144479798D01*
X73825561Y-144491713D01*
X73812296Y-144490159D01*
X73793916Y-144481563D01*
X73755954Y-144465568D01*
X73725128Y-144455945D01*
X73685464Y-144453478D01*
X73638540Y-144460030D01*
X73638540Y-144460030D01*
G37*
X73638540Y-144460030D02*
X73595289Y-144473245D01*
X73567442Y-144489941D01*
X73558371Y-144503145D01*
X73560868Y-144518797D01*
X73577069Y-144543385D01*
X73590768Y-144560800D01*
X73619008Y-144592283D01*
X73640225Y-144605529D01*
X73658312Y-144604664D01*
X73711965Y-144591010D01*
X73751370Y-144591630D01*
X73783368Y-144607104D01*
X73794110Y-144616161D01*
X73828495Y-144648027D01*
X73828495Y-145064179D01*
X73966812Y-145064179D01*
X73966812Y-144460614D01*
X73897653Y-144460614D01*
X73856131Y-144462256D01*
X73834709Y-144468087D01*
X73828498Y-144479461D01*
X73828495Y-144479798D01*
X73825561Y-144491713D01*
X73812296Y-144490159D01*
X73793916Y-144481563D01*
X73755954Y-144465568D01*
X73725128Y-144455945D01*
X73685464Y-144453478D01*
X73638540Y-144460030D01*
G36*
X75061036Y-140292018D02*
X75004188Y-140593570D01*
X74584662Y-140766512D01*
X74333016Y-140595395D01*
X74262542Y-140547750D01*
X74198837Y-140505210D01*
X74144874Y-140469715D01*
X74103627Y-140443210D01*
X74078066Y-140427636D01*
X74071105Y-140424278D01*
X74058565Y-140432914D01*
X74031769Y-140456792D01*
X73993720Y-140492859D01*
X73947421Y-140538067D01*
X73895877Y-140589364D01*
X73842091Y-140643701D01*
X73789065Y-140698028D01*
X73739805Y-140749295D01*
X73697313Y-140794451D01*
X73664593Y-140830446D01*
X73644649Y-140854230D01*
X73639881Y-140862190D01*
X73646743Y-140876865D01*
X73665980Y-140909014D01*
X73695570Y-140955492D01*
X73733490Y-141013156D01*
X73777718Y-141078860D01*
X73803346Y-141116336D01*
X73850059Y-141184768D01*
X73891568Y-141246520D01*
X73925860Y-141298519D01*
X73950920Y-141337692D01*
X73964736Y-141360965D01*
X73966812Y-141365855D01*
X73962105Y-141379755D01*
X73949277Y-141412150D01*
X73930262Y-141458485D01*
X73906997Y-141514206D01*
X73881416Y-141574758D01*
X73855455Y-141635586D01*
X73831050Y-141692136D01*
X73810137Y-141739852D01*
X73794651Y-141774181D01*
X73786528Y-141790568D01*
X73786048Y-141791212D01*
X73773293Y-141794341D01*
X73739323Y-141801321D01*
X73687660Y-141811467D01*
X73621824Y-141824092D01*
X73545336Y-141838509D01*
X73500710Y-141846823D01*
X73418979Y-141862384D01*
X73345157Y-141877192D01*
X73282979Y-141890436D01*
X73236178Y-141901305D01*
X73208491Y-141908989D01*
X73202926Y-141911427D01*
X73197474Y-141927930D01*
X73193076Y-141965200D01*
X73189728Y-142018880D01*
X73187426Y-142084612D01*
X73186168Y-142158037D01*
X73185952Y-142234796D01*
X73186773Y-142310532D01*
X73188629Y-142380886D01*
X73191518Y-142441500D01*
X73195435Y-142488016D01*
X73200378Y-142516075D01*
X73203343Y-142521916D01*
X73221066Y-142528917D01*
X73258619Y-142538927D01*
X73311036Y-142550769D01*
X73373348Y-142563267D01*
X73395100Y-142567310D01*
X73499976Y-142586520D01*
X73582820Y-142601991D01*
X73646370Y-142614337D01*
X73693363Y-142624173D01*
X73726537Y-142632114D01*
X73748629Y-142638776D01*
X73762376Y-142644773D01*
X73770516Y-142650719D01*
X73771655Y-142651894D01*
X73783023Y-142670826D01*
X73800365Y-142707669D01*
X73821950Y-142757913D01*
X73846046Y-142817046D01*
X73870921Y-142880556D01*
X73894843Y-142943932D01*
X73916081Y-143002662D01*
X73932903Y-143052235D01*
X73943578Y-143088139D01*
X73946373Y-143105862D01*
X73946140Y-143106483D01*
X73936669Y-143120970D01*
X73915182Y-143152844D01*
X73883937Y-143198789D01*
X73845193Y-143255485D01*
X73801207Y-143319617D01*
X73788681Y-143337842D01*
X73744016Y-143403914D01*
X73704712Y-143464200D01*
X73672912Y-143515235D01*
X73650755Y-143553560D01*
X73640383Y-143575711D01*
X73639881Y-143578432D01*
X73648595Y-143592736D01*
X73672675Y-143621072D01*
X73709024Y-143660396D01*
X73754547Y-143707661D01*
X73806148Y-143759823D01*
X73860733Y-143813835D01*
X73915206Y-143866653D01*
X73966471Y-143915231D01*
X74011433Y-143956523D01*
X74046996Y-143987485D01*
X74070065Y-144005070D01*
X74076446Y-144007941D01*
X74091301Y-144001178D01*
X74121714Y-143982939D01*
X74162732Y-143956297D01*
X74194291Y-143934852D01*
X74251475Y-143895503D01*
X74319194Y-143849171D01*
X74387120Y-143802913D01*
X74423639Y-143778155D01*
X74547248Y-143694547D01*
X74651009Y-143750650D01*
X74698280Y-143775228D01*
X74738477Y-143794331D01*
X74765674Y-143805227D01*
X74772598Y-143806743D01*
X74780923Y-143795549D01*
X74797346Y-143763917D01*
X74820643Y-143714765D01*
X74849586Y-143651010D01*
X74882950Y-143575571D01*
X74919509Y-143491364D01*
X74958036Y-143401308D01*
X74997306Y-143308321D01*
X75036092Y-143215320D01*
X75073170Y-143125223D01*
X75107311Y-143040948D01*
X75137292Y-142965413D01*
X75161884Y-142901534D01*
X75179864Y-142852231D01*
X75190003Y-142820421D01*
X75191634Y-142809496D01*
X75178709Y-142795561D01*
X75150411Y-142772940D01*
X75112654Y-142746333D01*
X75109485Y-142744228D01*
X75011900Y-142666114D01*
X74933214Y-142574982D01*
X74874109Y-142473745D01*
X74835268Y-142365318D01*
X74817372Y-142252614D01*
X74821103Y-142138548D01*
X74847143Y-142026034D01*
X74896175Y-141917985D01*
X74910600Y-141894345D01*
X74985631Y-141798887D01*
X75074270Y-141722232D01*
X75173451Y-141664780D01*
X75280105Y-141626929D01*
X75391164Y-141609078D01*
X75503561Y-141611625D01*
X75614227Y-141634970D01*
X75720094Y-141679510D01*
X75818095Y-141745645D01*
X75848410Y-141772487D01*
X75925562Y-141856512D01*
X75981782Y-141944966D01*
X76020347Y-142044115D01*
X76041826Y-142142303D01*
X76047128Y-142252697D01*
X76029448Y-142363640D01*
X75990581Y-142471381D01*
X75932323Y-142572169D01*
X75856469Y-142662256D01*
X75764817Y-142737892D01*
X75752772Y-142745864D01*
X75714611Y-142771974D01*
X75685601Y-142794595D01*
X75671732Y-142809039D01*
X75671531Y-142809496D01*
X75674508Y-142825121D01*
X75686311Y-142860582D01*
X75705714Y-142912962D01*
X75731488Y-142979345D01*
X75762409Y-143056814D01*
X75797249Y-143142450D01*
X75834783Y-143233337D01*
X75873783Y-143326559D01*
X75913023Y-143419197D01*
X75951276Y-143508335D01*
X75987317Y-143591055D01*
X76019917Y-143664441D01*
X76047852Y-143725575D01*
X76069895Y-143771541D01*
X76084818Y-143799421D01*
X76090828Y-143806743D01*
X76109191Y-143801041D01*
X76143552Y-143785749D01*
X76187984Y-143763599D01*
X76212417Y-143750650D01*
X76316178Y-143694547D01*
X76439787Y-143778155D01*
X76502886Y-143820987D01*
X76571970Y-143868122D01*
X76636707Y-143912503D01*
X76669134Y-143934852D01*
X76714741Y-143965477D01*
X76753360Y-143989747D01*
X76779952Y-144004587D01*
X76788590Y-144007724D01*
X76801161Y-143999261D01*
X76828984Y-143975636D01*
X76869361Y-143939302D01*
X76919595Y-143892711D01*
X76976988Y-143838317D01*
X77013286Y-143803392D01*
X77076790Y-143740996D01*
X77131673Y-143685188D01*
X77175714Y-143638354D01*
X77206695Y-143602882D01*
X77222398Y-143581161D01*
X77223905Y-143576752D01*
X77216914Y-143559985D01*
X77197594Y-143526082D01*
X77168091Y-143478476D01*
X77130545Y-143420599D01*
X77087100Y-143355884D01*
X77074745Y-143337842D01*
X77029727Y-143272267D01*
X76989340Y-143213228D01*
X76955840Y-143164042D01*
X76931486Y-143128028D01*
X76918536Y-143108502D01*
X76917285Y-143106483D01*
X76919156Y-143090922D01*
X76929087Y-143056709D01*
X76945347Y-143008355D01*
X76966205Y-142950371D01*
X76989927Y-142887270D01*
X77014784Y-142823563D01*
X77039042Y-142763761D01*
X77060971Y-142712376D01*
X77078838Y-142673919D01*
X77090913Y-142652902D01*
X77091771Y-142651894D01*
X77099154Y-142645888D01*
X77111625Y-142639948D01*
X77131920Y-142633460D01*
X77162778Y-142625809D01*
X77206934Y-142616380D01*
X77267126Y-142604559D01*
X77346093Y-142589729D01*
X77446570Y-142571277D01*
X77468325Y-142567310D01*
X77532802Y-142554853D01*
X77589011Y-142542666D01*
X77631987Y-142531926D01*
X77656760Y-142523809D01*
X77660082Y-142521916D01*
X77665556Y-142505138D01*
X77670006Y-142467645D01*
X77673428Y-142413794D01*
X77675819Y-142347944D01*
X77677177Y-142274453D01*
X77677499Y-142197680D01*
X77676781Y-142121983D01*
X77675021Y-142051720D01*
X77672216Y-141991250D01*
X77668362Y-141944930D01*
X77663457Y-141917119D01*
X77660500Y-141911427D01*
X77644037Y-141905686D01*
X77606551Y-141896345D01*
X77551775Y-141884215D01*
X77483445Y-141870107D01*
X77405294Y-141854830D01*
X77362716Y-141846823D01*
X77281929Y-141831721D01*
X77209887Y-141818040D01*
X77150111Y-141806467D01*
X77106121Y-141797687D01*
X77081439Y-141792387D01*
X77077377Y-141791212D01*
X77070511Y-141777965D01*
X77055998Y-141746057D01*
X77035771Y-141700047D01*
X77011766Y-141644492D01*
X76985918Y-141583953D01*
X76960160Y-141522986D01*
X76936427Y-141466151D01*
X76916654Y-141418006D01*
X76902776Y-141383110D01*
X76896726Y-141366021D01*
X76896614Y-141365274D01*
X76903472Y-141351793D01*
X76922698Y-141320770D01*
X76952272Y-141275289D01*
X76990173Y-141218432D01*
X77034380Y-141153283D01*
X77060079Y-141115862D01*
X77106907Y-141047247D01*
X77148499Y-140984952D01*
X77182825Y-140932129D01*
X77207857Y-140891927D01*
X77221565Y-140867500D01*
X77223544Y-140862024D01*
X77215034Y-140849278D01*
X77191507Y-140822063D01*
X77155968Y-140783428D01*
X77111423Y-140736423D01*
X77060877Y-140684095D01*
X77007336Y-140629495D01*
X76953805Y-140575670D01*
X76903289Y-140525670D01*
X76858794Y-140482543D01*
X76823325Y-140449339D01*
X76799887Y-140429106D01*
X76792046Y-140424278D01*
X76779280Y-140431067D01*
X76748744Y-140450142D01*
X76703410Y-140479561D01*
X76646244Y-140517381D01*
X76580216Y-140561661D01*
X76530410Y-140595395D01*
X76278764Y-140766512D01*
X76069001Y-140680041D01*
X75859237Y-140593570D01*
X75802389Y-140292018D01*
X75745540Y-139990466D01*
X75117885Y-139990466D01*
X75061036Y-140292018D01*
X75061036Y-140292018D01*
G37*
X75061036Y-140292018D02*
X75004188Y-140593570D01*
X74584662Y-140766512D01*
X74333016Y-140595395D01*
X74262542Y-140547750D01*
X74198837Y-140505210D01*
X74144874Y-140469715D01*
X74103627Y-140443210D01*
X74078066Y-140427636D01*
X74071105Y-140424278D01*
X74058565Y-140432914D01*
X74031769Y-140456792D01*
X73993720Y-140492859D01*
X73947421Y-140538067D01*
X73895877Y-140589364D01*
X73842091Y-140643701D01*
X73789065Y-140698028D01*
X73739805Y-140749295D01*
X73697313Y-140794451D01*
X73664593Y-140830446D01*
X73644649Y-140854230D01*
X73639881Y-140862190D01*
X73646743Y-140876865D01*
X73665980Y-140909014D01*
X73695570Y-140955492D01*
X73733490Y-141013156D01*
X73777718Y-141078860D01*
X73803346Y-141116336D01*
X73850059Y-141184768D01*
X73891568Y-141246520D01*
X73925860Y-141298519D01*
X73950920Y-141337692D01*
X73964736Y-141360965D01*
X73966812Y-141365855D01*
X73962105Y-141379755D01*
X73949277Y-141412150D01*
X73930262Y-141458485D01*
X73906997Y-141514206D01*
X73881416Y-141574758D01*
X73855455Y-141635586D01*
X73831050Y-141692136D01*
X73810137Y-141739852D01*
X73794651Y-141774181D01*
X73786528Y-141790568D01*
X73786048Y-141791212D01*
X73773293Y-141794341D01*
X73739323Y-141801321D01*
X73687660Y-141811467D01*
X73621824Y-141824092D01*
X73545336Y-141838509D01*
X73500710Y-141846823D01*
X73418979Y-141862384D01*
X73345157Y-141877192D01*
X73282979Y-141890436D01*
X73236178Y-141901305D01*
X73208491Y-141908989D01*
X73202926Y-141911427D01*
X73197474Y-141927930D01*
X73193076Y-141965200D01*
X73189728Y-142018880D01*
X73187426Y-142084612D01*
X73186168Y-142158037D01*
X73185952Y-142234796D01*
X73186773Y-142310532D01*
X73188629Y-142380886D01*
X73191518Y-142441500D01*
X73195435Y-142488016D01*
X73200378Y-142516075D01*
X73203343Y-142521916D01*
X73221066Y-142528917D01*
X73258619Y-142538927D01*
X73311036Y-142550769D01*
X73373348Y-142563267D01*
X73395100Y-142567310D01*
X73499976Y-142586520D01*
X73582820Y-142601991D01*
X73646370Y-142614337D01*
X73693363Y-142624173D01*
X73726537Y-142632114D01*
X73748629Y-142638776D01*
X73762376Y-142644773D01*
X73770516Y-142650719D01*
X73771655Y-142651894D01*
X73783023Y-142670826D01*
X73800365Y-142707669D01*
X73821950Y-142757913D01*
X73846046Y-142817046D01*
X73870921Y-142880556D01*
X73894843Y-142943932D01*
X73916081Y-143002662D01*
X73932903Y-143052235D01*
X73943578Y-143088139D01*
X73946373Y-143105862D01*
X73946140Y-143106483D01*
X73936669Y-143120970D01*
X73915182Y-143152844D01*
X73883937Y-143198789D01*
X73845193Y-143255485D01*
X73801207Y-143319617D01*
X73788681Y-143337842D01*
X73744016Y-143403914D01*
X73704712Y-143464200D01*
X73672912Y-143515235D01*
X73650755Y-143553560D01*
X73640383Y-143575711D01*
X73639881Y-143578432D01*
X73648595Y-143592736D01*
X73672675Y-143621072D01*
X73709024Y-143660396D01*
X73754547Y-143707661D01*
X73806148Y-143759823D01*
X73860733Y-143813835D01*
X73915206Y-143866653D01*
X73966471Y-143915231D01*
X74011433Y-143956523D01*
X74046996Y-143987485D01*
X74070065Y-144005070D01*
X74076446Y-144007941D01*
X74091301Y-144001178D01*
X74121714Y-143982939D01*
X74162732Y-143956297D01*
X74194291Y-143934852D01*
X74251475Y-143895503D01*
X74319194Y-143849171D01*
X74387120Y-143802913D01*
X74423639Y-143778155D01*
X74547248Y-143694547D01*
X74651009Y-143750650D01*
X74698280Y-143775228D01*
X74738477Y-143794331D01*
X74765674Y-143805227D01*
X74772598Y-143806743D01*
X74780923Y-143795549D01*
X74797346Y-143763917D01*
X74820643Y-143714765D01*
X74849586Y-143651010D01*
X74882950Y-143575571D01*
X74919509Y-143491364D01*
X74958036Y-143401308D01*
X74997306Y-143308321D01*
X75036092Y-143215320D01*
X75073170Y-143125223D01*
X75107311Y-143040948D01*
X75137292Y-142965413D01*
X75161884Y-142901534D01*
X75179864Y-142852231D01*
X75190003Y-142820421D01*
X75191634Y-142809496D01*
X75178709Y-142795561D01*
X75150411Y-142772940D01*
X75112654Y-142746333D01*
X75109485Y-142744228D01*
X75011900Y-142666114D01*
X74933214Y-142574982D01*
X74874109Y-142473745D01*
X74835268Y-142365318D01*
X74817372Y-142252614D01*
X74821103Y-142138548D01*
X74847143Y-142026034D01*
X74896175Y-141917985D01*
X74910600Y-141894345D01*
X74985631Y-141798887D01*
X75074270Y-141722232D01*
X75173451Y-141664780D01*
X75280105Y-141626929D01*
X75391164Y-141609078D01*
X75503561Y-141611625D01*
X75614227Y-141634970D01*
X75720094Y-141679510D01*
X75818095Y-141745645D01*
X75848410Y-141772487D01*
X75925562Y-141856512D01*
X75981782Y-141944966D01*
X76020347Y-142044115D01*
X76041826Y-142142303D01*
X76047128Y-142252697D01*
X76029448Y-142363640D01*
X75990581Y-142471381D01*
X75932323Y-142572169D01*
X75856469Y-142662256D01*
X75764817Y-142737892D01*
X75752772Y-142745864D01*
X75714611Y-142771974D01*
X75685601Y-142794595D01*
X75671732Y-142809039D01*
X75671531Y-142809496D01*
X75674508Y-142825121D01*
X75686311Y-142860582D01*
X75705714Y-142912962D01*
X75731488Y-142979345D01*
X75762409Y-143056814D01*
X75797249Y-143142450D01*
X75834783Y-143233337D01*
X75873783Y-143326559D01*
X75913023Y-143419197D01*
X75951276Y-143508335D01*
X75987317Y-143591055D01*
X76019917Y-143664441D01*
X76047852Y-143725575D01*
X76069895Y-143771541D01*
X76084818Y-143799421D01*
X76090828Y-143806743D01*
X76109191Y-143801041D01*
X76143552Y-143785749D01*
X76187984Y-143763599D01*
X76212417Y-143750650D01*
X76316178Y-143694547D01*
X76439787Y-143778155D01*
X76502886Y-143820987D01*
X76571970Y-143868122D01*
X76636707Y-143912503D01*
X76669134Y-143934852D01*
X76714741Y-143965477D01*
X76753360Y-143989747D01*
X76779952Y-144004587D01*
X76788590Y-144007724D01*
X76801161Y-143999261D01*
X76828984Y-143975636D01*
X76869361Y-143939302D01*
X76919595Y-143892711D01*
X76976988Y-143838317D01*
X77013286Y-143803392D01*
X77076790Y-143740996D01*
X77131673Y-143685188D01*
X77175714Y-143638354D01*
X77206695Y-143602882D01*
X77222398Y-143581161D01*
X77223905Y-143576752D01*
X77216914Y-143559985D01*
X77197594Y-143526082D01*
X77168091Y-143478476D01*
X77130545Y-143420599D01*
X77087100Y-143355884D01*
X77074745Y-143337842D01*
X77029727Y-143272267D01*
X76989340Y-143213228D01*
X76955840Y-143164042D01*
X76931486Y-143128028D01*
X76918536Y-143108502D01*
X76917285Y-143106483D01*
X76919156Y-143090922D01*
X76929087Y-143056709D01*
X76945347Y-143008355D01*
X76966205Y-142950371D01*
X76989927Y-142887270D01*
X77014784Y-142823563D01*
X77039042Y-142763761D01*
X77060971Y-142712376D01*
X77078838Y-142673919D01*
X77090913Y-142652902D01*
X77091771Y-142651894D01*
X77099154Y-142645888D01*
X77111625Y-142639948D01*
X77131920Y-142633460D01*
X77162778Y-142625809D01*
X77206934Y-142616380D01*
X77267126Y-142604559D01*
X77346093Y-142589729D01*
X77446570Y-142571277D01*
X77468325Y-142567310D01*
X77532802Y-142554853D01*
X77589011Y-142542666D01*
X77631987Y-142531926D01*
X77656760Y-142523809D01*
X77660082Y-142521916D01*
X77665556Y-142505138D01*
X77670006Y-142467645D01*
X77673428Y-142413794D01*
X77675819Y-142347944D01*
X77677177Y-142274453D01*
X77677499Y-142197680D01*
X77676781Y-142121983D01*
X77675021Y-142051720D01*
X77672216Y-141991250D01*
X77668362Y-141944930D01*
X77663457Y-141917119D01*
X77660500Y-141911427D01*
X77644037Y-141905686D01*
X77606551Y-141896345D01*
X77551775Y-141884215D01*
X77483445Y-141870107D01*
X77405294Y-141854830D01*
X77362716Y-141846823D01*
X77281929Y-141831721D01*
X77209887Y-141818040D01*
X77150111Y-141806467D01*
X77106121Y-141797687D01*
X77081439Y-141792387D01*
X77077377Y-141791212D01*
X77070511Y-141777965D01*
X77055998Y-141746057D01*
X77035771Y-141700047D01*
X77011766Y-141644492D01*
X76985918Y-141583953D01*
X76960160Y-141522986D01*
X76936427Y-141466151D01*
X76916654Y-141418006D01*
X76902776Y-141383110D01*
X76896726Y-141366021D01*
X76896614Y-141365274D01*
X76903472Y-141351793D01*
X76922698Y-141320770D01*
X76952272Y-141275289D01*
X76990173Y-141218432D01*
X77034380Y-141153283D01*
X77060079Y-141115862D01*
X77106907Y-141047247D01*
X77148499Y-140984952D01*
X77182825Y-140932129D01*
X77207857Y-140891927D01*
X77221565Y-140867500D01*
X77223544Y-140862024D01*
X77215034Y-140849278D01*
X77191507Y-140822063D01*
X77155968Y-140783428D01*
X77111423Y-140736423D01*
X77060877Y-140684095D01*
X77007336Y-140629495D01*
X76953805Y-140575670D01*
X76903289Y-140525670D01*
X76858794Y-140482543D01*
X76823325Y-140449339D01*
X76799887Y-140429106D01*
X76792046Y-140424278D01*
X76779280Y-140431067D01*
X76748744Y-140450142D01*
X76703410Y-140479561D01*
X76646244Y-140517381D01*
X76580216Y-140561661D01*
X76530410Y-140595395D01*
X76278764Y-140766512D01*
X76069001Y-140680041D01*
X75859237Y-140593570D01*
X75802389Y-140292018D01*
X75745540Y-139990466D01*
X75117885Y-139990466D01*
X75061036Y-140292018D01*
D11*
X90527143Y-67905334D02*
X90574762Y-67857715D01*
X90622381Y-67714858D01*
X90622381Y-67619620D01*
X90574762Y-67476762D01*
X90479524Y-67381524D01*
X90384286Y-67333905D01*
X90193810Y-67286286D01*
X90050952Y-67286286D01*
X89860476Y-67333905D01*
X89765238Y-67381524D01*
X89670000Y-67476762D01*
X89622381Y-67619620D01*
X89622381Y-67714858D01*
X89670000Y-67857715D01*
X89717619Y-67905334D01*
X90622381Y-68857715D02*
X90622381Y-68286286D01*
X90622381Y-68572000D02*
X89622381Y-68572000D01*
X89765238Y-68476762D01*
X89860476Y-68381524D01*
X89908095Y-68286286D01*
X93575143Y-67905334D02*
X93622762Y-67857715D01*
X93670381Y-67714858D01*
X93670381Y-67619620D01*
X93622762Y-67476762D01*
X93527524Y-67381524D01*
X93432286Y-67333905D01*
X93241810Y-67286286D01*
X93098952Y-67286286D01*
X92908476Y-67333905D01*
X92813238Y-67381524D01*
X92718000Y-67476762D01*
X92670381Y-67619620D01*
X92670381Y-67714858D01*
X92718000Y-67857715D01*
X92765619Y-67905334D01*
X92765619Y-68286286D02*
X92718000Y-68333905D01*
X92670381Y-68429143D01*
X92670381Y-68667239D01*
X92718000Y-68762477D01*
X92765619Y-68810096D01*
X92860857Y-68857715D01*
X92956095Y-68857715D01*
X93098952Y-68810096D01*
X93670381Y-68238667D01*
X93670381Y-68857715D01*
X73001143Y-92797334D02*
X73048762Y-92749715D01*
X73096381Y-92606858D01*
X73096381Y-92511620D01*
X73048762Y-92368762D01*
X72953524Y-92273524D01*
X72858286Y-92225905D01*
X72667810Y-92178286D01*
X72524952Y-92178286D01*
X72334476Y-92225905D01*
X72239238Y-92273524D01*
X72144000Y-92368762D01*
X72096381Y-92511620D01*
X72096381Y-92606858D01*
X72144000Y-92749715D01*
X72191619Y-92797334D01*
X72096381Y-93130667D02*
X72096381Y-93749715D01*
X72477333Y-93416381D01*
X72477333Y-93559239D01*
X72524952Y-93654477D01*
X72572571Y-93702096D01*
X72667810Y-93749715D01*
X72905905Y-93749715D01*
X73001143Y-93702096D01*
X73048762Y-93654477D01*
X73096381Y-93559239D01*
X73096381Y-93273524D01*
X73048762Y-93178286D01*
X73001143Y-93130667D01*
X87034666Y-70715143D02*
X87082285Y-70762762D01*
X87225142Y-70810381D01*
X87320380Y-70810381D01*
X87463238Y-70762762D01*
X87558476Y-70667524D01*
X87606095Y-70572286D01*
X87653714Y-70381810D01*
X87653714Y-70238952D01*
X87606095Y-70048476D01*
X87558476Y-69953238D01*
X87463238Y-69858000D01*
X87320380Y-69810381D01*
X87225142Y-69810381D01*
X87082285Y-69858000D01*
X87034666Y-69905619D01*
X86177523Y-70143714D02*
X86177523Y-70810381D01*
X86415619Y-69762762D02*
X86653714Y-70477048D01*
X86034666Y-70477048D01*
X76620666Y-67508381D02*
X76954000Y-67032190D01*
X77192095Y-67508381D02*
X77192095Y-66508381D01*
X76811142Y-66508381D01*
X76715904Y-66556000D01*
X76668285Y-66603619D01*
X76620666Y-66698857D01*
X76620666Y-66841714D01*
X76668285Y-66936952D01*
X76715904Y-66984571D01*
X76811142Y-67032190D01*
X77192095Y-67032190D01*
X75668285Y-67508381D02*
X76239714Y-67508381D01*
X75954000Y-67508381D02*
X75954000Y-66508381D01*
X76049238Y-66651238D01*
X76144476Y-66746476D01*
X76239714Y-66794095D01*
X76620666Y-69794381D02*
X76954000Y-69318190D01*
X77192095Y-69794381D02*
X77192095Y-68794381D01*
X76811142Y-68794381D01*
X76715904Y-68842000D01*
X76668285Y-68889619D01*
X76620666Y-68984857D01*
X76620666Y-69127714D01*
X76668285Y-69222952D01*
X76715904Y-69270571D01*
X76811142Y-69318190D01*
X77192095Y-69318190D01*
X76239714Y-68889619D02*
X76192095Y-68842000D01*
X76096857Y-68794381D01*
X75858761Y-68794381D01*
X75763523Y-68842000D01*
X75715904Y-68889619D01*
X75668285Y-68984857D01*
X75668285Y-69080095D01*
X75715904Y-69222952D01*
X76287333Y-69794381D01*
X75668285Y-69794381D01*
X76652381Y-92797334D02*
X76176190Y-92464000D01*
X76652381Y-92225905D02*
X75652381Y-92225905D01*
X75652381Y-92606858D01*
X75700000Y-92702096D01*
X75747619Y-92749715D01*
X75842857Y-92797334D01*
X75985714Y-92797334D01*
X76080952Y-92749715D01*
X76128571Y-92702096D01*
X76176190Y-92606858D01*
X76176190Y-92225905D01*
X75652381Y-93130667D02*
X75652381Y-93749715D01*
X76033333Y-93416381D01*
X76033333Y-93559239D01*
X76080952Y-93654477D01*
X76128571Y-93702096D01*
X76223810Y-93749715D01*
X76461905Y-93749715D01*
X76557143Y-93702096D01*
X76604762Y-93654477D01*
X76652381Y-93559239D01*
X76652381Y-93273524D01*
X76604762Y-93178286D01*
X76557143Y-93130667D01*
X73778571Y-75708096D02*
X73826190Y-75850953D01*
X73873810Y-75898572D01*
X73969048Y-75946191D01*
X74111905Y-75946191D01*
X74207143Y-75898572D01*
X74254762Y-75850953D01*
X74302381Y-75755715D01*
X74302381Y-75374762D01*
X73302381Y-75374762D01*
X73302381Y-75708096D01*
X73350000Y-75803334D01*
X73397619Y-75850953D01*
X73492857Y-75898572D01*
X73588095Y-75898572D01*
X73683333Y-75850953D01*
X73730952Y-75803334D01*
X73778571Y-75708096D01*
X73778571Y-75374762D01*
X74302381Y-76850953D02*
X74302381Y-76374762D01*
X73302381Y-76374762D01*
X73302381Y-77612858D02*
X73302381Y-77422381D01*
X73350000Y-77327143D01*
X73397619Y-77279524D01*
X73540476Y-77184286D01*
X73730952Y-77136667D01*
X74111905Y-77136667D01*
X74207143Y-77184286D01*
X74254762Y-77231905D01*
X74302381Y-77327143D01*
X74302381Y-77517620D01*
X74254762Y-77612858D01*
X74207143Y-77660477D01*
X74111905Y-77708096D01*
X73873810Y-77708096D01*
X73778571Y-77660477D01*
X73730952Y-77612858D01*
X73683333Y-77517620D01*
X73683333Y-77327143D01*
X73730952Y-77231905D01*
X73778571Y-77184286D01*
X73873810Y-77136667D01*
X73302381Y-78612858D02*
X73302381Y-78136667D01*
X73778571Y-78089048D01*
X73730952Y-78136667D01*
X73683333Y-78231905D01*
X73683333Y-78470001D01*
X73730952Y-78565239D01*
X73778571Y-78612858D01*
X73873810Y-78660477D01*
X74111905Y-78660477D01*
X74207143Y-78612858D01*
X74254762Y-78565239D01*
X74302381Y-78470001D01*
X74302381Y-78231905D01*
X74254762Y-78136667D01*
X74207143Y-78089048D01*
X73397619Y-79041429D02*
X73350000Y-79089048D01*
X73302381Y-79184286D01*
X73302381Y-79422382D01*
X73350000Y-79517620D01*
X73397619Y-79565239D01*
X73492857Y-79612858D01*
X73588095Y-79612858D01*
X73730952Y-79565239D01*
X74302381Y-78993810D01*
X74302381Y-79612858D01*
X92170191Y-76176190D02*
X92170191Y-76652381D01*
X92503524Y-75652381D02*
X92170191Y-76176190D01*
X91836857Y-75652381D01*
X90979714Y-76652381D02*
X91551143Y-76652381D01*
X91265429Y-76652381D02*
X91265429Y-75652381D01*
X91360667Y-75795238D01*
X91455905Y-75890476D01*
X91551143Y-75938095D01*
X74874381Y-94289714D02*
X73874381Y-94289714D01*
X73874381Y-94527809D01*
X73922000Y-94670667D01*
X74017238Y-94765905D01*
X74112476Y-94813524D01*
X74302952Y-94861143D01*
X74445810Y-94861143D01*
X74636286Y-94813524D01*
X74731524Y-94765905D01*
X74826762Y-94670667D01*
X74874381Y-94527809D01*
X74874381Y-94289714D01*
X73969619Y-95242095D02*
X73922000Y-95289714D01*
X73874381Y-95384952D01*
X73874381Y-95623048D01*
X73922000Y-95718286D01*
X73969619Y-95765905D01*
X74064857Y-95813524D01*
X74160095Y-95813524D01*
X74302952Y-95765905D01*
X74874381Y-95194476D01*
X74874381Y-95813524D01*
X74874381Y-96765905D02*
X74874381Y-96194476D01*
X74874381Y-96480190D02*
X73874381Y-96480190D01*
X74017238Y-96384952D01*
X74112476Y-96289714D01*
X74160095Y-96194476D01*
X150566381Y-132770714D02*
X149566381Y-132770714D01*
X149566381Y-133008809D01*
X149614000Y-133151667D01*
X149709238Y-133246905D01*
X149804476Y-133294524D01*
X149994952Y-133342143D01*
X150137810Y-133342143D01*
X150328286Y-133294524D01*
X150423524Y-133246905D01*
X150518762Y-133151667D01*
X150566381Y-133008809D01*
X150566381Y-132770714D01*
X149661619Y-133723095D02*
X149614000Y-133770714D01*
X149566381Y-133865952D01*
X149566381Y-134104048D01*
X149614000Y-134199286D01*
X149661619Y-134246905D01*
X149756857Y-134294524D01*
X149852095Y-134294524D01*
X149994952Y-134246905D01*
X150566381Y-133675476D01*
X150566381Y-134294524D01*
X149566381Y-134913571D02*
X149566381Y-135008810D01*
X149614000Y-135104048D01*
X149661619Y-135151667D01*
X149756857Y-135199286D01*
X149947333Y-135246905D01*
X150185429Y-135246905D01*
X150375905Y-135199286D01*
X150471143Y-135151667D01*
X150518762Y-135104048D01*
X150566381Y-135008810D01*
X150566381Y-134913571D01*
X150518762Y-134818333D01*
X150471143Y-134770714D01*
X150375905Y-134723095D01*
X150185429Y-134675476D01*
X149947333Y-134675476D01*
X149756857Y-134723095D01*
X149661619Y-134770714D01*
X149614000Y-134818333D01*
X149566381Y-134913571D01*
X150566381Y-113720714D02*
X149566381Y-113720714D01*
X149566381Y-113958809D01*
X149614000Y-114101667D01*
X149709238Y-114196905D01*
X149804476Y-114244524D01*
X149994952Y-114292143D01*
X150137810Y-114292143D01*
X150328286Y-114244524D01*
X150423524Y-114196905D01*
X150518762Y-114101667D01*
X150566381Y-113958809D01*
X150566381Y-113720714D01*
X150566381Y-115244524D02*
X150566381Y-114673095D01*
X150566381Y-114958809D02*
X149566381Y-114958809D01*
X149709238Y-114863571D01*
X149804476Y-114768333D01*
X149852095Y-114673095D01*
X150566381Y-115720714D02*
X150566381Y-115911190D01*
X150518762Y-116006429D01*
X150471143Y-116054048D01*
X150328286Y-116149286D01*
X150137810Y-116196905D01*
X149756857Y-116196905D01*
X149661619Y-116149286D01*
X149614000Y-116101667D01*
X149566381Y-116006429D01*
X149566381Y-115815952D01*
X149614000Y-115720714D01*
X149661619Y-115673095D01*
X149756857Y-115625476D01*
X149994952Y-115625476D01*
X150090190Y-115673095D01*
X150137810Y-115720714D01*
X150185429Y-115815952D01*
X150185429Y-116006429D01*
X150137810Y-116101667D01*
X150090190Y-116149286D01*
X149994952Y-116196905D01*
X150566381Y-94670714D02*
X149566381Y-94670714D01*
X149566381Y-94908809D01*
X149614000Y-95051667D01*
X149709238Y-95146905D01*
X149804476Y-95194524D01*
X149994952Y-95242143D01*
X150137810Y-95242143D01*
X150328286Y-95194524D01*
X150423524Y-95146905D01*
X150518762Y-95051667D01*
X150566381Y-94908809D01*
X150566381Y-94670714D01*
X150566381Y-96194524D02*
X150566381Y-95623095D01*
X150566381Y-95908809D02*
X149566381Y-95908809D01*
X149709238Y-95813571D01*
X149804476Y-95718333D01*
X149852095Y-95623095D01*
X149994952Y-96765952D02*
X149947333Y-96670714D01*
X149899714Y-96623095D01*
X149804476Y-96575476D01*
X149756857Y-96575476D01*
X149661619Y-96623095D01*
X149614000Y-96670714D01*
X149566381Y-96765952D01*
X149566381Y-96956429D01*
X149614000Y-97051667D01*
X149661619Y-97099286D01*
X149756857Y-97146905D01*
X149804476Y-97146905D01*
X149899714Y-97099286D01*
X149947333Y-97051667D01*
X149994952Y-96956429D01*
X149994952Y-96765952D01*
X150042571Y-96670714D01*
X150090190Y-96623095D01*
X150185429Y-96575476D01*
X150375905Y-96575476D01*
X150471143Y-96623095D01*
X150518762Y-96670714D01*
X150566381Y-96765952D01*
X150566381Y-96956429D01*
X150518762Y-97051667D01*
X150471143Y-97099286D01*
X150375905Y-97146905D01*
X150185429Y-97146905D01*
X150090190Y-97099286D01*
X150042571Y-97051667D01*
X149994952Y-96956429D01*
X150566381Y-75620714D02*
X149566381Y-75620714D01*
X149566381Y-75858809D01*
X149614000Y-76001667D01*
X149709238Y-76096905D01*
X149804476Y-76144524D01*
X149994952Y-76192143D01*
X150137810Y-76192143D01*
X150328286Y-76144524D01*
X150423524Y-76096905D01*
X150518762Y-76001667D01*
X150566381Y-75858809D01*
X150566381Y-75620714D01*
X150566381Y-77144524D02*
X150566381Y-76573095D01*
X150566381Y-76858809D02*
X149566381Y-76858809D01*
X149709238Y-76763571D01*
X149804476Y-76668333D01*
X149852095Y-76573095D01*
X149566381Y-77477857D02*
X149566381Y-78144524D01*
X150566381Y-77715952D01*
X150566381Y-56570714D02*
X149566381Y-56570714D01*
X149566381Y-56808809D01*
X149614000Y-56951667D01*
X149709238Y-57046905D01*
X149804476Y-57094524D01*
X149994952Y-57142143D01*
X150137810Y-57142143D01*
X150328286Y-57094524D01*
X150423524Y-57046905D01*
X150518762Y-56951667D01*
X150566381Y-56808809D01*
X150566381Y-56570714D01*
X150566381Y-58094524D02*
X150566381Y-57523095D01*
X150566381Y-57808809D02*
X149566381Y-57808809D01*
X149709238Y-57713571D01*
X149804476Y-57618333D01*
X149852095Y-57523095D01*
X149566381Y-58951667D02*
X149566381Y-58761190D01*
X149614000Y-58665952D01*
X149661619Y-58618333D01*
X149804476Y-58523095D01*
X149994952Y-58475476D01*
X150375905Y-58475476D01*
X150471143Y-58523095D01*
X150518762Y-58570714D01*
X150566381Y-58665952D01*
X150566381Y-58856429D01*
X150518762Y-58951667D01*
X150471143Y-58999286D01*
X150375905Y-59046905D01*
X150137810Y-59046905D01*
X150042571Y-58999286D01*
X149994952Y-58951667D01*
X149947333Y-58856429D01*
X149947333Y-58665952D01*
X149994952Y-58570714D01*
X150042571Y-58523095D01*
X150137810Y-58475476D01*
X131516381Y-132770714D02*
X130516381Y-132770714D01*
X130516381Y-133008809D01*
X130564000Y-133151667D01*
X130659238Y-133246905D01*
X130754476Y-133294524D01*
X130944952Y-133342143D01*
X131087810Y-133342143D01*
X131278286Y-133294524D01*
X131373524Y-133246905D01*
X131468762Y-133151667D01*
X131516381Y-133008809D01*
X131516381Y-132770714D01*
X131516381Y-134294524D02*
X131516381Y-133723095D01*
X131516381Y-134008809D02*
X130516381Y-134008809D01*
X130659238Y-133913571D01*
X130754476Y-133818333D01*
X130802095Y-133723095D01*
X130516381Y-135199286D02*
X130516381Y-134723095D01*
X130992571Y-134675476D01*
X130944952Y-134723095D01*
X130897333Y-134818333D01*
X130897333Y-135056429D01*
X130944952Y-135151667D01*
X130992571Y-135199286D01*
X131087810Y-135246905D01*
X131325905Y-135246905D01*
X131421143Y-135199286D01*
X131468762Y-135151667D01*
X131516381Y-135056429D01*
X131516381Y-134818333D01*
X131468762Y-134723095D01*
X131421143Y-134675476D01*
X131516381Y-113720714D02*
X130516381Y-113720714D01*
X130516381Y-113958809D01*
X130564000Y-114101667D01*
X130659238Y-114196905D01*
X130754476Y-114244524D01*
X130944952Y-114292143D01*
X131087810Y-114292143D01*
X131278286Y-114244524D01*
X131373524Y-114196905D01*
X131468762Y-114101667D01*
X131516381Y-113958809D01*
X131516381Y-113720714D01*
X131516381Y-115244524D02*
X131516381Y-114673095D01*
X131516381Y-114958809D02*
X130516381Y-114958809D01*
X130659238Y-114863571D01*
X130754476Y-114768333D01*
X130802095Y-114673095D01*
X130849714Y-116101667D02*
X131516381Y-116101667D01*
X130468762Y-115863571D02*
X131183048Y-115625476D01*
X131183048Y-116244524D01*
X131516381Y-94670714D02*
X130516381Y-94670714D01*
X130516381Y-94908809D01*
X130564000Y-95051667D01*
X130659238Y-95146905D01*
X130754476Y-95194524D01*
X130944952Y-95242143D01*
X131087810Y-95242143D01*
X131278286Y-95194524D01*
X131373524Y-95146905D01*
X131468762Y-95051667D01*
X131516381Y-94908809D01*
X131516381Y-94670714D01*
X131516381Y-96194524D02*
X131516381Y-95623095D01*
X131516381Y-95908809D02*
X130516381Y-95908809D01*
X130659238Y-95813571D01*
X130754476Y-95718333D01*
X130802095Y-95623095D01*
X130516381Y-96527857D02*
X130516381Y-97146905D01*
X130897333Y-96813571D01*
X130897333Y-96956429D01*
X130944952Y-97051667D01*
X130992571Y-97099286D01*
X131087810Y-97146905D01*
X131325905Y-97146905D01*
X131421143Y-97099286D01*
X131468762Y-97051667D01*
X131516381Y-96956429D01*
X131516381Y-96670714D01*
X131468762Y-96575476D01*
X131421143Y-96527857D01*
X131516381Y-75620714D02*
X130516381Y-75620714D01*
X130516381Y-75858809D01*
X130564000Y-76001667D01*
X130659238Y-76096905D01*
X130754476Y-76144524D01*
X130944952Y-76192143D01*
X131087810Y-76192143D01*
X131278286Y-76144524D01*
X131373524Y-76096905D01*
X131468762Y-76001667D01*
X131516381Y-75858809D01*
X131516381Y-75620714D01*
X131516381Y-77144524D02*
X131516381Y-76573095D01*
X131516381Y-76858809D02*
X130516381Y-76858809D01*
X130659238Y-76763571D01*
X130754476Y-76668333D01*
X130802095Y-76573095D01*
X130611619Y-77525476D02*
X130564000Y-77573095D01*
X130516381Y-77668333D01*
X130516381Y-77906429D01*
X130564000Y-78001667D01*
X130611619Y-78049286D01*
X130706857Y-78096905D01*
X130802095Y-78096905D01*
X130944952Y-78049286D01*
X131516381Y-77477857D01*
X131516381Y-78096905D01*
X131516381Y-56570714D02*
X130516381Y-56570714D01*
X130516381Y-56808809D01*
X130564000Y-56951667D01*
X130659238Y-57046905D01*
X130754476Y-57094524D01*
X130944952Y-57142143D01*
X131087810Y-57142143D01*
X131278286Y-57094524D01*
X131373524Y-57046905D01*
X131468762Y-56951667D01*
X131516381Y-56808809D01*
X131516381Y-56570714D01*
X131516381Y-58094524D02*
X131516381Y-57523095D01*
X131516381Y-57808809D02*
X130516381Y-57808809D01*
X130659238Y-57713571D01*
X130754476Y-57618333D01*
X130802095Y-57523095D01*
X131516381Y-59046905D02*
X131516381Y-58475476D01*
X131516381Y-58761190D02*
X130516381Y-58761190D01*
X130659238Y-58665952D01*
X130754476Y-58570714D01*
X130802095Y-58475476D01*
X112466381Y-132770714D02*
X111466381Y-132770714D01*
X111466381Y-133008809D01*
X111514000Y-133151667D01*
X111609238Y-133246905D01*
X111704476Y-133294524D01*
X111894952Y-133342143D01*
X112037810Y-133342143D01*
X112228286Y-133294524D01*
X112323524Y-133246905D01*
X112418762Y-133151667D01*
X112466381Y-133008809D01*
X112466381Y-132770714D01*
X112466381Y-134294524D02*
X112466381Y-133723095D01*
X112466381Y-134008809D02*
X111466381Y-134008809D01*
X111609238Y-133913571D01*
X111704476Y-133818333D01*
X111752095Y-133723095D01*
X111466381Y-134913571D02*
X111466381Y-135008810D01*
X111514000Y-135104048D01*
X111561619Y-135151667D01*
X111656857Y-135199286D01*
X111847333Y-135246905D01*
X112085429Y-135246905D01*
X112275905Y-135199286D01*
X112371143Y-135151667D01*
X112418762Y-135104048D01*
X112466381Y-135008810D01*
X112466381Y-134913571D01*
X112418762Y-134818333D01*
X112371143Y-134770714D01*
X112275905Y-134723095D01*
X112085429Y-134675476D01*
X111847333Y-134675476D01*
X111656857Y-134723095D01*
X111561619Y-134770714D01*
X111514000Y-134818333D01*
X111466381Y-134913571D01*
X112466381Y-114196905D02*
X111466381Y-114196905D01*
X111466381Y-114435000D01*
X111514000Y-114577858D01*
X111609238Y-114673096D01*
X111704476Y-114720715D01*
X111894952Y-114768334D01*
X112037810Y-114768334D01*
X112228286Y-114720715D01*
X112323524Y-114673096D01*
X112418762Y-114577858D01*
X112466381Y-114435000D01*
X112466381Y-114196905D01*
X112466381Y-115244524D02*
X112466381Y-115435000D01*
X112418762Y-115530239D01*
X112371143Y-115577858D01*
X112228286Y-115673096D01*
X112037810Y-115720715D01*
X111656857Y-115720715D01*
X111561619Y-115673096D01*
X111514000Y-115625477D01*
X111466381Y-115530239D01*
X111466381Y-115339762D01*
X111514000Y-115244524D01*
X111561619Y-115196905D01*
X111656857Y-115149286D01*
X111894952Y-115149286D01*
X111990190Y-115196905D01*
X112037810Y-115244524D01*
X112085429Y-115339762D01*
X112085429Y-115530239D01*
X112037810Y-115625477D01*
X111990190Y-115673096D01*
X111894952Y-115720715D01*
X112466381Y-95146905D02*
X111466381Y-95146905D01*
X111466381Y-95385000D01*
X111514000Y-95527858D01*
X111609238Y-95623096D01*
X111704476Y-95670715D01*
X111894952Y-95718334D01*
X112037810Y-95718334D01*
X112228286Y-95670715D01*
X112323524Y-95623096D01*
X112418762Y-95527858D01*
X112466381Y-95385000D01*
X112466381Y-95146905D01*
X111894952Y-96289762D02*
X111847333Y-96194524D01*
X111799714Y-96146905D01*
X111704476Y-96099286D01*
X111656857Y-96099286D01*
X111561619Y-96146905D01*
X111514000Y-96194524D01*
X111466381Y-96289762D01*
X111466381Y-96480239D01*
X111514000Y-96575477D01*
X111561619Y-96623096D01*
X111656857Y-96670715D01*
X111704476Y-96670715D01*
X111799714Y-96623096D01*
X111847333Y-96575477D01*
X111894952Y-96480239D01*
X111894952Y-96289762D01*
X111942571Y-96194524D01*
X111990190Y-96146905D01*
X112085429Y-96099286D01*
X112275905Y-96099286D01*
X112371143Y-96146905D01*
X112418762Y-96194524D01*
X112466381Y-96289762D01*
X112466381Y-96480239D01*
X112418762Y-96575477D01*
X112371143Y-96623096D01*
X112275905Y-96670715D01*
X112085429Y-96670715D01*
X111990190Y-96623096D01*
X111942571Y-96575477D01*
X111894952Y-96480239D01*
X112466381Y-76096905D02*
X111466381Y-76096905D01*
X111466381Y-76335000D01*
X111514000Y-76477858D01*
X111609238Y-76573096D01*
X111704476Y-76620715D01*
X111894952Y-76668334D01*
X112037810Y-76668334D01*
X112228286Y-76620715D01*
X112323524Y-76573096D01*
X112418762Y-76477858D01*
X112466381Y-76335000D01*
X112466381Y-76096905D01*
X111466381Y-77001667D02*
X111466381Y-77668334D01*
X112466381Y-77239762D01*
X112466381Y-57046905D02*
X111466381Y-57046905D01*
X111466381Y-57285000D01*
X111514000Y-57427858D01*
X111609238Y-57523096D01*
X111704476Y-57570715D01*
X111894952Y-57618334D01*
X112037810Y-57618334D01*
X112228286Y-57570715D01*
X112323524Y-57523096D01*
X112418762Y-57427858D01*
X112466381Y-57285000D01*
X112466381Y-57046905D01*
X111466381Y-58475477D02*
X111466381Y-58285000D01*
X111514000Y-58189762D01*
X111561619Y-58142143D01*
X111704476Y-58046905D01*
X111894952Y-57999286D01*
X112275905Y-57999286D01*
X112371143Y-58046905D01*
X112418762Y-58094524D01*
X112466381Y-58189762D01*
X112466381Y-58380239D01*
X112418762Y-58475477D01*
X112371143Y-58523096D01*
X112275905Y-58570715D01*
X112037810Y-58570715D01*
X111942571Y-58523096D01*
X111894952Y-58475477D01*
X111847333Y-58380239D01*
X111847333Y-58189762D01*
X111894952Y-58094524D01*
X111942571Y-58046905D01*
X112037810Y-57999286D01*
X93416381Y-133246905D02*
X92416381Y-133246905D01*
X92416381Y-133485000D01*
X92464000Y-133627858D01*
X92559238Y-133723096D01*
X92654476Y-133770715D01*
X92844952Y-133818334D01*
X92987810Y-133818334D01*
X93178286Y-133770715D01*
X93273524Y-133723096D01*
X93368762Y-133627858D01*
X93416381Y-133485000D01*
X93416381Y-133246905D01*
X92416381Y-134723096D02*
X92416381Y-134246905D01*
X92892571Y-134199286D01*
X92844952Y-134246905D01*
X92797333Y-134342143D01*
X92797333Y-134580239D01*
X92844952Y-134675477D01*
X92892571Y-134723096D01*
X92987810Y-134770715D01*
X93225905Y-134770715D01*
X93321143Y-134723096D01*
X93368762Y-134675477D01*
X93416381Y-134580239D01*
X93416381Y-134342143D01*
X93368762Y-134246905D01*
X93321143Y-134199286D01*
X93416381Y-114196905D02*
X92416381Y-114196905D01*
X92416381Y-114435000D01*
X92464000Y-114577858D01*
X92559238Y-114673096D01*
X92654476Y-114720715D01*
X92844952Y-114768334D01*
X92987810Y-114768334D01*
X93178286Y-114720715D01*
X93273524Y-114673096D01*
X93368762Y-114577858D01*
X93416381Y-114435000D01*
X93416381Y-114196905D01*
X92749714Y-115625477D02*
X93416381Y-115625477D01*
X92368762Y-115387381D02*
X93083048Y-115149286D01*
X93083048Y-115768334D01*
X93416381Y-95146905D02*
X92416381Y-95146905D01*
X92416381Y-95385000D01*
X92464000Y-95527858D01*
X92559238Y-95623096D01*
X92654476Y-95670715D01*
X92844952Y-95718334D01*
X92987810Y-95718334D01*
X93178286Y-95670715D01*
X93273524Y-95623096D01*
X93368762Y-95527858D01*
X93416381Y-95385000D01*
X93416381Y-95146905D01*
X92416381Y-96051667D02*
X92416381Y-96670715D01*
X92797333Y-96337381D01*
X92797333Y-96480239D01*
X92844952Y-96575477D01*
X92892571Y-96623096D01*
X92987810Y-96670715D01*
X93225905Y-96670715D01*
X93321143Y-96623096D01*
X93368762Y-96575477D01*
X93416381Y-96480239D01*
X93416381Y-96194524D01*
X93368762Y-96099286D01*
X93321143Y-96051667D01*
X97226381Y-76096905D02*
X96226381Y-76096905D01*
X96226381Y-76335000D01*
X96274000Y-76477858D01*
X96369238Y-76573096D01*
X96464476Y-76620715D01*
X96654952Y-76668334D01*
X96797810Y-76668334D01*
X96988286Y-76620715D01*
X97083524Y-76573096D01*
X97178762Y-76477858D01*
X97226381Y-76335000D01*
X97226381Y-76096905D01*
X96321619Y-77049286D02*
X96274000Y-77096905D01*
X96226381Y-77192143D01*
X96226381Y-77430239D01*
X96274000Y-77525477D01*
X96321619Y-77573096D01*
X96416857Y-77620715D01*
X96512095Y-77620715D01*
X96654952Y-77573096D01*
X97226381Y-77001667D01*
X97226381Y-77620715D01*
X93416381Y-57046905D02*
X92416381Y-57046905D01*
X92416381Y-57285000D01*
X92464000Y-57427858D01*
X92559238Y-57523096D01*
X92654476Y-57570715D01*
X92844952Y-57618334D01*
X92987810Y-57618334D01*
X93178286Y-57570715D01*
X93273524Y-57523096D01*
X93368762Y-57427858D01*
X93416381Y-57285000D01*
X93416381Y-57046905D01*
X93416381Y-58570715D02*
X93416381Y-57999286D01*
X93416381Y-58285000D02*
X92416381Y-58285000D01*
X92559238Y-58189762D01*
X92654476Y-58094524D01*
X92702095Y-57999286D01*
%LPC*%
D14*
X82550000Y-54212000D03*
X82550000Y-61812000D03*
X82550000Y-99712000D03*
X82550000Y-92112000D03*
X82550000Y-103488000D03*
X82550000Y-111088000D03*
X82550000Y-148988000D03*
X82550000Y-141388000D03*
D15*
X104140000Y-82550000D03*
D16*
X101600000Y-77470000D03*
D17*
X99060000Y-82550000D03*
D16*
X95250000Y-80010000D03*
D15*
X93980000Y-82550000D03*
X104140000Y-63500000D03*
D16*
X101600000Y-58420000D03*
D17*
X99060000Y-63500000D03*
D16*
X95250000Y-60960000D03*
D15*
X93980000Y-63500000D03*
D18*
X119380000Y-148590000D03*
X119380000Y-54610000D03*
X72390000Y-101600000D03*
X166370000Y-101600000D03*
X166370000Y-54610000D03*
D19*
X90170000Y-71766000D03*
X90170000Y-69966000D03*
X93218000Y-71766000D03*
X93218000Y-69966000D03*
X72644000Y-89270000D03*
X72644000Y-91070000D03*
D20*
X85968000Y-71882000D03*
X87768000Y-71882000D03*
D21*
X72390000Y-110490000D03*
X72390000Y-107950000D03*
X72390000Y-115570000D03*
X72390000Y-125730000D03*
X72390000Y-128270000D03*
X72390000Y-120650000D03*
X72390000Y-118110000D03*
X72390000Y-123190000D03*
D20*
X78348000Y-67056000D03*
X80148000Y-67056000D03*
X78348000Y-69342000D03*
X80148000Y-69342000D03*
D19*
X76200000Y-91070000D03*
X76200000Y-89270000D03*
D22*
X83800000Y-81220000D03*
X83800000Y-80470000D03*
X83800000Y-79720000D03*
X83800000Y-78970000D03*
X83800000Y-78220000D03*
X83800000Y-77470000D03*
X83800000Y-76720000D03*
X83800000Y-75970000D03*
X83800000Y-75220000D03*
X83800000Y-74470000D03*
X83800000Y-73720000D03*
D23*
X83300000Y-72520000D03*
X82550000Y-72520000D03*
X81800000Y-72520000D03*
X81050000Y-72520000D03*
X80300000Y-72520000D03*
X79550000Y-72520000D03*
X78800000Y-72520000D03*
X78050000Y-72520000D03*
X77300000Y-72520000D03*
X76550000Y-72520000D03*
X75800000Y-72520000D03*
X75050000Y-72520000D03*
X83300000Y-82420000D03*
X82550000Y-82420000D03*
X81800000Y-82420000D03*
X81050000Y-82420000D03*
X80300000Y-82420000D03*
X79550000Y-82420000D03*
X78800000Y-82420000D03*
X78050000Y-82420000D03*
X77300000Y-82420000D03*
X76550000Y-82420000D03*
X75800000Y-82420000D03*
X75050000Y-82420000D03*
X74300000Y-82420000D03*
X73550000Y-82420000D03*
X72050000Y-82420000D03*
X72800000Y-82420000D03*
D24*
X90219000Y-74168000D03*
X93169000Y-74168000D03*
D18*
X166370000Y-148590000D03*
X72390000Y-54610000D03*
X72390000Y-148590000D03*
D25*
X74422000Y-92961000D03*
X74422000Y-89411000D03*
X148590000Y-132210000D03*
X148590000Y-135760000D03*
X148590000Y-113160000D03*
X148590000Y-116710000D03*
X148590000Y-94110000D03*
X148590000Y-97660000D03*
X148590000Y-75060000D03*
X148590000Y-78610000D03*
X148590000Y-56010000D03*
X148590000Y-59560000D03*
X129540000Y-132210000D03*
X129540000Y-135760000D03*
X129540000Y-113160000D03*
X129540000Y-116710000D03*
X129540000Y-94110000D03*
X129540000Y-97660000D03*
X129540000Y-75060000D03*
X129540000Y-78610000D03*
X129540000Y-56010000D03*
X129540000Y-59560000D03*
X110490000Y-132210000D03*
X110490000Y-135760000D03*
X110490000Y-113160000D03*
X110490000Y-116710000D03*
X110490000Y-94110000D03*
X110490000Y-97660000D03*
X110490000Y-75060000D03*
X110490000Y-78610000D03*
X110490000Y-56010000D03*
X110490000Y-59560000D03*
X91440000Y-132210000D03*
X91440000Y-135760000D03*
X91440000Y-113160000D03*
X91440000Y-116710000D03*
X91440000Y-94110000D03*
X91440000Y-97660000D03*
X98298000Y-75060000D03*
X98298000Y-78610000D03*
X91440000Y-56010000D03*
X91440000Y-59560000D03*
D15*
X161290000Y-139700000D03*
D16*
X158750000Y-134620000D03*
D17*
X156210000Y-139700000D03*
D16*
X152400000Y-137160000D03*
D15*
X151130000Y-139700000D03*
X161290000Y-120650000D03*
D16*
X158750000Y-115570000D03*
D17*
X156210000Y-120650000D03*
D16*
X152400000Y-118110000D03*
D15*
X151130000Y-120650000D03*
X161290000Y-101600000D03*
D16*
X158750000Y-96520000D03*
D17*
X156210000Y-101600000D03*
D16*
X152400000Y-99060000D03*
D15*
X151130000Y-101600000D03*
X161290000Y-82550000D03*
D16*
X158750000Y-77470000D03*
D17*
X156210000Y-82550000D03*
D16*
X152400000Y-80010000D03*
D15*
X151130000Y-82550000D03*
X161290000Y-63500000D03*
D16*
X158750000Y-58420000D03*
D17*
X156210000Y-63500000D03*
D16*
X152400000Y-60960000D03*
D15*
X151130000Y-63500000D03*
X142240000Y-139700000D03*
D16*
X139700000Y-134620000D03*
D17*
X137160000Y-139700000D03*
D16*
X133350000Y-137160000D03*
D15*
X132080000Y-139700000D03*
X142240000Y-120650000D03*
D16*
X139700000Y-115570000D03*
D17*
X137160000Y-120650000D03*
D16*
X133350000Y-118110000D03*
D15*
X132080000Y-120650000D03*
X142240000Y-101600000D03*
D16*
X139700000Y-96520000D03*
D17*
X137160000Y-101600000D03*
D16*
X133350000Y-99060000D03*
D15*
X132080000Y-101600000D03*
X142240000Y-82550000D03*
D16*
X139700000Y-77470000D03*
D17*
X137160000Y-82550000D03*
D16*
X133350000Y-80010000D03*
D15*
X132080000Y-82550000D03*
X142240000Y-63500000D03*
D16*
X139700000Y-58420000D03*
D17*
X137160000Y-63500000D03*
D16*
X133350000Y-60960000D03*
D15*
X132080000Y-63500000D03*
X123190000Y-139700000D03*
D16*
X120650000Y-134620000D03*
D17*
X118110000Y-139700000D03*
D16*
X114300000Y-137160000D03*
D15*
X113030000Y-139700000D03*
X123190000Y-120650000D03*
D16*
X120650000Y-115570000D03*
D17*
X118110000Y-120650000D03*
D16*
X114300000Y-118110000D03*
D15*
X113030000Y-120650000D03*
X123190000Y-101600000D03*
D16*
X120650000Y-96520000D03*
D17*
X118110000Y-101600000D03*
D16*
X114300000Y-99060000D03*
D15*
X113030000Y-101600000D03*
X123190000Y-82550000D03*
D16*
X120650000Y-77470000D03*
D17*
X118110000Y-82550000D03*
D16*
X114300000Y-80010000D03*
D15*
X113030000Y-82550000D03*
X104140000Y-139700000D03*
D16*
X101600000Y-134620000D03*
D17*
X99060000Y-139700000D03*
D16*
X95250000Y-137160000D03*
D15*
X93980000Y-139700000D03*
X104140000Y-120650000D03*
D16*
X101600000Y-115570000D03*
D17*
X99060000Y-120650000D03*
D16*
X95250000Y-118110000D03*
D15*
X93980000Y-120650000D03*
X104140000Y-101600000D03*
D16*
X101600000Y-96520000D03*
D17*
X99060000Y-101600000D03*
D16*
X95250000Y-99060000D03*
D15*
X93980000Y-101600000D03*
X123190000Y-63500000D03*
D16*
X120650000Y-58420000D03*
D17*
X118110000Y-63500000D03*
D16*
X114300000Y-60960000D03*
D15*
X113030000Y-63500000D03*
M02*
