M48
;DRILL file {KiCad 4.0.7} date 01/05/18 23:40:45
;FORMAT={3:3/ absolute / metric / suppress trailing zeros}
FMAT,2
METRIC,LZ
T1C1.710
T2C2.200
T3C4.000
%
G90
G05
M71
T1
X09398Y-0635
X09398Y-08255
X09398Y-1016
X09398Y-12065
X09398Y-1397
X10414Y-0635
X10414Y-08255
X10414Y-1016
X10414Y-12065
X10414Y-1397
X11303Y-0635
X11303Y-08255
X11303Y-1016
X11303Y-12065
X11303Y-1397
X12319Y-0635
X12319Y-08255
X12319Y-1016
X12319Y-12065
X12319Y-1397
X13208Y-0635
X13208Y-08255
X13208Y-1016
X13208Y-12065
X13208Y-1397
X14224Y-0635
X14224Y-08255
X14224Y-1016
X14224Y-12065
X14224Y-1397
X15113Y-0635
X15113Y-08255
X15113Y-1016
X15113Y-12065
X15113Y-1397
X16129Y-0635
X16129Y-08255
X16129Y-1016
X16129Y-12065
X16129Y-1397
T2
X07239Y-05461
X07239Y-1016
X07239Y-14859
X11938Y-05461
X11938Y-14859
X16637Y-05461
X16637Y-1016
X16637Y-14859
T3
X09906Y-0635
X09906Y-08255
X09906Y-1016
X09906Y-12065
X09906Y-1397
X11811Y-0635
X11811Y-08255
X11811Y-1016
X11811Y-12065
X11811Y-1397
X13716Y-0635
X13716Y-08255
X13716Y-1016
X13716Y-12065
X13716Y-1397
X15621Y-0635
X15621Y-08255
X15621Y-1016
X15621Y-12065
X15621Y-1397
T0
M30
