G04 #@! TF.FileFunction,Copper,L1,Top,Signal*
%FSLAX46Y46*%
G04 Gerber Fmt 4.6, Leading zero omitted, Abs format (unit mm)*
G04 Created by KiCad (PCBNEW 4.0.7) date 01/05/18 23:40:39*
%MOMM*%
%LPD*%
G01*
G04 APERTURE LIST*
%ADD10C,0.100000*%
%ADD11C,0.800000*%
%ADD12C,3.500000*%
%ADD13C,2.500000*%
%ADD14R,0.800000X1.000000*%
%ADD15C,1.400000*%
%ADD16C,1.000000*%
%ADD17C,0.400000*%
%ADD18C,2.000000*%
%ADD19C,0.250000*%
%ADD20C,0.254000*%
G04 APERTURE END LIST*
D10*
D11*
X96520000Y-84201000D03*
D12*
X82550000Y-54212000D03*
X82550000Y-61812000D03*
X82550000Y-99712000D03*
X82550000Y-92112000D03*
X82550000Y-103488000D03*
X82550000Y-111088000D03*
X82550000Y-148988000D03*
X82550000Y-141388000D03*
D11*
X77152500Y-94107000D03*
X77152500Y-104457500D03*
X77152500Y-115189000D03*
X127762000Y-85979000D03*
X109220000Y-85217000D03*
D13*
X101600000Y-77470000D03*
X95250000Y-80010000D03*
D11*
X94742000Y-77851000D03*
X89027000Y-78613000D03*
X156210000Y-144780000D03*
X137160000Y-144780000D03*
X118110000Y-144780000D03*
X99060000Y-144780000D03*
X99060000Y-125730000D03*
X118110000Y-125730000D03*
X137160000Y-125730000D03*
X156210000Y-125730000D03*
X156210000Y-106680000D03*
X137160000Y-106680000D03*
X118110000Y-106680000D03*
X99060000Y-106680000D03*
X156210000Y-87630000D03*
X156210000Y-68580000D03*
X137160000Y-68580000D03*
X118110000Y-68580000D03*
X99060000Y-68580000D03*
D13*
X101600000Y-58420000D03*
X95250000Y-60960000D03*
D11*
X84582000Y-72390000D03*
X75438000Y-68072000D03*
X73914000Y-108966000D03*
X73914000Y-121920000D03*
X75184000Y-119380000D03*
X75184000Y-117094000D03*
X75184000Y-114300000D03*
X83312000Y-84328000D03*
X84836000Y-82550000D03*
X87630000Y-73914000D03*
X84836000Y-69342000D03*
X83820000Y-64770000D03*
X78740000Y-76708000D03*
X78486000Y-79502000D03*
X81280000Y-76708000D03*
X81280000Y-74168000D03*
X78486000Y-74168000D03*
X75438000Y-77470000D03*
X75438000Y-80264000D03*
X75438000Y-74422000D03*
X75438000Y-70866000D03*
X149860000Y-81153000D03*
X150368000Y-78740000D03*
X110744000Y-57658000D03*
X74168000Y-104648000D03*
X70866000Y-104648000D03*
X73406000Y-96266000D03*
X70866000Y-99060000D03*
X73914000Y-106680000D03*
X73914000Y-111760000D03*
X74168000Y-99060000D03*
X71374000Y-94488000D03*
X71120000Y-89408000D03*
X71882000Y-84074000D03*
D14*
X71120000Y-85968000D03*
X71120000Y-87768000D03*
X71120000Y-91048000D03*
X71120000Y-92848000D03*
D15*
X72390000Y-110490000D03*
X72390000Y-107950000D03*
X72390000Y-115570000D03*
X72390000Y-125730000D03*
X72390000Y-128270000D03*
X72390000Y-120650000D03*
X72390000Y-118110000D03*
X72390000Y-123190000D03*
D13*
X158750000Y-134620000D03*
X152400000Y-137160000D03*
X158750000Y-115570000D03*
X152400000Y-118110000D03*
X158750000Y-96520000D03*
X152400000Y-99060000D03*
X158750000Y-77470000D03*
X152400000Y-80010000D03*
X158750000Y-58420000D03*
X152400000Y-60960000D03*
X139700000Y-134620000D03*
X133350000Y-137160000D03*
X139700000Y-115570000D03*
X133350000Y-118110000D03*
X139700000Y-96520000D03*
X133350000Y-99060000D03*
X139700000Y-77470000D03*
X133350000Y-80010000D03*
X139700000Y-58420000D03*
X133350000Y-60960000D03*
X120650000Y-134620000D03*
X114300000Y-137160000D03*
X120650000Y-115570000D03*
X114300000Y-118110000D03*
X120650000Y-96520000D03*
X114300000Y-99060000D03*
X120650000Y-77470000D03*
X114300000Y-80010000D03*
X101600000Y-134620000D03*
X95250000Y-137160000D03*
X101600000Y-115570000D03*
X95250000Y-118110000D03*
X101600000Y-96520000D03*
X95250000Y-99060000D03*
X120650000Y-58420000D03*
X114300000Y-60960000D03*
D11*
X70866000Y-82296000D03*
D16*
X86106000Y-70358000D03*
X76200000Y-92964000D03*
D11*
X76454000Y-69342000D03*
X77470000Y-70866000D03*
X75184000Y-86360000D03*
X74168000Y-85852000D03*
X82296000Y-81026000D03*
X82296000Y-79756000D03*
D17*
X86106000Y-70358000D02*
X86106000Y-65278000D01*
X76200000Y-83312000D02*
X76200000Y-92964000D01*
X86106000Y-65278000D02*
X82550000Y-61722000D01*
X82550000Y-61722000D02*
X82550000Y-76962000D01*
X82550000Y-76962000D02*
X76200000Y-83312000D01*
D18*
X82550000Y-54212000D02*
X82550000Y-61812000D01*
X82550000Y-99712000D02*
X82550000Y-101854000D01*
X82550000Y-103488000D02*
X82550000Y-111088000D01*
X82550000Y-92112000D02*
X82550000Y-99712000D01*
D19*
X76454000Y-69342000D02*
X76454000Y-80772000D01*
X76454000Y-80772000D02*
X72390000Y-84836000D01*
X72390000Y-84836000D02*
X72390000Y-86868000D01*
X72390000Y-86868000D02*
X71490000Y-87768000D01*
X71490000Y-87768000D02*
X71120000Y-87768000D01*
X77470000Y-70866000D02*
X77470000Y-80772000D01*
X77470000Y-80772000D02*
X73152000Y-85090000D01*
X73152000Y-85090000D02*
X73152000Y-91694000D01*
X73152000Y-91694000D02*
X71998000Y-92848000D01*
X71998000Y-92848000D02*
X71120000Y-92848000D01*
X72390000Y-110490000D02*
X74168000Y-110490000D01*
X76200000Y-108458000D02*
X74168000Y-110490000D01*
X75184000Y-86360000D02*
X75184000Y-93726000D01*
X75184000Y-93726000D02*
X76200000Y-94742000D01*
X76200000Y-94742000D02*
X76200000Y-108458000D01*
X72390000Y-107950000D02*
X73914000Y-107950000D01*
X74168000Y-85852000D02*
X74168000Y-93980000D01*
X74168000Y-93980000D02*
X75438000Y-95250000D01*
X75438000Y-95250000D02*
X75438000Y-106426000D01*
X75438000Y-106426000D02*
X73914000Y-107950000D01*
X72390000Y-120650000D02*
X76835000Y-120650000D01*
X81788000Y-81026000D02*
X82296000Y-81026000D01*
X76835000Y-120650000D02*
X80264000Y-117221000D01*
X80264000Y-117221000D02*
X80264000Y-82550000D01*
X80264000Y-82550000D02*
X81788000Y-81026000D01*
X72390000Y-118110000D02*
X75565000Y-118110000D01*
X75565000Y-118110000D02*
X79502000Y-114173000D01*
X79502000Y-114173000D02*
X79502000Y-82296000D01*
X79502000Y-82296000D02*
X82042000Y-79756000D01*
X82042000Y-79756000D02*
X82296000Y-79756000D01*
X95250000Y-80010000D02*
X95885000Y-80010000D01*
X95885000Y-80010000D02*
X96520000Y-79375000D01*
X95250000Y-64770000D02*
X95250000Y-60960000D01*
X96520000Y-66040000D02*
X95250000Y-64770000D01*
X96520000Y-79375000D02*
X96520000Y-66040000D01*
X95250000Y-137160000D02*
X95250000Y-118110000D01*
X95250000Y-118110000D02*
X95250000Y-99060000D01*
X95250000Y-99060000D02*
X95250000Y-80010000D01*
X114300000Y-137160000D02*
X114300000Y-118110000D01*
X114300000Y-118110000D02*
X114300000Y-99060000D01*
X114300000Y-99060000D02*
X114300000Y-80010000D01*
X114300000Y-80010000D02*
X114300000Y-60960000D01*
X133350000Y-137160000D02*
X133350000Y-118110000D01*
X133350000Y-118110000D02*
X133350000Y-99060000D01*
X133350000Y-99060000D02*
X133350000Y-80010000D01*
X133350000Y-80010000D02*
X133350000Y-60960000D01*
X152400000Y-80010000D02*
X152400000Y-60960000D01*
X152400000Y-99060000D02*
X152400000Y-80010000D01*
X152400000Y-118110000D02*
X152400000Y-99060000D01*
X152400000Y-137160000D02*
X152400000Y-118110000D01*
D20*
G36*
X167146144Y-52736219D02*
X167804129Y-53175871D01*
X168243781Y-53833855D01*
X168408000Y-54659441D01*
X168408000Y-148540559D01*
X168243781Y-149366145D01*
X167804129Y-150024129D01*
X167146144Y-150463781D01*
X166320559Y-150628000D01*
X84345460Y-150628000D01*
X84357534Y-150615926D01*
X84244530Y-150502922D01*
X84589271Y-150312636D01*
X84940956Y-149431409D01*
X84933960Y-148892407D01*
X117852735Y-148892407D01*
X118084717Y-149453846D01*
X118513894Y-149883773D01*
X119074928Y-150116735D01*
X119682407Y-150117265D01*
X120243846Y-149885283D01*
X120673773Y-149456106D01*
X120906735Y-148895072D01*
X120906737Y-148892407D01*
X164842735Y-148892407D01*
X165074717Y-149453846D01*
X165503894Y-149883773D01*
X166064928Y-150116735D01*
X166672407Y-150117265D01*
X167233846Y-149885283D01*
X167663773Y-149456106D01*
X167896735Y-148895072D01*
X167897265Y-148287593D01*
X167665283Y-147726154D01*
X167236106Y-147296227D01*
X166675072Y-147063265D01*
X166067593Y-147062735D01*
X165506154Y-147294717D01*
X165076227Y-147723894D01*
X164843265Y-148284928D01*
X164842735Y-148892407D01*
X120906737Y-148892407D01*
X120907265Y-148287593D01*
X120675283Y-147726154D01*
X120246106Y-147296227D01*
X119685072Y-147063265D01*
X119077593Y-147062735D01*
X118516154Y-147294717D01*
X118086227Y-147723894D01*
X117853265Y-148284928D01*
X117852735Y-148892407D01*
X84933960Y-148892407D01*
X84928641Y-148482677D01*
X84589271Y-147663364D01*
X84244528Y-147473077D01*
X82729605Y-148988000D01*
X82743748Y-149002143D01*
X82564143Y-149181748D01*
X82550000Y-149167605D01*
X82535858Y-149181748D01*
X82356253Y-149002143D01*
X82370395Y-148988000D01*
X80855472Y-147473077D01*
X80510729Y-147663364D01*
X80159044Y-148544591D01*
X80171359Y-149493323D01*
X80510729Y-150312636D01*
X80855470Y-150502922D01*
X80742466Y-150615926D01*
X80754540Y-150628000D01*
X72439441Y-150628000D01*
X71613855Y-150463781D01*
X70955871Y-150024129D01*
X70516219Y-149366144D01*
X70421987Y-148892407D01*
X70862735Y-148892407D01*
X71094717Y-149453846D01*
X71523894Y-149883773D01*
X72084928Y-150116735D01*
X72692407Y-150117265D01*
X73253846Y-149885283D01*
X73683773Y-149456106D01*
X73916735Y-148895072D01*
X73917265Y-148287593D01*
X73685283Y-147726154D01*
X73256106Y-147296227D01*
X73249472Y-147293472D01*
X81035077Y-147293472D01*
X82550000Y-148808395D01*
X84064923Y-147293472D01*
X83874636Y-146948729D01*
X82993409Y-146597044D01*
X82044677Y-146609359D01*
X81225364Y-146948729D01*
X81035077Y-147293472D01*
X73249472Y-147293472D01*
X72695072Y-147063265D01*
X72087593Y-147062735D01*
X71526154Y-147294717D01*
X71096227Y-147723894D01*
X70863265Y-148284928D01*
X70862735Y-148892407D01*
X70421987Y-148892407D01*
X70352000Y-148540559D01*
X70352000Y-143082528D01*
X81035077Y-143082528D01*
X81225364Y-143427271D01*
X82106591Y-143778956D01*
X83055323Y-143766641D01*
X83874636Y-143427271D01*
X84064923Y-143082528D01*
X82550000Y-141567605D01*
X81035077Y-143082528D01*
X70352000Y-143082528D01*
X70352000Y-140944591D01*
X80159044Y-140944591D01*
X80171359Y-141893323D01*
X80510729Y-142712636D01*
X80855472Y-142902923D01*
X82370395Y-141388000D01*
X82729605Y-141388000D01*
X84244528Y-142902923D01*
X84589271Y-142712636D01*
X84940956Y-141831409D01*
X84928641Y-140882677D01*
X84589271Y-140063364D01*
X84244528Y-139873077D01*
X82729605Y-141388000D01*
X82370395Y-141388000D01*
X80855472Y-139873077D01*
X80510729Y-140063364D01*
X80159044Y-140944591D01*
X70352000Y-140944591D01*
X70352000Y-139693472D01*
X81035077Y-139693472D01*
X82550000Y-141208395D01*
X84064923Y-139693472D01*
X83874636Y-139348729D01*
X82993409Y-138997044D01*
X82044677Y-139009359D01*
X81225364Y-139348729D01*
X81035077Y-139693472D01*
X70352000Y-139693472D01*
X70352000Y-129205275D01*
X71634331Y-129205275D01*
X71696169Y-129441042D01*
X72197122Y-129617419D01*
X72727440Y-129588664D01*
X73083831Y-129441042D01*
X73145669Y-129205275D01*
X72390000Y-128449605D01*
X71634331Y-129205275D01*
X70352000Y-129205275D01*
X70352000Y-128077122D01*
X71042581Y-128077122D01*
X71071336Y-128607440D01*
X71218958Y-128963831D01*
X71454725Y-129025669D01*
X72210395Y-128270000D01*
X72569605Y-128270000D01*
X73325275Y-129025669D01*
X73561042Y-128963831D01*
X73737419Y-128462878D01*
X73708664Y-127932560D01*
X73561042Y-127576169D01*
X73325275Y-127514331D01*
X72569605Y-128270000D01*
X72210395Y-128270000D01*
X71454725Y-127514331D01*
X71218958Y-127576169D01*
X71042581Y-128077122D01*
X70352000Y-128077122D01*
X70352000Y-126665275D01*
X71634331Y-126665275D01*
X71696169Y-126901042D01*
X71954445Y-126991977D01*
X71696169Y-127098958D01*
X71634331Y-127334725D01*
X72390000Y-128090395D01*
X73145669Y-127334725D01*
X73083831Y-127098958D01*
X72825555Y-127008023D01*
X73083831Y-126901042D01*
X73145669Y-126665275D01*
X72390000Y-125909605D01*
X71634331Y-126665275D01*
X70352000Y-126665275D01*
X70352000Y-125537122D01*
X71042581Y-125537122D01*
X71071336Y-126067440D01*
X71218958Y-126423831D01*
X71454725Y-126485669D01*
X72210395Y-125730000D01*
X72569605Y-125730000D01*
X73325275Y-126485669D01*
X73561042Y-126423831D01*
X73737419Y-125922878D01*
X73708664Y-125392560D01*
X73561042Y-125036169D01*
X73325275Y-124974331D01*
X72569605Y-125730000D01*
X72210395Y-125730000D01*
X71454725Y-124974331D01*
X71218958Y-125036169D01*
X71042581Y-125537122D01*
X70352000Y-125537122D01*
X70352000Y-124794725D01*
X71634331Y-124794725D01*
X72390000Y-125550395D01*
X73145669Y-124794725D01*
X73083831Y-124558958D01*
X72582878Y-124382581D01*
X72052560Y-124411336D01*
X71696169Y-124558958D01*
X71634331Y-124794725D01*
X70352000Y-124794725D01*
X70352000Y-123413191D01*
X71262805Y-123413191D01*
X71434019Y-123827560D01*
X71750772Y-124144867D01*
X72164842Y-124316804D01*
X72613191Y-124317195D01*
X73027560Y-124145981D01*
X73344867Y-123829228D01*
X73516804Y-123415158D01*
X73517195Y-122966809D01*
X73345981Y-122552440D01*
X73029228Y-122235133D01*
X72615158Y-122063196D01*
X72166809Y-122062805D01*
X71752440Y-122234019D01*
X71435133Y-122550772D01*
X71263196Y-122964842D01*
X71262805Y-123413191D01*
X70352000Y-123413191D01*
X70352000Y-118333191D01*
X71262805Y-118333191D01*
X71434019Y-118747560D01*
X71750772Y-119064867D01*
X72164842Y-119236804D01*
X72613191Y-119237195D01*
X73027560Y-119065981D01*
X73344867Y-118749228D01*
X73381087Y-118662000D01*
X75565000Y-118662000D01*
X75776242Y-118619982D01*
X75819000Y-118591412D01*
X75819000Y-120098000D01*
X73381334Y-120098000D01*
X73345981Y-120012440D01*
X73029228Y-119695133D01*
X72615158Y-119523196D01*
X72166809Y-119522805D01*
X71752440Y-119694019D01*
X71435133Y-120010772D01*
X71263196Y-120424842D01*
X71262805Y-120873191D01*
X71434019Y-121287560D01*
X71750772Y-121604867D01*
X72164842Y-121776804D01*
X72613191Y-121777195D01*
X73027560Y-121605981D01*
X73344867Y-121289228D01*
X73381087Y-121202000D01*
X76835000Y-121202000D01*
X77046242Y-121159982D01*
X77225323Y-121040323D01*
X80654323Y-117611323D01*
X80773981Y-117432242D01*
X80773982Y-117432241D01*
X80816000Y-117221000D01*
X80816000Y-112432404D01*
X81315218Y-112932495D01*
X82115068Y-113264621D01*
X82981132Y-113265377D01*
X83781560Y-112934647D01*
X84394495Y-112322782D01*
X84726621Y-111522932D01*
X84727377Y-110656868D01*
X84396647Y-109856440D01*
X83977000Y-109436059D01*
X83977000Y-105139548D01*
X84394495Y-104722782D01*
X84726621Y-103922932D01*
X84727377Y-103056868D01*
X84396647Y-102256440D01*
X83977000Y-101836059D01*
X83977000Y-101363548D01*
X84394495Y-100946782D01*
X84726621Y-100146932D01*
X84727377Y-99280868D01*
X84396647Y-98480440D01*
X83977000Y-98060059D01*
X83977000Y-93763548D01*
X84394495Y-93346782D01*
X84726621Y-92546932D01*
X84727377Y-91680868D01*
X84396647Y-90880440D01*
X83784782Y-90267505D01*
X82984932Y-89935379D01*
X82118868Y-89934623D01*
X81318440Y-90265353D01*
X80816000Y-90766916D01*
X80816000Y-82778646D01*
X81855920Y-81738726D01*
X82130778Y-81852856D01*
X82459779Y-81853143D01*
X82763846Y-81727505D01*
X82996688Y-81495070D01*
X83122856Y-81191222D01*
X83123143Y-80862221D01*
X82997505Y-80558154D01*
X82830555Y-80390912D01*
X82996688Y-80225070D01*
X83122856Y-79921222D01*
X83123143Y-79592221D01*
X82997505Y-79288154D01*
X82765070Y-79055312D01*
X82461222Y-78929144D01*
X82132221Y-78928857D01*
X81828154Y-79054495D01*
X81595312Y-79286930D01*
X81499371Y-79517983D01*
X79111677Y-81905677D01*
X78992018Y-82084758D01*
X78992018Y-82084759D01*
X78950000Y-82296000D01*
X78950000Y-113944354D01*
X75336354Y-117558000D01*
X73381334Y-117558000D01*
X73345981Y-117472440D01*
X73029228Y-117155133D01*
X72615158Y-116983196D01*
X72166809Y-116982805D01*
X71752440Y-117154019D01*
X71435133Y-117470772D01*
X71263196Y-117884842D01*
X71262805Y-118333191D01*
X70352000Y-118333191D01*
X70352000Y-115793191D01*
X71262805Y-115793191D01*
X71434019Y-116207560D01*
X71750772Y-116524867D01*
X72164842Y-116696804D01*
X72613191Y-116697195D01*
X73027560Y-116525981D01*
X73344867Y-116209228D01*
X73516804Y-115795158D01*
X73517195Y-115346809D01*
X73345981Y-114932440D01*
X73029228Y-114615133D01*
X72615158Y-114443196D01*
X72166809Y-114442805D01*
X71752440Y-114614019D01*
X71435133Y-114930772D01*
X71263196Y-115344842D01*
X71262805Y-115793191D01*
X70352000Y-115793191D01*
X70352000Y-101902407D01*
X70862735Y-101902407D01*
X71094717Y-102463846D01*
X71523894Y-102893773D01*
X72084928Y-103126735D01*
X72692407Y-103127265D01*
X73253846Y-102895283D01*
X73683773Y-102466106D01*
X73916735Y-101905072D01*
X73917265Y-101297593D01*
X73685283Y-100736154D01*
X73256106Y-100306227D01*
X72695072Y-100073265D01*
X72087593Y-100072735D01*
X71526154Y-100304717D01*
X71096227Y-100733894D01*
X70863265Y-101294928D01*
X70862735Y-101902407D01*
X70352000Y-101902407D01*
X70352000Y-93564655D01*
X70407927Y-93651567D01*
X70550619Y-93749064D01*
X70720000Y-93783365D01*
X71520000Y-93783365D01*
X71678237Y-93753591D01*
X71823567Y-93660073D01*
X71921064Y-93517381D01*
X71944835Y-93400000D01*
X71998000Y-93400000D01*
X72209242Y-93357982D01*
X72388323Y-93238323D01*
X73542323Y-92084323D01*
X73574660Y-92035927D01*
X73616000Y-91974058D01*
X73616000Y-93980000D01*
X73658018Y-94191242D01*
X73777677Y-94370323D01*
X74886000Y-95478646D01*
X74886000Y-106197354D01*
X73685354Y-107398000D01*
X73381334Y-107398000D01*
X73345981Y-107312440D01*
X73029228Y-106995133D01*
X72615158Y-106823196D01*
X72166809Y-106822805D01*
X71752440Y-106994019D01*
X71435133Y-107310772D01*
X71263196Y-107724842D01*
X71262805Y-108173191D01*
X71434019Y-108587560D01*
X71750772Y-108904867D01*
X72164842Y-109076804D01*
X72613191Y-109077195D01*
X73027560Y-108905981D01*
X73344867Y-108589228D01*
X73381087Y-108502000D01*
X73914000Y-108502000D01*
X74125242Y-108459982D01*
X74304323Y-108340323D01*
X74549000Y-108095646D01*
X74549000Y-109220000D01*
X74557685Y-109266159D01*
X74578636Y-109298718D01*
X73939354Y-109938000D01*
X73381334Y-109938000D01*
X73345981Y-109852440D01*
X73029228Y-109535133D01*
X72615158Y-109363196D01*
X72166809Y-109362805D01*
X71752440Y-109534019D01*
X71435133Y-109850772D01*
X71263196Y-110264842D01*
X71262805Y-110713191D01*
X71434019Y-111127560D01*
X71750772Y-111444867D01*
X72164842Y-111616804D01*
X72613191Y-111617195D01*
X73027560Y-111445981D01*
X73344867Y-111129228D01*
X73381087Y-111042000D01*
X74168000Y-111042000D01*
X74379242Y-110999982D01*
X74558323Y-110880323D01*
X76590323Y-108848323D01*
X76709982Y-108669242D01*
X76752000Y-108458000D01*
X76752000Y-94742000D01*
X76709982Y-94530759D01*
X76709982Y-94530758D01*
X76590323Y-94351677D01*
X76129585Y-93890939D01*
X76383583Y-93891161D01*
X76724417Y-93750331D01*
X76985414Y-93489789D01*
X77126839Y-93149201D01*
X77127161Y-92780417D01*
X76986331Y-92439583D01*
X76827000Y-92279974D01*
X76827000Y-83571712D01*
X82993356Y-77405356D01*
X83129272Y-77201943D01*
X83177000Y-76962000D01*
X83177000Y-63908446D01*
X83653039Y-63711751D01*
X85479000Y-65537712D01*
X85479000Y-69674073D01*
X85320586Y-69832211D01*
X85179161Y-70172799D01*
X85178839Y-70541583D01*
X85319669Y-70882417D01*
X85580211Y-71143414D01*
X85920799Y-71284839D01*
X86289583Y-71285161D01*
X86630417Y-71144331D01*
X86891414Y-70883789D01*
X87032839Y-70543201D01*
X87033161Y-70174417D01*
X86892331Y-69833583D01*
X86733000Y-69673974D01*
X86733000Y-65278000D01*
X86685272Y-65038057D01*
X86549356Y-64834644D01*
X85468599Y-63753887D01*
X92697778Y-63753887D01*
X92892539Y-64225246D01*
X93252857Y-64586193D01*
X93723876Y-64781777D01*
X94233887Y-64782222D01*
X94698000Y-64590455D01*
X94698000Y-64770000D01*
X94740018Y-64981242D01*
X94859677Y-65160323D01*
X95968000Y-66268646D01*
X95968000Y-78492311D01*
X95585039Y-78333292D01*
X94917888Y-78332710D01*
X94301297Y-78587480D01*
X93829138Y-79058816D01*
X93573292Y-79674961D01*
X93572710Y-80342112D01*
X93827480Y-80958703D01*
X94136374Y-81268136D01*
X93726113Y-81267778D01*
X93254754Y-81462539D01*
X92893807Y-81822857D01*
X92698223Y-82293876D01*
X92697778Y-82803887D01*
X92892539Y-83275246D01*
X93252857Y-83636193D01*
X93723876Y-83831777D01*
X94233887Y-83832222D01*
X94698000Y-83640455D01*
X94698000Y-97473566D01*
X94301297Y-97637480D01*
X93829138Y-98108816D01*
X93573292Y-98724961D01*
X93572710Y-99392112D01*
X93827480Y-100008703D01*
X94136374Y-100318136D01*
X93726113Y-100317778D01*
X93254754Y-100512539D01*
X92893807Y-100872857D01*
X92698223Y-101343876D01*
X92697778Y-101853887D01*
X92892539Y-102325246D01*
X93252857Y-102686193D01*
X93723876Y-102881777D01*
X94233887Y-102882222D01*
X94698000Y-102690455D01*
X94698000Y-116523566D01*
X94301297Y-116687480D01*
X93829138Y-117158816D01*
X93573292Y-117774961D01*
X93572710Y-118442112D01*
X93827480Y-119058703D01*
X94136374Y-119368136D01*
X93726113Y-119367778D01*
X93254754Y-119562539D01*
X92893807Y-119922857D01*
X92698223Y-120393876D01*
X92697778Y-120903887D01*
X92892539Y-121375246D01*
X93252857Y-121736193D01*
X93723876Y-121931777D01*
X94233887Y-121932222D01*
X94698000Y-121740455D01*
X94698000Y-135573566D01*
X94301297Y-135737480D01*
X93829138Y-136208816D01*
X93573292Y-136824961D01*
X93572710Y-137492112D01*
X93827480Y-138108703D01*
X94136374Y-138418136D01*
X93726113Y-138417778D01*
X93254754Y-138612539D01*
X92893807Y-138972857D01*
X92698223Y-139443876D01*
X92697778Y-139953887D01*
X92892539Y-140425246D01*
X93252857Y-140786193D01*
X93723876Y-140981777D01*
X94233887Y-140982222D01*
X94705246Y-140787461D01*
X95066193Y-140427143D01*
X95168549Y-140180642D01*
X96632579Y-140180642D01*
X97001290Y-141072989D01*
X97683420Y-141756311D01*
X98575122Y-142126578D01*
X99540642Y-142127421D01*
X100432989Y-141758710D01*
X101116311Y-141076580D01*
X101486578Y-140184878D01*
X101486779Y-139953887D01*
X102857778Y-139953887D01*
X103052539Y-140425246D01*
X103412857Y-140786193D01*
X103883876Y-140981777D01*
X104393887Y-140982222D01*
X104865246Y-140787461D01*
X105226193Y-140427143D01*
X105421777Y-139956124D01*
X105422222Y-139446113D01*
X105227461Y-138974754D01*
X104867143Y-138613807D01*
X104396124Y-138418223D01*
X103886113Y-138417778D01*
X103414754Y-138612539D01*
X103053807Y-138972857D01*
X102858223Y-139443876D01*
X102857778Y-139953887D01*
X101486779Y-139953887D01*
X101487421Y-139219358D01*
X101118710Y-138327011D01*
X100436580Y-137643689D01*
X99544878Y-137273422D01*
X98579358Y-137272579D01*
X97687011Y-137641290D01*
X97003689Y-138323420D01*
X96633422Y-139215122D01*
X96632579Y-140180642D01*
X95168549Y-140180642D01*
X95261777Y-139956124D01*
X95262222Y-139446113D01*
X95067461Y-138974754D01*
X94929668Y-138836721D01*
X95582112Y-138837290D01*
X96198703Y-138582520D01*
X96670862Y-138111184D01*
X96926708Y-137495039D01*
X96927290Y-136827888D01*
X96672520Y-136211297D01*
X96201184Y-135739138D01*
X95802000Y-135573382D01*
X95802000Y-134952112D01*
X99922710Y-134952112D01*
X100177480Y-135568703D01*
X100648816Y-136040862D01*
X101264961Y-136296708D01*
X101932112Y-136297290D01*
X102548703Y-136042520D01*
X103020862Y-135571184D01*
X103276708Y-134955039D01*
X103277290Y-134287888D01*
X103022520Y-133671297D01*
X102551184Y-133199138D01*
X101935039Y-132943292D01*
X101267888Y-132942710D01*
X100651297Y-133197480D01*
X100179138Y-133668816D01*
X99923292Y-134284961D01*
X99922710Y-134952112D01*
X95802000Y-134952112D01*
X95802000Y-121130642D01*
X96632579Y-121130642D01*
X97001290Y-122022989D01*
X97683420Y-122706311D01*
X98575122Y-123076578D01*
X99540642Y-123077421D01*
X100432989Y-122708710D01*
X101116311Y-122026580D01*
X101486578Y-121134878D01*
X101486779Y-120903887D01*
X102857778Y-120903887D01*
X103052539Y-121375246D01*
X103412857Y-121736193D01*
X103883876Y-121931777D01*
X104393887Y-121932222D01*
X104865246Y-121737461D01*
X105226193Y-121377143D01*
X105421777Y-120906124D01*
X105422222Y-120396113D01*
X105227461Y-119924754D01*
X104867143Y-119563807D01*
X104396124Y-119368223D01*
X103886113Y-119367778D01*
X103414754Y-119562539D01*
X103053807Y-119922857D01*
X102858223Y-120393876D01*
X102857778Y-120903887D01*
X101486779Y-120903887D01*
X101487421Y-120169358D01*
X101118710Y-119277011D01*
X100436580Y-118593689D01*
X99544878Y-118223422D01*
X98579358Y-118222579D01*
X97687011Y-118591290D01*
X97003689Y-119273420D01*
X96633422Y-120165122D01*
X96632579Y-121130642D01*
X95802000Y-121130642D01*
X95802000Y-119696434D01*
X96198703Y-119532520D01*
X96670862Y-119061184D01*
X96926708Y-118445039D01*
X96927290Y-117777888D01*
X96672520Y-117161297D01*
X96201184Y-116689138D01*
X95802000Y-116523382D01*
X95802000Y-115902112D01*
X99922710Y-115902112D01*
X100177480Y-116518703D01*
X100648816Y-116990862D01*
X101264961Y-117246708D01*
X101932112Y-117247290D01*
X102548703Y-116992520D01*
X103020862Y-116521184D01*
X103276708Y-115905039D01*
X103277290Y-115237888D01*
X103022520Y-114621297D01*
X102551184Y-114149138D01*
X101935039Y-113893292D01*
X101267888Y-113892710D01*
X100651297Y-114147480D01*
X100179138Y-114618816D01*
X99923292Y-115234961D01*
X99922710Y-115902112D01*
X95802000Y-115902112D01*
X95802000Y-102080642D01*
X96632579Y-102080642D01*
X97001290Y-102972989D01*
X97683420Y-103656311D01*
X98575122Y-104026578D01*
X99540642Y-104027421D01*
X100432989Y-103658710D01*
X101116311Y-102976580D01*
X101486578Y-102084878D01*
X101486779Y-101853887D01*
X102857778Y-101853887D01*
X103052539Y-102325246D01*
X103412857Y-102686193D01*
X103883876Y-102881777D01*
X104393887Y-102882222D01*
X104865246Y-102687461D01*
X105226193Y-102327143D01*
X105421777Y-101856124D01*
X105422222Y-101346113D01*
X105227461Y-100874754D01*
X104867143Y-100513807D01*
X104396124Y-100318223D01*
X103886113Y-100317778D01*
X103414754Y-100512539D01*
X103053807Y-100872857D01*
X102858223Y-101343876D01*
X102857778Y-101853887D01*
X101486779Y-101853887D01*
X101487421Y-101119358D01*
X101118710Y-100227011D01*
X100436580Y-99543689D01*
X99544878Y-99173422D01*
X98579358Y-99172579D01*
X97687011Y-99541290D01*
X97003689Y-100223420D01*
X96633422Y-101115122D01*
X96632579Y-102080642D01*
X95802000Y-102080642D01*
X95802000Y-100646434D01*
X96198703Y-100482520D01*
X96670862Y-100011184D01*
X96926708Y-99395039D01*
X96927290Y-98727888D01*
X96672520Y-98111297D01*
X96201184Y-97639138D01*
X95802000Y-97473382D01*
X95802000Y-96852112D01*
X99922710Y-96852112D01*
X100177480Y-97468703D01*
X100648816Y-97940862D01*
X101264961Y-98196708D01*
X101932112Y-98197290D01*
X102548703Y-97942520D01*
X103020862Y-97471184D01*
X103276708Y-96855039D01*
X103277290Y-96187888D01*
X103022520Y-95571297D01*
X102551184Y-95099138D01*
X101935039Y-94843292D01*
X101267888Y-94842710D01*
X100651297Y-95097480D01*
X100179138Y-95568816D01*
X99923292Y-96184961D01*
X99922710Y-96852112D01*
X95802000Y-96852112D01*
X95802000Y-83030642D01*
X96632579Y-83030642D01*
X97001290Y-83922989D01*
X97683420Y-84606311D01*
X98575122Y-84976578D01*
X99540642Y-84977421D01*
X100432989Y-84608710D01*
X101116311Y-83926580D01*
X101486578Y-83034878D01*
X101486779Y-82803887D01*
X102857778Y-82803887D01*
X103052539Y-83275246D01*
X103412857Y-83636193D01*
X103883876Y-83831777D01*
X104393887Y-83832222D01*
X104865246Y-83637461D01*
X105226193Y-83277143D01*
X105421777Y-82806124D01*
X105422222Y-82296113D01*
X105227461Y-81824754D01*
X104867143Y-81463807D01*
X104396124Y-81268223D01*
X103886113Y-81267778D01*
X103414754Y-81462539D01*
X103053807Y-81822857D01*
X102858223Y-82293876D01*
X102857778Y-82803887D01*
X101486779Y-82803887D01*
X101487421Y-82069358D01*
X101118710Y-81177011D01*
X100436580Y-80493689D01*
X99544878Y-80123422D01*
X98579358Y-80122579D01*
X97687011Y-80491290D01*
X97003689Y-81173420D01*
X96633422Y-82065122D01*
X96632579Y-83030642D01*
X95802000Y-83030642D01*
X95802000Y-81596434D01*
X96198703Y-81432520D01*
X96670862Y-80961184D01*
X96926708Y-80345039D01*
X96927236Y-79740011D01*
X97029982Y-79586242D01*
X97072000Y-79375000D01*
X97072000Y-77802112D01*
X99922710Y-77802112D01*
X100177480Y-78418703D01*
X100648816Y-78890862D01*
X101264961Y-79146708D01*
X101932112Y-79147290D01*
X102548703Y-78892520D01*
X103020862Y-78421184D01*
X103276708Y-77805039D01*
X103277290Y-77137888D01*
X103022520Y-76521297D01*
X102551184Y-76049138D01*
X101935039Y-75793292D01*
X101267888Y-75792710D01*
X100651297Y-76047480D01*
X100179138Y-76518816D01*
X99923292Y-77134961D01*
X99922710Y-77802112D01*
X97072000Y-77802112D01*
X97072000Y-66040000D01*
X97029982Y-65828759D01*
X97029982Y-65828758D01*
X96910323Y-65649677D01*
X95802000Y-64541354D01*
X95802000Y-63980642D01*
X96632579Y-63980642D01*
X97001290Y-64872989D01*
X97683420Y-65556311D01*
X98575122Y-65926578D01*
X99540642Y-65927421D01*
X100432989Y-65558710D01*
X101116311Y-64876580D01*
X101486578Y-63984878D01*
X101486779Y-63753887D01*
X102857778Y-63753887D01*
X103052539Y-64225246D01*
X103412857Y-64586193D01*
X103883876Y-64781777D01*
X104393887Y-64782222D01*
X104865246Y-64587461D01*
X105226193Y-64227143D01*
X105421777Y-63756124D01*
X105421778Y-63753887D01*
X111747778Y-63753887D01*
X111942539Y-64225246D01*
X112302857Y-64586193D01*
X112773876Y-64781777D01*
X113283887Y-64782222D01*
X113748000Y-64590455D01*
X113748000Y-78423566D01*
X113351297Y-78587480D01*
X112879138Y-79058816D01*
X112623292Y-79674961D01*
X112622710Y-80342112D01*
X112877480Y-80958703D01*
X113186374Y-81268136D01*
X112776113Y-81267778D01*
X112304754Y-81462539D01*
X111943807Y-81822857D01*
X111748223Y-82293876D01*
X111747778Y-82803887D01*
X111942539Y-83275246D01*
X112302857Y-83636193D01*
X112773876Y-83831777D01*
X113283887Y-83832222D01*
X113748000Y-83640455D01*
X113748000Y-97473566D01*
X113351297Y-97637480D01*
X112879138Y-98108816D01*
X112623292Y-98724961D01*
X112622710Y-99392112D01*
X112877480Y-100008703D01*
X113186374Y-100318136D01*
X112776113Y-100317778D01*
X112304754Y-100512539D01*
X111943807Y-100872857D01*
X111748223Y-101343876D01*
X111747778Y-101853887D01*
X111942539Y-102325246D01*
X112302857Y-102686193D01*
X112773876Y-102881777D01*
X113283887Y-102882222D01*
X113748000Y-102690455D01*
X113748000Y-116523566D01*
X113351297Y-116687480D01*
X112879138Y-117158816D01*
X112623292Y-117774961D01*
X112622710Y-118442112D01*
X112877480Y-119058703D01*
X113186374Y-119368136D01*
X112776113Y-119367778D01*
X112304754Y-119562539D01*
X111943807Y-119922857D01*
X111748223Y-120393876D01*
X111747778Y-120903887D01*
X111942539Y-121375246D01*
X112302857Y-121736193D01*
X112773876Y-121931777D01*
X113283887Y-121932222D01*
X113748000Y-121740455D01*
X113748000Y-135573566D01*
X113351297Y-135737480D01*
X112879138Y-136208816D01*
X112623292Y-136824961D01*
X112622710Y-137492112D01*
X112877480Y-138108703D01*
X113186374Y-138418136D01*
X112776113Y-138417778D01*
X112304754Y-138612539D01*
X111943807Y-138972857D01*
X111748223Y-139443876D01*
X111747778Y-139953887D01*
X111942539Y-140425246D01*
X112302857Y-140786193D01*
X112773876Y-140981777D01*
X113283887Y-140982222D01*
X113755246Y-140787461D01*
X114116193Y-140427143D01*
X114218549Y-140180642D01*
X115682579Y-140180642D01*
X116051290Y-141072989D01*
X116733420Y-141756311D01*
X117625122Y-142126578D01*
X118590642Y-142127421D01*
X119482989Y-141758710D01*
X120166311Y-141076580D01*
X120536578Y-140184878D01*
X120536779Y-139953887D01*
X121907778Y-139953887D01*
X122102539Y-140425246D01*
X122462857Y-140786193D01*
X122933876Y-140981777D01*
X123443887Y-140982222D01*
X123915246Y-140787461D01*
X124276193Y-140427143D01*
X124471777Y-139956124D01*
X124472222Y-139446113D01*
X124277461Y-138974754D01*
X123917143Y-138613807D01*
X123446124Y-138418223D01*
X122936113Y-138417778D01*
X122464754Y-138612539D01*
X122103807Y-138972857D01*
X121908223Y-139443876D01*
X121907778Y-139953887D01*
X120536779Y-139953887D01*
X120537421Y-139219358D01*
X120168710Y-138327011D01*
X119486580Y-137643689D01*
X118594878Y-137273422D01*
X117629358Y-137272579D01*
X116737011Y-137641290D01*
X116053689Y-138323420D01*
X115683422Y-139215122D01*
X115682579Y-140180642D01*
X114218549Y-140180642D01*
X114311777Y-139956124D01*
X114312222Y-139446113D01*
X114117461Y-138974754D01*
X113979668Y-138836721D01*
X114632112Y-138837290D01*
X115248703Y-138582520D01*
X115720862Y-138111184D01*
X115976708Y-137495039D01*
X115977290Y-136827888D01*
X115722520Y-136211297D01*
X115251184Y-135739138D01*
X114852000Y-135573382D01*
X114852000Y-134952112D01*
X118972710Y-134952112D01*
X119227480Y-135568703D01*
X119698816Y-136040862D01*
X120314961Y-136296708D01*
X120982112Y-136297290D01*
X121598703Y-136042520D01*
X122070862Y-135571184D01*
X122326708Y-134955039D01*
X122327290Y-134287888D01*
X122072520Y-133671297D01*
X121601184Y-133199138D01*
X120985039Y-132943292D01*
X120317888Y-132942710D01*
X119701297Y-133197480D01*
X119229138Y-133668816D01*
X118973292Y-134284961D01*
X118972710Y-134952112D01*
X114852000Y-134952112D01*
X114852000Y-121130642D01*
X115682579Y-121130642D01*
X116051290Y-122022989D01*
X116733420Y-122706311D01*
X117625122Y-123076578D01*
X118590642Y-123077421D01*
X119482989Y-122708710D01*
X120166311Y-122026580D01*
X120536578Y-121134878D01*
X120536779Y-120903887D01*
X121907778Y-120903887D01*
X122102539Y-121375246D01*
X122462857Y-121736193D01*
X122933876Y-121931777D01*
X123443887Y-121932222D01*
X123915246Y-121737461D01*
X124276193Y-121377143D01*
X124471777Y-120906124D01*
X124472222Y-120396113D01*
X124277461Y-119924754D01*
X123917143Y-119563807D01*
X123446124Y-119368223D01*
X122936113Y-119367778D01*
X122464754Y-119562539D01*
X122103807Y-119922857D01*
X121908223Y-120393876D01*
X121907778Y-120903887D01*
X120536779Y-120903887D01*
X120537421Y-120169358D01*
X120168710Y-119277011D01*
X119486580Y-118593689D01*
X118594878Y-118223422D01*
X117629358Y-118222579D01*
X116737011Y-118591290D01*
X116053689Y-119273420D01*
X115683422Y-120165122D01*
X115682579Y-121130642D01*
X114852000Y-121130642D01*
X114852000Y-119696434D01*
X115248703Y-119532520D01*
X115720862Y-119061184D01*
X115976708Y-118445039D01*
X115977290Y-117777888D01*
X115722520Y-117161297D01*
X115251184Y-116689138D01*
X114852000Y-116523382D01*
X114852000Y-115902112D01*
X118972710Y-115902112D01*
X119227480Y-116518703D01*
X119698816Y-116990862D01*
X120314961Y-117246708D01*
X120982112Y-117247290D01*
X121598703Y-116992520D01*
X122070862Y-116521184D01*
X122326708Y-115905039D01*
X122327290Y-115237888D01*
X122072520Y-114621297D01*
X121601184Y-114149138D01*
X120985039Y-113893292D01*
X120317888Y-113892710D01*
X119701297Y-114147480D01*
X119229138Y-114618816D01*
X118973292Y-115234961D01*
X118972710Y-115902112D01*
X114852000Y-115902112D01*
X114852000Y-102080642D01*
X115682579Y-102080642D01*
X116051290Y-102972989D01*
X116733420Y-103656311D01*
X117625122Y-104026578D01*
X118590642Y-104027421D01*
X119482989Y-103658710D01*
X120166311Y-102976580D01*
X120536578Y-102084878D01*
X120536779Y-101853887D01*
X121907778Y-101853887D01*
X122102539Y-102325246D01*
X122462857Y-102686193D01*
X122933876Y-102881777D01*
X123443887Y-102882222D01*
X123915246Y-102687461D01*
X124276193Y-102327143D01*
X124471777Y-101856124D01*
X124472222Y-101346113D01*
X124277461Y-100874754D01*
X123917143Y-100513807D01*
X123446124Y-100318223D01*
X122936113Y-100317778D01*
X122464754Y-100512539D01*
X122103807Y-100872857D01*
X121908223Y-101343876D01*
X121907778Y-101853887D01*
X120536779Y-101853887D01*
X120537421Y-101119358D01*
X120168710Y-100227011D01*
X119486580Y-99543689D01*
X118594878Y-99173422D01*
X117629358Y-99172579D01*
X116737011Y-99541290D01*
X116053689Y-100223420D01*
X115683422Y-101115122D01*
X115682579Y-102080642D01*
X114852000Y-102080642D01*
X114852000Y-100646434D01*
X115248703Y-100482520D01*
X115720862Y-100011184D01*
X115976708Y-99395039D01*
X115977290Y-98727888D01*
X115722520Y-98111297D01*
X115251184Y-97639138D01*
X114852000Y-97473382D01*
X114852000Y-96852112D01*
X118972710Y-96852112D01*
X119227480Y-97468703D01*
X119698816Y-97940862D01*
X120314961Y-98196708D01*
X120982112Y-98197290D01*
X121598703Y-97942520D01*
X122070862Y-97471184D01*
X122326708Y-96855039D01*
X122327290Y-96187888D01*
X122072520Y-95571297D01*
X121601184Y-95099138D01*
X120985039Y-94843292D01*
X120317888Y-94842710D01*
X119701297Y-95097480D01*
X119229138Y-95568816D01*
X118973292Y-96184961D01*
X118972710Y-96852112D01*
X114852000Y-96852112D01*
X114852000Y-83030642D01*
X115682579Y-83030642D01*
X116051290Y-83922989D01*
X116733420Y-84606311D01*
X117625122Y-84976578D01*
X118590642Y-84977421D01*
X119482989Y-84608710D01*
X120166311Y-83926580D01*
X120536578Y-83034878D01*
X120536779Y-82803887D01*
X121907778Y-82803887D01*
X122102539Y-83275246D01*
X122462857Y-83636193D01*
X122933876Y-83831777D01*
X123443887Y-83832222D01*
X123915246Y-83637461D01*
X124276193Y-83277143D01*
X124471777Y-82806124D01*
X124472222Y-82296113D01*
X124277461Y-81824754D01*
X123917143Y-81463807D01*
X123446124Y-81268223D01*
X122936113Y-81267778D01*
X122464754Y-81462539D01*
X122103807Y-81822857D01*
X121908223Y-82293876D01*
X121907778Y-82803887D01*
X120536779Y-82803887D01*
X120537421Y-82069358D01*
X120168710Y-81177011D01*
X119486580Y-80493689D01*
X118594878Y-80123422D01*
X117629358Y-80122579D01*
X116737011Y-80491290D01*
X116053689Y-81173420D01*
X115683422Y-82065122D01*
X115682579Y-83030642D01*
X114852000Y-83030642D01*
X114852000Y-81596434D01*
X115248703Y-81432520D01*
X115720862Y-80961184D01*
X115976708Y-80345039D01*
X115977290Y-79677888D01*
X115722520Y-79061297D01*
X115251184Y-78589138D01*
X114852000Y-78423382D01*
X114852000Y-77802112D01*
X118972710Y-77802112D01*
X119227480Y-78418703D01*
X119698816Y-78890862D01*
X120314961Y-79146708D01*
X120982112Y-79147290D01*
X121598703Y-78892520D01*
X122070862Y-78421184D01*
X122326708Y-77805039D01*
X122327290Y-77137888D01*
X122072520Y-76521297D01*
X121601184Y-76049138D01*
X120985039Y-75793292D01*
X120317888Y-75792710D01*
X119701297Y-76047480D01*
X119229138Y-76518816D01*
X118973292Y-77134961D01*
X118972710Y-77802112D01*
X114852000Y-77802112D01*
X114852000Y-63980642D01*
X115682579Y-63980642D01*
X116051290Y-64872989D01*
X116733420Y-65556311D01*
X117625122Y-65926578D01*
X118590642Y-65927421D01*
X119482989Y-65558710D01*
X120166311Y-64876580D01*
X120536578Y-63984878D01*
X120536779Y-63753887D01*
X121907778Y-63753887D01*
X122102539Y-64225246D01*
X122462857Y-64586193D01*
X122933876Y-64781777D01*
X123443887Y-64782222D01*
X123915246Y-64587461D01*
X124276193Y-64227143D01*
X124471777Y-63756124D01*
X124471778Y-63753887D01*
X130797778Y-63753887D01*
X130992539Y-64225246D01*
X131352857Y-64586193D01*
X131823876Y-64781777D01*
X132333887Y-64782222D01*
X132798000Y-64590455D01*
X132798000Y-78423566D01*
X132401297Y-78587480D01*
X131929138Y-79058816D01*
X131673292Y-79674961D01*
X131672710Y-80342112D01*
X131927480Y-80958703D01*
X132236374Y-81268136D01*
X131826113Y-81267778D01*
X131354754Y-81462539D01*
X130993807Y-81822857D01*
X130798223Y-82293876D01*
X130797778Y-82803887D01*
X130992539Y-83275246D01*
X131352857Y-83636193D01*
X131823876Y-83831777D01*
X132333887Y-83832222D01*
X132798000Y-83640455D01*
X132798000Y-97473566D01*
X132401297Y-97637480D01*
X131929138Y-98108816D01*
X131673292Y-98724961D01*
X131672710Y-99392112D01*
X131927480Y-100008703D01*
X132236374Y-100318136D01*
X131826113Y-100317778D01*
X131354754Y-100512539D01*
X130993807Y-100872857D01*
X130798223Y-101343876D01*
X130797778Y-101853887D01*
X130992539Y-102325246D01*
X131352857Y-102686193D01*
X131823876Y-102881777D01*
X132333887Y-102882222D01*
X132798000Y-102690455D01*
X132798000Y-116523566D01*
X132401297Y-116687480D01*
X131929138Y-117158816D01*
X131673292Y-117774961D01*
X131672710Y-118442112D01*
X131927480Y-119058703D01*
X132236374Y-119368136D01*
X131826113Y-119367778D01*
X131354754Y-119562539D01*
X130993807Y-119922857D01*
X130798223Y-120393876D01*
X130797778Y-120903887D01*
X130992539Y-121375246D01*
X131352857Y-121736193D01*
X131823876Y-121931777D01*
X132333887Y-121932222D01*
X132798000Y-121740455D01*
X132798000Y-135573566D01*
X132401297Y-135737480D01*
X131929138Y-136208816D01*
X131673292Y-136824961D01*
X131672710Y-137492112D01*
X131927480Y-138108703D01*
X132236374Y-138418136D01*
X131826113Y-138417778D01*
X131354754Y-138612539D01*
X130993807Y-138972857D01*
X130798223Y-139443876D01*
X130797778Y-139953887D01*
X130992539Y-140425246D01*
X131352857Y-140786193D01*
X131823876Y-140981777D01*
X132333887Y-140982222D01*
X132805246Y-140787461D01*
X133166193Y-140427143D01*
X133268549Y-140180642D01*
X134732579Y-140180642D01*
X135101290Y-141072989D01*
X135783420Y-141756311D01*
X136675122Y-142126578D01*
X137640642Y-142127421D01*
X138532989Y-141758710D01*
X139216311Y-141076580D01*
X139586578Y-140184878D01*
X139586779Y-139953887D01*
X140957778Y-139953887D01*
X141152539Y-140425246D01*
X141512857Y-140786193D01*
X141983876Y-140981777D01*
X142493887Y-140982222D01*
X142965246Y-140787461D01*
X143326193Y-140427143D01*
X143521777Y-139956124D01*
X143522222Y-139446113D01*
X143327461Y-138974754D01*
X142967143Y-138613807D01*
X142496124Y-138418223D01*
X141986113Y-138417778D01*
X141514754Y-138612539D01*
X141153807Y-138972857D01*
X140958223Y-139443876D01*
X140957778Y-139953887D01*
X139586779Y-139953887D01*
X139587421Y-139219358D01*
X139218710Y-138327011D01*
X138536580Y-137643689D01*
X137644878Y-137273422D01*
X136679358Y-137272579D01*
X135787011Y-137641290D01*
X135103689Y-138323420D01*
X134733422Y-139215122D01*
X134732579Y-140180642D01*
X133268549Y-140180642D01*
X133361777Y-139956124D01*
X133362222Y-139446113D01*
X133167461Y-138974754D01*
X133029668Y-138836721D01*
X133682112Y-138837290D01*
X134298703Y-138582520D01*
X134770862Y-138111184D01*
X135026708Y-137495039D01*
X135027290Y-136827888D01*
X134772520Y-136211297D01*
X134301184Y-135739138D01*
X133902000Y-135573382D01*
X133902000Y-134952112D01*
X138022710Y-134952112D01*
X138277480Y-135568703D01*
X138748816Y-136040862D01*
X139364961Y-136296708D01*
X140032112Y-136297290D01*
X140648703Y-136042520D01*
X141120862Y-135571184D01*
X141376708Y-134955039D01*
X141377290Y-134287888D01*
X141122520Y-133671297D01*
X140651184Y-133199138D01*
X140035039Y-132943292D01*
X139367888Y-132942710D01*
X138751297Y-133197480D01*
X138279138Y-133668816D01*
X138023292Y-134284961D01*
X138022710Y-134952112D01*
X133902000Y-134952112D01*
X133902000Y-121130642D01*
X134732579Y-121130642D01*
X135101290Y-122022989D01*
X135783420Y-122706311D01*
X136675122Y-123076578D01*
X137640642Y-123077421D01*
X138532989Y-122708710D01*
X139216311Y-122026580D01*
X139586578Y-121134878D01*
X139586779Y-120903887D01*
X140957778Y-120903887D01*
X141152539Y-121375246D01*
X141512857Y-121736193D01*
X141983876Y-121931777D01*
X142493887Y-121932222D01*
X142965246Y-121737461D01*
X143326193Y-121377143D01*
X143521777Y-120906124D01*
X143522222Y-120396113D01*
X143327461Y-119924754D01*
X142967143Y-119563807D01*
X142496124Y-119368223D01*
X141986113Y-119367778D01*
X141514754Y-119562539D01*
X141153807Y-119922857D01*
X140958223Y-120393876D01*
X140957778Y-120903887D01*
X139586779Y-120903887D01*
X139587421Y-120169358D01*
X139218710Y-119277011D01*
X138536580Y-118593689D01*
X137644878Y-118223422D01*
X136679358Y-118222579D01*
X135787011Y-118591290D01*
X135103689Y-119273420D01*
X134733422Y-120165122D01*
X134732579Y-121130642D01*
X133902000Y-121130642D01*
X133902000Y-119696434D01*
X134298703Y-119532520D01*
X134770862Y-119061184D01*
X135026708Y-118445039D01*
X135027290Y-117777888D01*
X134772520Y-117161297D01*
X134301184Y-116689138D01*
X133902000Y-116523382D01*
X133902000Y-115902112D01*
X138022710Y-115902112D01*
X138277480Y-116518703D01*
X138748816Y-116990862D01*
X139364961Y-117246708D01*
X140032112Y-117247290D01*
X140648703Y-116992520D01*
X141120862Y-116521184D01*
X141376708Y-115905039D01*
X141377290Y-115237888D01*
X141122520Y-114621297D01*
X140651184Y-114149138D01*
X140035039Y-113893292D01*
X139367888Y-113892710D01*
X138751297Y-114147480D01*
X138279138Y-114618816D01*
X138023292Y-115234961D01*
X138022710Y-115902112D01*
X133902000Y-115902112D01*
X133902000Y-102080642D01*
X134732579Y-102080642D01*
X135101290Y-102972989D01*
X135783420Y-103656311D01*
X136675122Y-104026578D01*
X137640642Y-104027421D01*
X138532989Y-103658710D01*
X139216311Y-102976580D01*
X139586578Y-102084878D01*
X139586779Y-101853887D01*
X140957778Y-101853887D01*
X141152539Y-102325246D01*
X141512857Y-102686193D01*
X141983876Y-102881777D01*
X142493887Y-102882222D01*
X142965246Y-102687461D01*
X143326193Y-102327143D01*
X143521777Y-101856124D01*
X143522222Y-101346113D01*
X143327461Y-100874754D01*
X142967143Y-100513807D01*
X142496124Y-100318223D01*
X141986113Y-100317778D01*
X141514754Y-100512539D01*
X141153807Y-100872857D01*
X140958223Y-101343876D01*
X140957778Y-101853887D01*
X139586779Y-101853887D01*
X139587421Y-101119358D01*
X139218710Y-100227011D01*
X138536580Y-99543689D01*
X137644878Y-99173422D01*
X136679358Y-99172579D01*
X135787011Y-99541290D01*
X135103689Y-100223420D01*
X134733422Y-101115122D01*
X134732579Y-102080642D01*
X133902000Y-102080642D01*
X133902000Y-100646434D01*
X134298703Y-100482520D01*
X134770862Y-100011184D01*
X135026708Y-99395039D01*
X135027290Y-98727888D01*
X134772520Y-98111297D01*
X134301184Y-97639138D01*
X133902000Y-97473382D01*
X133902000Y-96852112D01*
X138022710Y-96852112D01*
X138277480Y-97468703D01*
X138748816Y-97940862D01*
X139364961Y-98196708D01*
X140032112Y-98197290D01*
X140648703Y-97942520D01*
X141120862Y-97471184D01*
X141376708Y-96855039D01*
X141377290Y-96187888D01*
X141122520Y-95571297D01*
X140651184Y-95099138D01*
X140035039Y-94843292D01*
X139367888Y-94842710D01*
X138751297Y-95097480D01*
X138279138Y-95568816D01*
X138023292Y-96184961D01*
X138022710Y-96852112D01*
X133902000Y-96852112D01*
X133902000Y-83030642D01*
X134732579Y-83030642D01*
X135101290Y-83922989D01*
X135783420Y-84606311D01*
X136675122Y-84976578D01*
X137640642Y-84977421D01*
X138532989Y-84608710D01*
X139216311Y-83926580D01*
X139586578Y-83034878D01*
X139586779Y-82803887D01*
X140957778Y-82803887D01*
X141152539Y-83275246D01*
X141512857Y-83636193D01*
X141983876Y-83831777D01*
X142493887Y-83832222D01*
X142965246Y-83637461D01*
X143326193Y-83277143D01*
X143521777Y-82806124D01*
X143522222Y-82296113D01*
X143327461Y-81824754D01*
X142967143Y-81463807D01*
X142496124Y-81268223D01*
X141986113Y-81267778D01*
X141514754Y-81462539D01*
X141153807Y-81822857D01*
X140958223Y-82293876D01*
X140957778Y-82803887D01*
X139586779Y-82803887D01*
X139587421Y-82069358D01*
X139218710Y-81177011D01*
X138536580Y-80493689D01*
X137644878Y-80123422D01*
X136679358Y-80122579D01*
X135787011Y-80491290D01*
X135103689Y-81173420D01*
X134733422Y-82065122D01*
X134732579Y-83030642D01*
X133902000Y-83030642D01*
X133902000Y-81596434D01*
X134298703Y-81432520D01*
X134770862Y-80961184D01*
X135026708Y-80345039D01*
X135027290Y-79677888D01*
X134772520Y-79061297D01*
X134301184Y-78589138D01*
X133902000Y-78423382D01*
X133902000Y-77802112D01*
X138022710Y-77802112D01*
X138277480Y-78418703D01*
X138748816Y-78890862D01*
X139364961Y-79146708D01*
X140032112Y-79147290D01*
X140648703Y-78892520D01*
X141120862Y-78421184D01*
X141376708Y-77805039D01*
X141377290Y-77137888D01*
X141122520Y-76521297D01*
X140651184Y-76049138D01*
X140035039Y-75793292D01*
X139367888Y-75792710D01*
X138751297Y-76047480D01*
X138279138Y-76518816D01*
X138023292Y-77134961D01*
X138022710Y-77802112D01*
X133902000Y-77802112D01*
X133902000Y-63980642D01*
X134732579Y-63980642D01*
X135101290Y-64872989D01*
X135783420Y-65556311D01*
X136675122Y-65926578D01*
X137640642Y-65927421D01*
X138532989Y-65558710D01*
X139216311Y-64876580D01*
X139586578Y-63984878D01*
X139586779Y-63753887D01*
X140957778Y-63753887D01*
X141152539Y-64225246D01*
X141512857Y-64586193D01*
X141983876Y-64781777D01*
X142493887Y-64782222D01*
X142965246Y-64587461D01*
X143326193Y-64227143D01*
X143521777Y-63756124D01*
X143521778Y-63753887D01*
X149847778Y-63753887D01*
X150042539Y-64225246D01*
X150402857Y-64586193D01*
X150873876Y-64781777D01*
X151383887Y-64782222D01*
X151848000Y-64590455D01*
X151848000Y-78423566D01*
X151451297Y-78587480D01*
X150979138Y-79058816D01*
X150723292Y-79674961D01*
X150722710Y-80342112D01*
X150977480Y-80958703D01*
X151286374Y-81268136D01*
X150876113Y-81267778D01*
X150404754Y-81462539D01*
X150043807Y-81822857D01*
X149848223Y-82293876D01*
X149847778Y-82803887D01*
X150042539Y-83275246D01*
X150402857Y-83636193D01*
X150873876Y-83831777D01*
X151383887Y-83832222D01*
X151848000Y-83640455D01*
X151848000Y-97473566D01*
X151451297Y-97637480D01*
X150979138Y-98108816D01*
X150723292Y-98724961D01*
X150722710Y-99392112D01*
X150977480Y-100008703D01*
X151286374Y-100318136D01*
X150876113Y-100317778D01*
X150404754Y-100512539D01*
X150043807Y-100872857D01*
X149848223Y-101343876D01*
X149847778Y-101853887D01*
X150042539Y-102325246D01*
X150402857Y-102686193D01*
X150873876Y-102881777D01*
X151383887Y-102882222D01*
X151848000Y-102690455D01*
X151848000Y-116523566D01*
X151451297Y-116687480D01*
X150979138Y-117158816D01*
X150723292Y-117774961D01*
X150722710Y-118442112D01*
X150977480Y-119058703D01*
X151286374Y-119368136D01*
X150876113Y-119367778D01*
X150404754Y-119562539D01*
X150043807Y-119922857D01*
X149848223Y-120393876D01*
X149847778Y-120903887D01*
X150042539Y-121375246D01*
X150402857Y-121736193D01*
X150873876Y-121931777D01*
X151383887Y-121932222D01*
X151848000Y-121740455D01*
X151848000Y-135573566D01*
X151451297Y-135737480D01*
X150979138Y-136208816D01*
X150723292Y-136824961D01*
X150722710Y-137492112D01*
X150977480Y-138108703D01*
X151286374Y-138418136D01*
X150876113Y-138417778D01*
X150404754Y-138612539D01*
X150043807Y-138972857D01*
X149848223Y-139443876D01*
X149847778Y-139953887D01*
X150042539Y-140425246D01*
X150402857Y-140786193D01*
X150873876Y-140981777D01*
X151383887Y-140982222D01*
X151855246Y-140787461D01*
X152216193Y-140427143D01*
X152318549Y-140180642D01*
X153782579Y-140180642D01*
X154151290Y-141072989D01*
X154833420Y-141756311D01*
X155725122Y-142126578D01*
X156690642Y-142127421D01*
X157582989Y-141758710D01*
X158266311Y-141076580D01*
X158636578Y-140184878D01*
X158636779Y-139953887D01*
X160007778Y-139953887D01*
X160202539Y-140425246D01*
X160562857Y-140786193D01*
X161033876Y-140981777D01*
X161543887Y-140982222D01*
X162015246Y-140787461D01*
X162376193Y-140427143D01*
X162571777Y-139956124D01*
X162572222Y-139446113D01*
X162377461Y-138974754D01*
X162017143Y-138613807D01*
X161546124Y-138418223D01*
X161036113Y-138417778D01*
X160564754Y-138612539D01*
X160203807Y-138972857D01*
X160008223Y-139443876D01*
X160007778Y-139953887D01*
X158636779Y-139953887D01*
X158637421Y-139219358D01*
X158268710Y-138327011D01*
X157586580Y-137643689D01*
X156694878Y-137273422D01*
X155729358Y-137272579D01*
X154837011Y-137641290D01*
X154153689Y-138323420D01*
X153783422Y-139215122D01*
X153782579Y-140180642D01*
X152318549Y-140180642D01*
X152411777Y-139956124D01*
X152412222Y-139446113D01*
X152217461Y-138974754D01*
X152079668Y-138836721D01*
X152732112Y-138837290D01*
X153348703Y-138582520D01*
X153820862Y-138111184D01*
X154076708Y-137495039D01*
X154077290Y-136827888D01*
X153822520Y-136211297D01*
X153351184Y-135739138D01*
X152952000Y-135573382D01*
X152952000Y-134952112D01*
X157072710Y-134952112D01*
X157327480Y-135568703D01*
X157798816Y-136040862D01*
X158414961Y-136296708D01*
X159082112Y-136297290D01*
X159698703Y-136042520D01*
X160170862Y-135571184D01*
X160426708Y-134955039D01*
X160427290Y-134287888D01*
X160172520Y-133671297D01*
X159701184Y-133199138D01*
X159085039Y-132943292D01*
X158417888Y-132942710D01*
X157801297Y-133197480D01*
X157329138Y-133668816D01*
X157073292Y-134284961D01*
X157072710Y-134952112D01*
X152952000Y-134952112D01*
X152952000Y-121130642D01*
X153782579Y-121130642D01*
X154151290Y-122022989D01*
X154833420Y-122706311D01*
X155725122Y-123076578D01*
X156690642Y-123077421D01*
X157582989Y-122708710D01*
X158266311Y-122026580D01*
X158636578Y-121134878D01*
X158636779Y-120903887D01*
X160007778Y-120903887D01*
X160202539Y-121375246D01*
X160562857Y-121736193D01*
X161033876Y-121931777D01*
X161543887Y-121932222D01*
X162015246Y-121737461D01*
X162376193Y-121377143D01*
X162571777Y-120906124D01*
X162572222Y-120396113D01*
X162377461Y-119924754D01*
X162017143Y-119563807D01*
X161546124Y-119368223D01*
X161036113Y-119367778D01*
X160564754Y-119562539D01*
X160203807Y-119922857D01*
X160008223Y-120393876D01*
X160007778Y-120903887D01*
X158636779Y-120903887D01*
X158637421Y-120169358D01*
X158268710Y-119277011D01*
X157586580Y-118593689D01*
X156694878Y-118223422D01*
X155729358Y-118222579D01*
X154837011Y-118591290D01*
X154153689Y-119273420D01*
X153783422Y-120165122D01*
X153782579Y-121130642D01*
X152952000Y-121130642D01*
X152952000Y-119696434D01*
X153348703Y-119532520D01*
X153820862Y-119061184D01*
X154076708Y-118445039D01*
X154077290Y-117777888D01*
X153822520Y-117161297D01*
X153351184Y-116689138D01*
X152952000Y-116523382D01*
X152952000Y-115902112D01*
X157072710Y-115902112D01*
X157327480Y-116518703D01*
X157798816Y-116990862D01*
X158414961Y-117246708D01*
X159082112Y-117247290D01*
X159698703Y-116992520D01*
X160170862Y-116521184D01*
X160426708Y-115905039D01*
X160427290Y-115237888D01*
X160172520Y-114621297D01*
X159701184Y-114149138D01*
X159085039Y-113893292D01*
X158417888Y-113892710D01*
X157801297Y-114147480D01*
X157329138Y-114618816D01*
X157073292Y-115234961D01*
X157072710Y-115902112D01*
X152952000Y-115902112D01*
X152952000Y-102080642D01*
X153782579Y-102080642D01*
X154151290Y-102972989D01*
X154833420Y-103656311D01*
X155725122Y-104026578D01*
X156690642Y-104027421D01*
X157582989Y-103658710D01*
X158266311Y-102976580D01*
X158636578Y-102084878D01*
X158636779Y-101853887D01*
X160007778Y-101853887D01*
X160202539Y-102325246D01*
X160562857Y-102686193D01*
X161033876Y-102881777D01*
X161543887Y-102882222D01*
X162015246Y-102687461D01*
X162376193Y-102327143D01*
X162552558Y-101902407D01*
X164842735Y-101902407D01*
X165074717Y-102463846D01*
X165503894Y-102893773D01*
X166064928Y-103126735D01*
X166672407Y-103127265D01*
X167233846Y-102895283D01*
X167663773Y-102466106D01*
X167896735Y-101905072D01*
X167897265Y-101297593D01*
X167665283Y-100736154D01*
X167236106Y-100306227D01*
X166675072Y-100073265D01*
X166067593Y-100072735D01*
X165506154Y-100304717D01*
X165076227Y-100733894D01*
X164843265Y-101294928D01*
X164842735Y-101902407D01*
X162552558Y-101902407D01*
X162571777Y-101856124D01*
X162572222Y-101346113D01*
X162377461Y-100874754D01*
X162017143Y-100513807D01*
X161546124Y-100318223D01*
X161036113Y-100317778D01*
X160564754Y-100512539D01*
X160203807Y-100872857D01*
X160008223Y-101343876D01*
X160007778Y-101853887D01*
X158636779Y-101853887D01*
X158637421Y-101119358D01*
X158268710Y-100227011D01*
X157586580Y-99543689D01*
X156694878Y-99173422D01*
X155729358Y-99172579D01*
X154837011Y-99541290D01*
X154153689Y-100223420D01*
X153783422Y-101115122D01*
X153782579Y-102080642D01*
X152952000Y-102080642D01*
X152952000Y-100646434D01*
X153348703Y-100482520D01*
X153820862Y-100011184D01*
X154076708Y-99395039D01*
X154077290Y-98727888D01*
X153822520Y-98111297D01*
X153351184Y-97639138D01*
X152952000Y-97473382D01*
X152952000Y-96852112D01*
X157072710Y-96852112D01*
X157327480Y-97468703D01*
X157798816Y-97940862D01*
X158414961Y-98196708D01*
X159082112Y-98197290D01*
X159698703Y-97942520D01*
X160170862Y-97471184D01*
X160426708Y-96855039D01*
X160427290Y-96187888D01*
X160172520Y-95571297D01*
X159701184Y-95099138D01*
X159085039Y-94843292D01*
X158417888Y-94842710D01*
X157801297Y-95097480D01*
X157329138Y-95568816D01*
X157073292Y-96184961D01*
X157072710Y-96852112D01*
X152952000Y-96852112D01*
X152952000Y-83030642D01*
X153782579Y-83030642D01*
X154151290Y-83922989D01*
X154833420Y-84606311D01*
X155725122Y-84976578D01*
X156690642Y-84977421D01*
X157582989Y-84608710D01*
X158266311Y-83926580D01*
X158636578Y-83034878D01*
X158636779Y-82803887D01*
X160007778Y-82803887D01*
X160202539Y-83275246D01*
X160562857Y-83636193D01*
X161033876Y-83831777D01*
X161543887Y-83832222D01*
X162015246Y-83637461D01*
X162376193Y-83277143D01*
X162571777Y-82806124D01*
X162572222Y-82296113D01*
X162377461Y-81824754D01*
X162017143Y-81463807D01*
X161546124Y-81268223D01*
X161036113Y-81267778D01*
X160564754Y-81462539D01*
X160203807Y-81822857D01*
X160008223Y-82293876D01*
X160007778Y-82803887D01*
X158636779Y-82803887D01*
X158637421Y-82069358D01*
X158268710Y-81177011D01*
X157586580Y-80493689D01*
X156694878Y-80123422D01*
X155729358Y-80122579D01*
X154837011Y-80491290D01*
X154153689Y-81173420D01*
X153783422Y-82065122D01*
X153782579Y-83030642D01*
X152952000Y-83030642D01*
X152952000Y-81596434D01*
X153348703Y-81432520D01*
X153820862Y-80961184D01*
X154076708Y-80345039D01*
X154077290Y-79677888D01*
X153822520Y-79061297D01*
X153351184Y-78589138D01*
X152952000Y-78423382D01*
X152952000Y-77802112D01*
X157072710Y-77802112D01*
X157327480Y-78418703D01*
X157798816Y-78890862D01*
X158414961Y-79146708D01*
X159082112Y-79147290D01*
X159698703Y-78892520D01*
X160170862Y-78421184D01*
X160426708Y-77805039D01*
X160427290Y-77137888D01*
X160172520Y-76521297D01*
X159701184Y-76049138D01*
X159085039Y-75793292D01*
X158417888Y-75792710D01*
X157801297Y-76047480D01*
X157329138Y-76518816D01*
X157073292Y-77134961D01*
X157072710Y-77802112D01*
X152952000Y-77802112D01*
X152952000Y-63980642D01*
X153782579Y-63980642D01*
X154151290Y-64872989D01*
X154833420Y-65556311D01*
X155725122Y-65926578D01*
X156690642Y-65927421D01*
X157582989Y-65558710D01*
X158266311Y-64876580D01*
X158636578Y-63984878D01*
X158636779Y-63753887D01*
X160007778Y-63753887D01*
X160202539Y-64225246D01*
X160562857Y-64586193D01*
X161033876Y-64781777D01*
X161543887Y-64782222D01*
X162015246Y-64587461D01*
X162376193Y-64227143D01*
X162571777Y-63756124D01*
X162572222Y-63246113D01*
X162377461Y-62774754D01*
X162017143Y-62413807D01*
X161546124Y-62218223D01*
X161036113Y-62217778D01*
X160564754Y-62412539D01*
X160203807Y-62772857D01*
X160008223Y-63243876D01*
X160007778Y-63753887D01*
X158636779Y-63753887D01*
X158637421Y-63019358D01*
X158268710Y-62127011D01*
X157586580Y-61443689D01*
X156694878Y-61073422D01*
X155729358Y-61072579D01*
X154837011Y-61441290D01*
X154153689Y-62123420D01*
X153783422Y-63015122D01*
X153782579Y-63980642D01*
X152952000Y-63980642D01*
X152952000Y-62546434D01*
X153348703Y-62382520D01*
X153820862Y-61911184D01*
X154076708Y-61295039D01*
X154077290Y-60627888D01*
X153822520Y-60011297D01*
X153351184Y-59539138D01*
X152735039Y-59283292D01*
X152067888Y-59282710D01*
X151451297Y-59537480D01*
X150979138Y-60008816D01*
X150723292Y-60624961D01*
X150722710Y-61292112D01*
X150977480Y-61908703D01*
X151286374Y-62218136D01*
X150876113Y-62217778D01*
X150404754Y-62412539D01*
X150043807Y-62772857D01*
X149848223Y-63243876D01*
X149847778Y-63753887D01*
X143521778Y-63753887D01*
X143522222Y-63246113D01*
X143327461Y-62774754D01*
X142967143Y-62413807D01*
X142496124Y-62218223D01*
X141986113Y-62217778D01*
X141514754Y-62412539D01*
X141153807Y-62772857D01*
X140958223Y-63243876D01*
X140957778Y-63753887D01*
X139586779Y-63753887D01*
X139587421Y-63019358D01*
X139218710Y-62127011D01*
X138536580Y-61443689D01*
X137644878Y-61073422D01*
X136679358Y-61072579D01*
X135787011Y-61441290D01*
X135103689Y-62123420D01*
X134733422Y-63015122D01*
X134732579Y-63980642D01*
X133902000Y-63980642D01*
X133902000Y-62546434D01*
X134298703Y-62382520D01*
X134770862Y-61911184D01*
X135026708Y-61295039D01*
X135027290Y-60627888D01*
X134772520Y-60011297D01*
X134301184Y-59539138D01*
X133685039Y-59283292D01*
X133017888Y-59282710D01*
X132401297Y-59537480D01*
X131929138Y-60008816D01*
X131673292Y-60624961D01*
X131672710Y-61292112D01*
X131927480Y-61908703D01*
X132236374Y-62218136D01*
X131826113Y-62217778D01*
X131354754Y-62412539D01*
X130993807Y-62772857D01*
X130798223Y-63243876D01*
X130797778Y-63753887D01*
X124471778Y-63753887D01*
X124472222Y-63246113D01*
X124277461Y-62774754D01*
X123917143Y-62413807D01*
X123446124Y-62218223D01*
X122936113Y-62217778D01*
X122464754Y-62412539D01*
X122103807Y-62772857D01*
X121908223Y-63243876D01*
X121907778Y-63753887D01*
X120536779Y-63753887D01*
X120537421Y-63019358D01*
X120168710Y-62127011D01*
X119486580Y-61443689D01*
X118594878Y-61073422D01*
X117629358Y-61072579D01*
X116737011Y-61441290D01*
X116053689Y-62123420D01*
X115683422Y-63015122D01*
X115682579Y-63980642D01*
X114852000Y-63980642D01*
X114852000Y-62546434D01*
X115248703Y-62382520D01*
X115720862Y-61911184D01*
X115976708Y-61295039D01*
X115977290Y-60627888D01*
X115722520Y-60011297D01*
X115251184Y-59539138D01*
X114635039Y-59283292D01*
X113967888Y-59282710D01*
X113351297Y-59537480D01*
X112879138Y-60008816D01*
X112623292Y-60624961D01*
X112622710Y-61292112D01*
X112877480Y-61908703D01*
X113186374Y-62218136D01*
X112776113Y-62217778D01*
X112304754Y-62412539D01*
X111943807Y-62772857D01*
X111748223Y-63243876D01*
X111747778Y-63753887D01*
X105421778Y-63753887D01*
X105422222Y-63246113D01*
X105227461Y-62774754D01*
X104867143Y-62413807D01*
X104396124Y-62218223D01*
X103886113Y-62217778D01*
X103414754Y-62412539D01*
X103053807Y-62772857D01*
X102858223Y-63243876D01*
X102857778Y-63753887D01*
X101486779Y-63753887D01*
X101487421Y-63019358D01*
X101118710Y-62127011D01*
X100436580Y-61443689D01*
X99544878Y-61073422D01*
X98579358Y-61072579D01*
X97687011Y-61441290D01*
X97003689Y-62123420D01*
X96633422Y-63015122D01*
X96632579Y-63980642D01*
X95802000Y-63980642D01*
X95802000Y-62546434D01*
X96198703Y-62382520D01*
X96670862Y-61911184D01*
X96926708Y-61295039D01*
X96927290Y-60627888D01*
X96672520Y-60011297D01*
X96201184Y-59539138D01*
X95585039Y-59283292D01*
X94917888Y-59282710D01*
X94301297Y-59537480D01*
X93829138Y-60008816D01*
X93573292Y-60624961D01*
X93572710Y-61292112D01*
X93827480Y-61908703D01*
X94136374Y-62218136D01*
X93726113Y-62217778D01*
X93254754Y-62412539D01*
X92893807Y-62772857D01*
X92698223Y-63243876D01*
X92697778Y-63753887D01*
X85468599Y-63753887D01*
X84502174Y-62787462D01*
X84726621Y-62246932D01*
X84727377Y-61380868D01*
X84396647Y-60580440D01*
X83977000Y-60160059D01*
X83977000Y-58752112D01*
X99922710Y-58752112D01*
X100177480Y-59368703D01*
X100648816Y-59840862D01*
X101264961Y-60096708D01*
X101932112Y-60097290D01*
X102548703Y-59842520D01*
X103020862Y-59371184D01*
X103276708Y-58755039D01*
X103276710Y-58752112D01*
X118972710Y-58752112D01*
X119227480Y-59368703D01*
X119698816Y-59840862D01*
X120314961Y-60096708D01*
X120982112Y-60097290D01*
X121598703Y-59842520D01*
X122070862Y-59371184D01*
X122326708Y-58755039D01*
X122326710Y-58752112D01*
X138022710Y-58752112D01*
X138277480Y-59368703D01*
X138748816Y-59840862D01*
X139364961Y-60096708D01*
X140032112Y-60097290D01*
X140648703Y-59842520D01*
X141120862Y-59371184D01*
X141376708Y-58755039D01*
X141376710Y-58752112D01*
X157072710Y-58752112D01*
X157327480Y-59368703D01*
X157798816Y-59840862D01*
X158414961Y-60096708D01*
X159082112Y-60097290D01*
X159698703Y-59842520D01*
X160170862Y-59371184D01*
X160426708Y-58755039D01*
X160427290Y-58087888D01*
X160172520Y-57471297D01*
X159701184Y-56999138D01*
X159085039Y-56743292D01*
X158417888Y-56742710D01*
X157801297Y-56997480D01*
X157329138Y-57468816D01*
X157073292Y-58084961D01*
X157072710Y-58752112D01*
X141376710Y-58752112D01*
X141377290Y-58087888D01*
X141122520Y-57471297D01*
X140651184Y-56999138D01*
X140035039Y-56743292D01*
X139367888Y-56742710D01*
X138751297Y-56997480D01*
X138279138Y-57468816D01*
X138023292Y-58084961D01*
X138022710Y-58752112D01*
X122326710Y-58752112D01*
X122327290Y-58087888D01*
X122072520Y-57471297D01*
X121601184Y-56999138D01*
X120985039Y-56743292D01*
X120317888Y-56742710D01*
X119701297Y-56997480D01*
X119229138Y-57468816D01*
X118973292Y-58084961D01*
X118972710Y-58752112D01*
X103276710Y-58752112D01*
X103277290Y-58087888D01*
X103022520Y-57471297D01*
X102551184Y-56999138D01*
X101935039Y-56743292D01*
X101267888Y-56742710D01*
X100651297Y-56997480D01*
X100179138Y-57468816D01*
X99923292Y-58084961D01*
X99922710Y-58752112D01*
X83977000Y-58752112D01*
X83977000Y-55863548D01*
X84394495Y-55446782D01*
X84616386Y-54912407D01*
X117852735Y-54912407D01*
X118084717Y-55473846D01*
X118513894Y-55903773D01*
X119074928Y-56136735D01*
X119682407Y-56137265D01*
X120243846Y-55905283D01*
X120673773Y-55476106D01*
X120906735Y-54915072D01*
X120906737Y-54912407D01*
X164842735Y-54912407D01*
X165074717Y-55473846D01*
X165503894Y-55903773D01*
X166064928Y-56136735D01*
X166672407Y-56137265D01*
X167233846Y-55905283D01*
X167663773Y-55476106D01*
X167896735Y-54915072D01*
X167897265Y-54307593D01*
X167665283Y-53746154D01*
X167236106Y-53316227D01*
X166675072Y-53083265D01*
X166067593Y-53082735D01*
X165506154Y-53314717D01*
X165076227Y-53743894D01*
X164843265Y-54304928D01*
X164842735Y-54912407D01*
X120906737Y-54912407D01*
X120907265Y-54307593D01*
X120675283Y-53746154D01*
X120246106Y-53316227D01*
X119685072Y-53083265D01*
X119077593Y-53082735D01*
X118516154Y-53314717D01*
X118086227Y-53743894D01*
X117853265Y-54304928D01*
X117852735Y-54912407D01*
X84616386Y-54912407D01*
X84726621Y-54646932D01*
X84727377Y-53780868D01*
X84396647Y-52980440D01*
X83988920Y-52572000D01*
X166320559Y-52572000D01*
X167146144Y-52736219D01*
X167146144Y-52736219D01*
G37*
X167146144Y-52736219D02*
X167804129Y-53175871D01*
X168243781Y-53833855D01*
X168408000Y-54659441D01*
X168408000Y-148540559D01*
X168243781Y-149366145D01*
X167804129Y-150024129D01*
X167146144Y-150463781D01*
X166320559Y-150628000D01*
X84345460Y-150628000D01*
X84357534Y-150615926D01*
X84244530Y-150502922D01*
X84589271Y-150312636D01*
X84940956Y-149431409D01*
X84933960Y-148892407D01*
X117852735Y-148892407D01*
X118084717Y-149453846D01*
X118513894Y-149883773D01*
X119074928Y-150116735D01*
X119682407Y-150117265D01*
X120243846Y-149885283D01*
X120673773Y-149456106D01*
X120906735Y-148895072D01*
X120906737Y-148892407D01*
X164842735Y-148892407D01*
X165074717Y-149453846D01*
X165503894Y-149883773D01*
X166064928Y-150116735D01*
X166672407Y-150117265D01*
X167233846Y-149885283D01*
X167663773Y-149456106D01*
X167896735Y-148895072D01*
X167897265Y-148287593D01*
X167665283Y-147726154D01*
X167236106Y-147296227D01*
X166675072Y-147063265D01*
X166067593Y-147062735D01*
X165506154Y-147294717D01*
X165076227Y-147723894D01*
X164843265Y-148284928D01*
X164842735Y-148892407D01*
X120906737Y-148892407D01*
X120907265Y-148287593D01*
X120675283Y-147726154D01*
X120246106Y-147296227D01*
X119685072Y-147063265D01*
X119077593Y-147062735D01*
X118516154Y-147294717D01*
X118086227Y-147723894D01*
X117853265Y-148284928D01*
X117852735Y-148892407D01*
X84933960Y-148892407D01*
X84928641Y-148482677D01*
X84589271Y-147663364D01*
X84244528Y-147473077D01*
X82729605Y-148988000D01*
X82743748Y-149002143D01*
X82564143Y-149181748D01*
X82550000Y-149167605D01*
X82535858Y-149181748D01*
X82356253Y-149002143D01*
X82370395Y-148988000D01*
X80855472Y-147473077D01*
X80510729Y-147663364D01*
X80159044Y-148544591D01*
X80171359Y-149493323D01*
X80510729Y-150312636D01*
X80855470Y-150502922D01*
X80742466Y-150615926D01*
X80754540Y-150628000D01*
X72439441Y-150628000D01*
X71613855Y-150463781D01*
X70955871Y-150024129D01*
X70516219Y-149366144D01*
X70421987Y-148892407D01*
X70862735Y-148892407D01*
X71094717Y-149453846D01*
X71523894Y-149883773D01*
X72084928Y-150116735D01*
X72692407Y-150117265D01*
X73253846Y-149885283D01*
X73683773Y-149456106D01*
X73916735Y-148895072D01*
X73917265Y-148287593D01*
X73685283Y-147726154D01*
X73256106Y-147296227D01*
X73249472Y-147293472D01*
X81035077Y-147293472D01*
X82550000Y-148808395D01*
X84064923Y-147293472D01*
X83874636Y-146948729D01*
X82993409Y-146597044D01*
X82044677Y-146609359D01*
X81225364Y-146948729D01*
X81035077Y-147293472D01*
X73249472Y-147293472D01*
X72695072Y-147063265D01*
X72087593Y-147062735D01*
X71526154Y-147294717D01*
X71096227Y-147723894D01*
X70863265Y-148284928D01*
X70862735Y-148892407D01*
X70421987Y-148892407D01*
X70352000Y-148540559D01*
X70352000Y-143082528D01*
X81035077Y-143082528D01*
X81225364Y-143427271D01*
X82106591Y-143778956D01*
X83055323Y-143766641D01*
X83874636Y-143427271D01*
X84064923Y-143082528D01*
X82550000Y-141567605D01*
X81035077Y-143082528D01*
X70352000Y-143082528D01*
X70352000Y-140944591D01*
X80159044Y-140944591D01*
X80171359Y-141893323D01*
X80510729Y-142712636D01*
X80855472Y-142902923D01*
X82370395Y-141388000D01*
X82729605Y-141388000D01*
X84244528Y-142902923D01*
X84589271Y-142712636D01*
X84940956Y-141831409D01*
X84928641Y-140882677D01*
X84589271Y-140063364D01*
X84244528Y-139873077D01*
X82729605Y-141388000D01*
X82370395Y-141388000D01*
X80855472Y-139873077D01*
X80510729Y-140063364D01*
X80159044Y-140944591D01*
X70352000Y-140944591D01*
X70352000Y-139693472D01*
X81035077Y-139693472D01*
X82550000Y-141208395D01*
X84064923Y-139693472D01*
X83874636Y-139348729D01*
X82993409Y-138997044D01*
X82044677Y-139009359D01*
X81225364Y-139348729D01*
X81035077Y-139693472D01*
X70352000Y-139693472D01*
X70352000Y-129205275D01*
X71634331Y-129205275D01*
X71696169Y-129441042D01*
X72197122Y-129617419D01*
X72727440Y-129588664D01*
X73083831Y-129441042D01*
X73145669Y-129205275D01*
X72390000Y-128449605D01*
X71634331Y-129205275D01*
X70352000Y-129205275D01*
X70352000Y-128077122D01*
X71042581Y-128077122D01*
X71071336Y-128607440D01*
X71218958Y-128963831D01*
X71454725Y-129025669D01*
X72210395Y-128270000D01*
X72569605Y-128270000D01*
X73325275Y-129025669D01*
X73561042Y-128963831D01*
X73737419Y-128462878D01*
X73708664Y-127932560D01*
X73561042Y-127576169D01*
X73325275Y-127514331D01*
X72569605Y-128270000D01*
X72210395Y-128270000D01*
X71454725Y-127514331D01*
X71218958Y-127576169D01*
X71042581Y-128077122D01*
X70352000Y-128077122D01*
X70352000Y-126665275D01*
X71634331Y-126665275D01*
X71696169Y-126901042D01*
X71954445Y-126991977D01*
X71696169Y-127098958D01*
X71634331Y-127334725D01*
X72390000Y-128090395D01*
X73145669Y-127334725D01*
X73083831Y-127098958D01*
X72825555Y-127008023D01*
X73083831Y-126901042D01*
X73145669Y-126665275D01*
X72390000Y-125909605D01*
X71634331Y-126665275D01*
X70352000Y-126665275D01*
X70352000Y-125537122D01*
X71042581Y-125537122D01*
X71071336Y-126067440D01*
X71218958Y-126423831D01*
X71454725Y-126485669D01*
X72210395Y-125730000D01*
X72569605Y-125730000D01*
X73325275Y-126485669D01*
X73561042Y-126423831D01*
X73737419Y-125922878D01*
X73708664Y-125392560D01*
X73561042Y-125036169D01*
X73325275Y-124974331D01*
X72569605Y-125730000D01*
X72210395Y-125730000D01*
X71454725Y-124974331D01*
X71218958Y-125036169D01*
X71042581Y-125537122D01*
X70352000Y-125537122D01*
X70352000Y-124794725D01*
X71634331Y-124794725D01*
X72390000Y-125550395D01*
X73145669Y-124794725D01*
X73083831Y-124558958D01*
X72582878Y-124382581D01*
X72052560Y-124411336D01*
X71696169Y-124558958D01*
X71634331Y-124794725D01*
X70352000Y-124794725D01*
X70352000Y-123413191D01*
X71262805Y-123413191D01*
X71434019Y-123827560D01*
X71750772Y-124144867D01*
X72164842Y-124316804D01*
X72613191Y-124317195D01*
X73027560Y-124145981D01*
X73344867Y-123829228D01*
X73516804Y-123415158D01*
X73517195Y-122966809D01*
X73345981Y-122552440D01*
X73029228Y-122235133D01*
X72615158Y-122063196D01*
X72166809Y-122062805D01*
X71752440Y-122234019D01*
X71435133Y-122550772D01*
X71263196Y-122964842D01*
X71262805Y-123413191D01*
X70352000Y-123413191D01*
X70352000Y-118333191D01*
X71262805Y-118333191D01*
X71434019Y-118747560D01*
X71750772Y-119064867D01*
X72164842Y-119236804D01*
X72613191Y-119237195D01*
X73027560Y-119065981D01*
X73344867Y-118749228D01*
X73381087Y-118662000D01*
X75565000Y-118662000D01*
X75776242Y-118619982D01*
X75819000Y-118591412D01*
X75819000Y-120098000D01*
X73381334Y-120098000D01*
X73345981Y-120012440D01*
X73029228Y-119695133D01*
X72615158Y-119523196D01*
X72166809Y-119522805D01*
X71752440Y-119694019D01*
X71435133Y-120010772D01*
X71263196Y-120424842D01*
X71262805Y-120873191D01*
X71434019Y-121287560D01*
X71750772Y-121604867D01*
X72164842Y-121776804D01*
X72613191Y-121777195D01*
X73027560Y-121605981D01*
X73344867Y-121289228D01*
X73381087Y-121202000D01*
X76835000Y-121202000D01*
X77046242Y-121159982D01*
X77225323Y-121040323D01*
X80654323Y-117611323D01*
X80773981Y-117432242D01*
X80773982Y-117432241D01*
X80816000Y-117221000D01*
X80816000Y-112432404D01*
X81315218Y-112932495D01*
X82115068Y-113264621D01*
X82981132Y-113265377D01*
X83781560Y-112934647D01*
X84394495Y-112322782D01*
X84726621Y-111522932D01*
X84727377Y-110656868D01*
X84396647Y-109856440D01*
X83977000Y-109436059D01*
X83977000Y-105139548D01*
X84394495Y-104722782D01*
X84726621Y-103922932D01*
X84727377Y-103056868D01*
X84396647Y-102256440D01*
X83977000Y-101836059D01*
X83977000Y-101363548D01*
X84394495Y-100946782D01*
X84726621Y-100146932D01*
X84727377Y-99280868D01*
X84396647Y-98480440D01*
X83977000Y-98060059D01*
X83977000Y-93763548D01*
X84394495Y-93346782D01*
X84726621Y-92546932D01*
X84727377Y-91680868D01*
X84396647Y-90880440D01*
X83784782Y-90267505D01*
X82984932Y-89935379D01*
X82118868Y-89934623D01*
X81318440Y-90265353D01*
X80816000Y-90766916D01*
X80816000Y-82778646D01*
X81855920Y-81738726D01*
X82130778Y-81852856D01*
X82459779Y-81853143D01*
X82763846Y-81727505D01*
X82996688Y-81495070D01*
X83122856Y-81191222D01*
X83123143Y-80862221D01*
X82997505Y-80558154D01*
X82830555Y-80390912D01*
X82996688Y-80225070D01*
X83122856Y-79921222D01*
X83123143Y-79592221D01*
X82997505Y-79288154D01*
X82765070Y-79055312D01*
X82461222Y-78929144D01*
X82132221Y-78928857D01*
X81828154Y-79054495D01*
X81595312Y-79286930D01*
X81499371Y-79517983D01*
X79111677Y-81905677D01*
X78992018Y-82084758D01*
X78992018Y-82084759D01*
X78950000Y-82296000D01*
X78950000Y-113944354D01*
X75336354Y-117558000D01*
X73381334Y-117558000D01*
X73345981Y-117472440D01*
X73029228Y-117155133D01*
X72615158Y-116983196D01*
X72166809Y-116982805D01*
X71752440Y-117154019D01*
X71435133Y-117470772D01*
X71263196Y-117884842D01*
X71262805Y-118333191D01*
X70352000Y-118333191D01*
X70352000Y-115793191D01*
X71262805Y-115793191D01*
X71434019Y-116207560D01*
X71750772Y-116524867D01*
X72164842Y-116696804D01*
X72613191Y-116697195D01*
X73027560Y-116525981D01*
X73344867Y-116209228D01*
X73516804Y-115795158D01*
X73517195Y-115346809D01*
X73345981Y-114932440D01*
X73029228Y-114615133D01*
X72615158Y-114443196D01*
X72166809Y-114442805D01*
X71752440Y-114614019D01*
X71435133Y-114930772D01*
X71263196Y-115344842D01*
X71262805Y-115793191D01*
X70352000Y-115793191D01*
X70352000Y-101902407D01*
X70862735Y-101902407D01*
X71094717Y-102463846D01*
X71523894Y-102893773D01*
X72084928Y-103126735D01*
X72692407Y-103127265D01*
X73253846Y-102895283D01*
X73683773Y-102466106D01*
X73916735Y-101905072D01*
X73917265Y-101297593D01*
X73685283Y-100736154D01*
X73256106Y-100306227D01*
X72695072Y-100073265D01*
X72087593Y-100072735D01*
X71526154Y-100304717D01*
X71096227Y-100733894D01*
X70863265Y-101294928D01*
X70862735Y-101902407D01*
X70352000Y-101902407D01*
X70352000Y-93564655D01*
X70407927Y-93651567D01*
X70550619Y-93749064D01*
X70720000Y-93783365D01*
X71520000Y-93783365D01*
X71678237Y-93753591D01*
X71823567Y-93660073D01*
X71921064Y-93517381D01*
X71944835Y-93400000D01*
X71998000Y-93400000D01*
X72209242Y-93357982D01*
X72388323Y-93238323D01*
X73542323Y-92084323D01*
X73574660Y-92035927D01*
X73616000Y-91974058D01*
X73616000Y-93980000D01*
X73658018Y-94191242D01*
X73777677Y-94370323D01*
X74886000Y-95478646D01*
X74886000Y-106197354D01*
X73685354Y-107398000D01*
X73381334Y-107398000D01*
X73345981Y-107312440D01*
X73029228Y-106995133D01*
X72615158Y-106823196D01*
X72166809Y-106822805D01*
X71752440Y-106994019D01*
X71435133Y-107310772D01*
X71263196Y-107724842D01*
X71262805Y-108173191D01*
X71434019Y-108587560D01*
X71750772Y-108904867D01*
X72164842Y-109076804D01*
X72613191Y-109077195D01*
X73027560Y-108905981D01*
X73344867Y-108589228D01*
X73381087Y-108502000D01*
X73914000Y-108502000D01*
X74125242Y-108459982D01*
X74304323Y-108340323D01*
X74549000Y-108095646D01*
X74549000Y-109220000D01*
X74557685Y-109266159D01*
X74578636Y-109298718D01*
X73939354Y-109938000D01*
X73381334Y-109938000D01*
X73345981Y-109852440D01*
X73029228Y-109535133D01*
X72615158Y-109363196D01*
X72166809Y-109362805D01*
X71752440Y-109534019D01*
X71435133Y-109850772D01*
X71263196Y-110264842D01*
X71262805Y-110713191D01*
X71434019Y-111127560D01*
X71750772Y-111444867D01*
X72164842Y-111616804D01*
X72613191Y-111617195D01*
X73027560Y-111445981D01*
X73344867Y-111129228D01*
X73381087Y-111042000D01*
X74168000Y-111042000D01*
X74379242Y-110999982D01*
X74558323Y-110880323D01*
X76590323Y-108848323D01*
X76709982Y-108669242D01*
X76752000Y-108458000D01*
X76752000Y-94742000D01*
X76709982Y-94530759D01*
X76709982Y-94530758D01*
X76590323Y-94351677D01*
X76129585Y-93890939D01*
X76383583Y-93891161D01*
X76724417Y-93750331D01*
X76985414Y-93489789D01*
X77126839Y-93149201D01*
X77127161Y-92780417D01*
X76986331Y-92439583D01*
X76827000Y-92279974D01*
X76827000Y-83571712D01*
X82993356Y-77405356D01*
X83129272Y-77201943D01*
X83177000Y-76962000D01*
X83177000Y-63908446D01*
X83653039Y-63711751D01*
X85479000Y-65537712D01*
X85479000Y-69674073D01*
X85320586Y-69832211D01*
X85179161Y-70172799D01*
X85178839Y-70541583D01*
X85319669Y-70882417D01*
X85580211Y-71143414D01*
X85920799Y-71284839D01*
X86289583Y-71285161D01*
X86630417Y-71144331D01*
X86891414Y-70883789D01*
X87032839Y-70543201D01*
X87033161Y-70174417D01*
X86892331Y-69833583D01*
X86733000Y-69673974D01*
X86733000Y-65278000D01*
X86685272Y-65038057D01*
X86549356Y-64834644D01*
X85468599Y-63753887D01*
X92697778Y-63753887D01*
X92892539Y-64225246D01*
X93252857Y-64586193D01*
X93723876Y-64781777D01*
X94233887Y-64782222D01*
X94698000Y-64590455D01*
X94698000Y-64770000D01*
X94740018Y-64981242D01*
X94859677Y-65160323D01*
X95968000Y-66268646D01*
X95968000Y-78492311D01*
X95585039Y-78333292D01*
X94917888Y-78332710D01*
X94301297Y-78587480D01*
X93829138Y-79058816D01*
X93573292Y-79674961D01*
X93572710Y-80342112D01*
X93827480Y-80958703D01*
X94136374Y-81268136D01*
X93726113Y-81267778D01*
X93254754Y-81462539D01*
X92893807Y-81822857D01*
X92698223Y-82293876D01*
X92697778Y-82803887D01*
X92892539Y-83275246D01*
X93252857Y-83636193D01*
X93723876Y-83831777D01*
X94233887Y-83832222D01*
X94698000Y-83640455D01*
X94698000Y-97473566D01*
X94301297Y-97637480D01*
X93829138Y-98108816D01*
X93573292Y-98724961D01*
X93572710Y-99392112D01*
X93827480Y-100008703D01*
X94136374Y-100318136D01*
X93726113Y-100317778D01*
X93254754Y-100512539D01*
X92893807Y-100872857D01*
X92698223Y-101343876D01*
X92697778Y-101853887D01*
X92892539Y-102325246D01*
X93252857Y-102686193D01*
X93723876Y-102881777D01*
X94233887Y-102882222D01*
X94698000Y-102690455D01*
X94698000Y-116523566D01*
X94301297Y-116687480D01*
X93829138Y-117158816D01*
X93573292Y-117774961D01*
X93572710Y-118442112D01*
X93827480Y-119058703D01*
X94136374Y-119368136D01*
X93726113Y-119367778D01*
X93254754Y-119562539D01*
X92893807Y-119922857D01*
X92698223Y-120393876D01*
X92697778Y-120903887D01*
X92892539Y-121375246D01*
X93252857Y-121736193D01*
X93723876Y-121931777D01*
X94233887Y-121932222D01*
X94698000Y-121740455D01*
X94698000Y-135573566D01*
X94301297Y-135737480D01*
X93829138Y-136208816D01*
X93573292Y-136824961D01*
X93572710Y-137492112D01*
X93827480Y-138108703D01*
X94136374Y-138418136D01*
X93726113Y-138417778D01*
X93254754Y-138612539D01*
X92893807Y-138972857D01*
X92698223Y-139443876D01*
X92697778Y-139953887D01*
X92892539Y-140425246D01*
X93252857Y-140786193D01*
X93723876Y-140981777D01*
X94233887Y-140982222D01*
X94705246Y-140787461D01*
X95066193Y-140427143D01*
X95168549Y-140180642D01*
X96632579Y-140180642D01*
X97001290Y-141072989D01*
X97683420Y-141756311D01*
X98575122Y-142126578D01*
X99540642Y-142127421D01*
X100432989Y-141758710D01*
X101116311Y-141076580D01*
X101486578Y-140184878D01*
X101486779Y-139953887D01*
X102857778Y-139953887D01*
X103052539Y-140425246D01*
X103412857Y-140786193D01*
X103883876Y-140981777D01*
X104393887Y-140982222D01*
X104865246Y-140787461D01*
X105226193Y-140427143D01*
X105421777Y-139956124D01*
X105422222Y-139446113D01*
X105227461Y-138974754D01*
X104867143Y-138613807D01*
X104396124Y-138418223D01*
X103886113Y-138417778D01*
X103414754Y-138612539D01*
X103053807Y-138972857D01*
X102858223Y-139443876D01*
X102857778Y-139953887D01*
X101486779Y-139953887D01*
X101487421Y-139219358D01*
X101118710Y-138327011D01*
X100436580Y-137643689D01*
X99544878Y-137273422D01*
X98579358Y-137272579D01*
X97687011Y-137641290D01*
X97003689Y-138323420D01*
X96633422Y-139215122D01*
X96632579Y-140180642D01*
X95168549Y-140180642D01*
X95261777Y-139956124D01*
X95262222Y-139446113D01*
X95067461Y-138974754D01*
X94929668Y-138836721D01*
X95582112Y-138837290D01*
X96198703Y-138582520D01*
X96670862Y-138111184D01*
X96926708Y-137495039D01*
X96927290Y-136827888D01*
X96672520Y-136211297D01*
X96201184Y-135739138D01*
X95802000Y-135573382D01*
X95802000Y-134952112D01*
X99922710Y-134952112D01*
X100177480Y-135568703D01*
X100648816Y-136040862D01*
X101264961Y-136296708D01*
X101932112Y-136297290D01*
X102548703Y-136042520D01*
X103020862Y-135571184D01*
X103276708Y-134955039D01*
X103277290Y-134287888D01*
X103022520Y-133671297D01*
X102551184Y-133199138D01*
X101935039Y-132943292D01*
X101267888Y-132942710D01*
X100651297Y-133197480D01*
X100179138Y-133668816D01*
X99923292Y-134284961D01*
X99922710Y-134952112D01*
X95802000Y-134952112D01*
X95802000Y-121130642D01*
X96632579Y-121130642D01*
X97001290Y-122022989D01*
X97683420Y-122706311D01*
X98575122Y-123076578D01*
X99540642Y-123077421D01*
X100432989Y-122708710D01*
X101116311Y-122026580D01*
X101486578Y-121134878D01*
X101486779Y-120903887D01*
X102857778Y-120903887D01*
X103052539Y-121375246D01*
X103412857Y-121736193D01*
X103883876Y-121931777D01*
X104393887Y-121932222D01*
X104865246Y-121737461D01*
X105226193Y-121377143D01*
X105421777Y-120906124D01*
X105422222Y-120396113D01*
X105227461Y-119924754D01*
X104867143Y-119563807D01*
X104396124Y-119368223D01*
X103886113Y-119367778D01*
X103414754Y-119562539D01*
X103053807Y-119922857D01*
X102858223Y-120393876D01*
X102857778Y-120903887D01*
X101486779Y-120903887D01*
X101487421Y-120169358D01*
X101118710Y-119277011D01*
X100436580Y-118593689D01*
X99544878Y-118223422D01*
X98579358Y-118222579D01*
X97687011Y-118591290D01*
X97003689Y-119273420D01*
X96633422Y-120165122D01*
X96632579Y-121130642D01*
X95802000Y-121130642D01*
X95802000Y-119696434D01*
X96198703Y-119532520D01*
X96670862Y-119061184D01*
X96926708Y-118445039D01*
X96927290Y-117777888D01*
X96672520Y-117161297D01*
X96201184Y-116689138D01*
X95802000Y-116523382D01*
X95802000Y-115902112D01*
X99922710Y-115902112D01*
X100177480Y-116518703D01*
X100648816Y-116990862D01*
X101264961Y-117246708D01*
X101932112Y-117247290D01*
X102548703Y-116992520D01*
X103020862Y-116521184D01*
X103276708Y-115905039D01*
X103277290Y-115237888D01*
X103022520Y-114621297D01*
X102551184Y-114149138D01*
X101935039Y-113893292D01*
X101267888Y-113892710D01*
X100651297Y-114147480D01*
X100179138Y-114618816D01*
X99923292Y-115234961D01*
X99922710Y-115902112D01*
X95802000Y-115902112D01*
X95802000Y-102080642D01*
X96632579Y-102080642D01*
X97001290Y-102972989D01*
X97683420Y-103656311D01*
X98575122Y-104026578D01*
X99540642Y-104027421D01*
X100432989Y-103658710D01*
X101116311Y-102976580D01*
X101486578Y-102084878D01*
X101486779Y-101853887D01*
X102857778Y-101853887D01*
X103052539Y-102325246D01*
X103412857Y-102686193D01*
X103883876Y-102881777D01*
X104393887Y-102882222D01*
X104865246Y-102687461D01*
X105226193Y-102327143D01*
X105421777Y-101856124D01*
X105422222Y-101346113D01*
X105227461Y-100874754D01*
X104867143Y-100513807D01*
X104396124Y-100318223D01*
X103886113Y-100317778D01*
X103414754Y-100512539D01*
X103053807Y-100872857D01*
X102858223Y-101343876D01*
X102857778Y-101853887D01*
X101486779Y-101853887D01*
X101487421Y-101119358D01*
X101118710Y-100227011D01*
X100436580Y-99543689D01*
X99544878Y-99173422D01*
X98579358Y-99172579D01*
X97687011Y-99541290D01*
X97003689Y-100223420D01*
X96633422Y-101115122D01*
X96632579Y-102080642D01*
X95802000Y-102080642D01*
X95802000Y-100646434D01*
X96198703Y-100482520D01*
X96670862Y-100011184D01*
X96926708Y-99395039D01*
X96927290Y-98727888D01*
X96672520Y-98111297D01*
X96201184Y-97639138D01*
X95802000Y-97473382D01*
X95802000Y-96852112D01*
X99922710Y-96852112D01*
X100177480Y-97468703D01*
X100648816Y-97940862D01*
X101264961Y-98196708D01*
X101932112Y-98197290D01*
X102548703Y-97942520D01*
X103020862Y-97471184D01*
X103276708Y-96855039D01*
X103277290Y-96187888D01*
X103022520Y-95571297D01*
X102551184Y-95099138D01*
X101935039Y-94843292D01*
X101267888Y-94842710D01*
X100651297Y-95097480D01*
X100179138Y-95568816D01*
X99923292Y-96184961D01*
X99922710Y-96852112D01*
X95802000Y-96852112D01*
X95802000Y-83030642D01*
X96632579Y-83030642D01*
X97001290Y-83922989D01*
X97683420Y-84606311D01*
X98575122Y-84976578D01*
X99540642Y-84977421D01*
X100432989Y-84608710D01*
X101116311Y-83926580D01*
X101486578Y-83034878D01*
X101486779Y-82803887D01*
X102857778Y-82803887D01*
X103052539Y-83275246D01*
X103412857Y-83636193D01*
X103883876Y-83831777D01*
X104393887Y-83832222D01*
X104865246Y-83637461D01*
X105226193Y-83277143D01*
X105421777Y-82806124D01*
X105422222Y-82296113D01*
X105227461Y-81824754D01*
X104867143Y-81463807D01*
X104396124Y-81268223D01*
X103886113Y-81267778D01*
X103414754Y-81462539D01*
X103053807Y-81822857D01*
X102858223Y-82293876D01*
X102857778Y-82803887D01*
X101486779Y-82803887D01*
X101487421Y-82069358D01*
X101118710Y-81177011D01*
X100436580Y-80493689D01*
X99544878Y-80123422D01*
X98579358Y-80122579D01*
X97687011Y-80491290D01*
X97003689Y-81173420D01*
X96633422Y-82065122D01*
X96632579Y-83030642D01*
X95802000Y-83030642D01*
X95802000Y-81596434D01*
X96198703Y-81432520D01*
X96670862Y-80961184D01*
X96926708Y-80345039D01*
X96927236Y-79740011D01*
X97029982Y-79586242D01*
X97072000Y-79375000D01*
X97072000Y-77802112D01*
X99922710Y-77802112D01*
X100177480Y-78418703D01*
X100648816Y-78890862D01*
X101264961Y-79146708D01*
X101932112Y-79147290D01*
X102548703Y-78892520D01*
X103020862Y-78421184D01*
X103276708Y-77805039D01*
X103277290Y-77137888D01*
X103022520Y-76521297D01*
X102551184Y-76049138D01*
X101935039Y-75793292D01*
X101267888Y-75792710D01*
X100651297Y-76047480D01*
X100179138Y-76518816D01*
X99923292Y-77134961D01*
X99922710Y-77802112D01*
X97072000Y-77802112D01*
X97072000Y-66040000D01*
X97029982Y-65828759D01*
X97029982Y-65828758D01*
X96910323Y-65649677D01*
X95802000Y-64541354D01*
X95802000Y-63980642D01*
X96632579Y-63980642D01*
X97001290Y-64872989D01*
X97683420Y-65556311D01*
X98575122Y-65926578D01*
X99540642Y-65927421D01*
X100432989Y-65558710D01*
X101116311Y-64876580D01*
X101486578Y-63984878D01*
X101486779Y-63753887D01*
X102857778Y-63753887D01*
X103052539Y-64225246D01*
X103412857Y-64586193D01*
X103883876Y-64781777D01*
X104393887Y-64782222D01*
X104865246Y-64587461D01*
X105226193Y-64227143D01*
X105421777Y-63756124D01*
X105421778Y-63753887D01*
X111747778Y-63753887D01*
X111942539Y-64225246D01*
X112302857Y-64586193D01*
X112773876Y-64781777D01*
X113283887Y-64782222D01*
X113748000Y-64590455D01*
X113748000Y-78423566D01*
X113351297Y-78587480D01*
X112879138Y-79058816D01*
X112623292Y-79674961D01*
X112622710Y-80342112D01*
X112877480Y-80958703D01*
X113186374Y-81268136D01*
X112776113Y-81267778D01*
X112304754Y-81462539D01*
X111943807Y-81822857D01*
X111748223Y-82293876D01*
X111747778Y-82803887D01*
X111942539Y-83275246D01*
X112302857Y-83636193D01*
X112773876Y-83831777D01*
X113283887Y-83832222D01*
X113748000Y-83640455D01*
X113748000Y-97473566D01*
X113351297Y-97637480D01*
X112879138Y-98108816D01*
X112623292Y-98724961D01*
X112622710Y-99392112D01*
X112877480Y-100008703D01*
X113186374Y-100318136D01*
X112776113Y-100317778D01*
X112304754Y-100512539D01*
X111943807Y-100872857D01*
X111748223Y-101343876D01*
X111747778Y-101853887D01*
X111942539Y-102325246D01*
X112302857Y-102686193D01*
X112773876Y-102881777D01*
X113283887Y-102882222D01*
X113748000Y-102690455D01*
X113748000Y-116523566D01*
X113351297Y-116687480D01*
X112879138Y-117158816D01*
X112623292Y-117774961D01*
X112622710Y-118442112D01*
X112877480Y-119058703D01*
X113186374Y-119368136D01*
X112776113Y-119367778D01*
X112304754Y-119562539D01*
X111943807Y-119922857D01*
X111748223Y-120393876D01*
X111747778Y-120903887D01*
X111942539Y-121375246D01*
X112302857Y-121736193D01*
X112773876Y-121931777D01*
X113283887Y-121932222D01*
X113748000Y-121740455D01*
X113748000Y-135573566D01*
X113351297Y-135737480D01*
X112879138Y-136208816D01*
X112623292Y-136824961D01*
X112622710Y-137492112D01*
X112877480Y-138108703D01*
X113186374Y-138418136D01*
X112776113Y-138417778D01*
X112304754Y-138612539D01*
X111943807Y-138972857D01*
X111748223Y-139443876D01*
X111747778Y-139953887D01*
X111942539Y-140425246D01*
X112302857Y-140786193D01*
X112773876Y-140981777D01*
X113283887Y-140982222D01*
X113755246Y-140787461D01*
X114116193Y-140427143D01*
X114218549Y-140180642D01*
X115682579Y-140180642D01*
X116051290Y-141072989D01*
X116733420Y-141756311D01*
X117625122Y-142126578D01*
X118590642Y-142127421D01*
X119482989Y-141758710D01*
X120166311Y-141076580D01*
X120536578Y-140184878D01*
X120536779Y-139953887D01*
X121907778Y-139953887D01*
X122102539Y-140425246D01*
X122462857Y-140786193D01*
X122933876Y-140981777D01*
X123443887Y-140982222D01*
X123915246Y-140787461D01*
X124276193Y-140427143D01*
X124471777Y-139956124D01*
X124472222Y-139446113D01*
X124277461Y-138974754D01*
X123917143Y-138613807D01*
X123446124Y-138418223D01*
X122936113Y-138417778D01*
X122464754Y-138612539D01*
X122103807Y-138972857D01*
X121908223Y-139443876D01*
X121907778Y-139953887D01*
X120536779Y-139953887D01*
X120537421Y-139219358D01*
X120168710Y-138327011D01*
X119486580Y-137643689D01*
X118594878Y-137273422D01*
X117629358Y-137272579D01*
X116737011Y-137641290D01*
X116053689Y-138323420D01*
X115683422Y-139215122D01*
X115682579Y-140180642D01*
X114218549Y-140180642D01*
X114311777Y-139956124D01*
X114312222Y-139446113D01*
X114117461Y-138974754D01*
X113979668Y-138836721D01*
X114632112Y-138837290D01*
X115248703Y-138582520D01*
X115720862Y-138111184D01*
X115976708Y-137495039D01*
X115977290Y-136827888D01*
X115722520Y-136211297D01*
X115251184Y-135739138D01*
X114852000Y-135573382D01*
X114852000Y-134952112D01*
X118972710Y-134952112D01*
X119227480Y-135568703D01*
X119698816Y-136040862D01*
X120314961Y-136296708D01*
X120982112Y-136297290D01*
X121598703Y-136042520D01*
X122070862Y-135571184D01*
X122326708Y-134955039D01*
X122327290Y-134287888D01*
X122072520Y-133671297D01*
X121601184Y-133199138D01*
X120985039Y-132943292D01*
X120317888Y-132942710D01*
X119701297Y-133197480D01*
X119229138Y-133668816D01*
X118973292Y-134284961D01*
X118972710Y-134952112D01*
X114852000Y-134952112D01*
X114852000Y-121130642D01*
X115682579Y-121130642D01*
X116051290Y-122022989D01*
X116733420Y-122706311D01*
X117625122Y-123076578D01*
X118590642Y-123077421D01*
X119482989Y-122708710D01*
X120166311Y-122026580D01*
X120536578Y-121134878D01*
X120536779Y-120903887D01*
X121907778Y-120903887D01*
X122102539Y-121375246D01*
X122462857Y-121736193D01*
X122933876Y-121931777D01*
X123443887Y-121932222D01*
X123915246Y-121737461D01*
X124276193Y-121377143D01*
X124471777Y-120906124D01*
X124472222Y-120396113D01*
X124277461Y-119924754D01*
X123917143Y-119563807D01*
X123446124Y-119368223D01*
X122936113Y-119367778D01*
X122464754Y-119562539D01*
X122103807Y-119922857D01*
X121908223Y-120393876D01*
X121907778Y-120903887D01*
X120536779Y-120903887D01*
X120537421Y-120169358D01*
X120168710Y-119277011D01*
X119486580Y-118593689D01*
X118594878Y-118223422D01*
X117629358Y-118222579D01*
X116737011Y-118591290D01*
X116053689Y-119273420D01*
X115683422Y-120165122D01*
X115682579Y-121130642D01*
X114852000Y-121130642D01*
X114852000Y-119696434D01*
X115248703Y-119532520D01*
X115720862Y-119061184D01*
X115976708Y-118445039D01*
X115977290Y-117777888D01*
X115722520Y-117161297D01*
X115251184Y-116689138D01*
X114852000Y-116523382D01*
X114852000Y-115902112D01*
X118972710Y-115902112D01*
X119227480Y-116518703D01*
X119698816Y-116990862D01*
X120314961Y-117246708D01*
X120982112Y-117247290D01*
X121598703Y-116992520D01*
X122070862Y-116521184D01*
X122326708Y-115905039D01*
X122327290Y-115237888D01*
X122072520Y-114621297D01*
X121601184Y-114149138D01*
X120985039Y-113893292D01*
X120317888Y-113892710D01*
X119701297Y-114147480D01*
X119229138Y-114618816D01*
X118973292Y-115234961D01*
X118972710Y-115902112D01*
X114852000Y-115902112D01*
X114852000Y-102080642D01*
X115682579Y-102080642D01*
X116051290Y-102972989D01*
X116733420Y-103656311D01*
X117625122Y-104026578D01*
X118590642Y-104027421D01*
X119482989Y-103658710D01*
X120166311Y-102976580D01*
X120536578Y-102084878D01*
X120536779Y-101853887D01*
X121907778Y-101853887D01*
X122102539Y-102325246D01*
X122462857Y-102686193D01*
X122933876Y-102881777D01*
X123443887Y-102882222D01*
X123915246Y-102687461D01*
X124276193Y-102327143D01*
X124471777Y-101856124D01*
X124472222Y-101346113D01*
X124277461Y-100874754D01*
X123917143Y-100513807D01*
X123446124Y-100318223D01*
X122936113Y-100317778D01*
X122464754Y-100512539D01*
X122103807Y-100872857D01*
X121908223Y-101343876D01*
X121907778Y-101853887D01*
X120536779Y-101853887D01*
X120537421Y-101119358D01*
X120168710Y-100227011D01*
X119486580Y-99543689D01*
X118594878Y-99173422D01*
X117629358Y-99172579D01*
X116737011Y-99541290D01*
X116053689Y-100223420D01*
X115683422Y-101115122D01*
X115682579Y-102080642D01*
X114852000Y-102080642D01*
X114852000Y-100646434D01*
X115248703Y-100482520D01*
X115720862Y-100011184D01*
X115976708Y-99395039D01*
X115977290Y-98727888D01*
X115722520Y-98111297D01*
X115251184Y-97639138D01*
X114852000Y-97473382D01*
X114852000Y-96852112D01*
X118972710Y-96852112D01*
X119227480Y-97468703D01*
X119698816Y-97940862D01*
X120314961Y-98196708D01*
X120982112Y-98197290D01*
X121598703Y-97942520D01*
X122070862Y-97471184D01*
X122326708Y-96855039D01*
X122327290Y-96187888D01*
X122072520Y-95571297D01*
X121601184Y-95099138D01*
X120985039Y-94843292D01*
X120317888Y-94842710D01*
X119701297Y-95097480D01*
X119229138Y-95568816D01*
X118973292Y-96184961D01*
X118972710Y-96852112D01*
X114852000Y-96852112D01*
X114852000Y-83030642D01*
X115682579Y-83030642D01*
X116051290Y-83922989D01*
X116733420Y-84606311D01*
X117625122Y-84976578D01*
X118590642Y-84977421D01*
X119482989Y-84608710D01*
X120166311Y-83926580D01*
X120536578Y-83034878D01*
X120536779Y-82803887D01*
X121907778Y-82803887D01*
X122102539Y-83275246D01*
X122462857Y-83636193D01*
X122933876Y-83831777D01*
X123443887Y-83832222D01*
X123915246Y-83637461D01*
X124276193Y-83277143D01*
X124471777Y-82806124D01*
X124472222Y-82296113D01*
X124277461Y-81824754D01*
X123917143Y-81463807D01*
X123446124Y-81268223D01*
X122936113Y-81267778D01*
X122464754Y-81462539D01*
X122103807Y-81822857D01*
X121908223Y-82293876D01*
X121907778Y-82803887D01*
X120536779Y-82803887D01*
X120537421Y-82069358D01*
X120168710Y-81177011D01*
X119486580Y-80493689D01*
X118594878Y-80123422D01*
X117629358Y-80122579D01*
X116737011Y-80491290D01*
X116053689Y-81173420D01*
X115683422Y-82065122D01*
X115682579Y-83030642D01*
X114852000Y-83030642D01*
X114852000Y-81596434D01*
X115248703Y-81432520D01*
X115720862Y-80961184D01*
X115976708Y-80345039D01*
X115977290Y-79677888D01*
X115722520Y-79061297D01*
X115251184Y-78589138D01*
X114852000Y-78423382D01*
X114852000Y-77802112D01*
X118972710Y-77802112D01*
X119227480Y-78418703D01*
X119698816Y-78890862D01*
X120314961Y-79146708D01*
X120982112Y-79147290D01*
X121598703Y-78892520D01*
X122070862Y-78421184D01*
X122326708Y-77805039D01*
X122327290Y-77137888D01*
X122072520Y-76521297D01*
X121601184Y-76049138D01*
X120985039Y-75793292D01*
X120317888Y-75792710D01*
X119701297Y-76047480D01*
X119229138Y-76518816D01*
X118973292Y-77134961D01*
X118972710Y-77802112D01*
X114852000Y-77802112D01*
X114852000Y-63980642D01*
X115682579Y-63980642D01*
X116051290Y-64872989D01*
X116733420Y-65556311D01*
X117625122Y-65926578D01*
X118590642Y-65927421D01*
X119482989Y-65558710D01*
X120166311Y-64876580D01*
X120536578Y-63984878D01*
X120536779Y-63753887D01*
X121907778Y-63753887D01*
X122102539Y-64225246D01*
X122462857Y-64586193D01*
X122933876Y-64781777D01*
X123443887Y-64782222D01*
X123915246Y-64587461D01*
X124276193Y-64227143D01*
X124471777Y-63756124D01*
X124471778Y-63753887D01*
X130797778Y-63753887D01*
X130992539Y-64225246D01*
X131352857Y-64586193D01*
X131823876Y-64781777D01*
X132333887Y-64782222D01*
X132798000Y-64590455D01*
X132798000Y-78423566D01*
X132401297Y-78587480D01*
X131929138Y-79058816D01*
X131673292Y-79674961D01*
X131672710Y-80342112D01*
X131927480Y-80958703D01*
X132236374Y-81268136D01*
X131826113Y-81267778D01*
X131354754Y-81462539D01*
X130993807Y-81822857D01*
X130798223Y-82293876D01*
X130797778Y-82803887D01*
X130992539Y-83275246D01*
X131352857Y-83636193D01*
X131823876Y-83831777D01*
X132333887Y-83832222D01*
X132798000Y-83640455D01*
X132798000Y-97473566D01*
X132401297Y-97637480D01*
X131929138Y-98108816D01*
X131673292Y-98724961D01*
X131672710Y-99392112D01*
X131927480Y-100008703D01*
X132236374Y-100318136D01*
X131826113Y-100317778D01*
X131354754Y-100512539D01*
X130993807Y-100872857D01*
X130798223Y-101343876D01*
X130797778Y-101853887D01*
X130992539Y-102325246D01*
X131352857Y-102686193D01*
X131823876Y-102881777D01*
X132333887Y-102882222D01*
X132798000Y-102690455D01*
X132798000Y-116523566D01*
X132401297Y-116687480D01*
X131929138Y-117158816D01*
X131673292Y-117774961D01*
X131672710Y-118442112D01*
X131927480Y-119058703D01*
X132236374Y-119368136D01*
X131826113Y-119367778D01*
X131354754Y-119562539D01*
X130993807Y-119922857D01*
X130798223Y-120393876D01*
X130797778Y-120903887D01*
X130992539Y-121375246D01*
X131352857Y-121736193D01*
X131823876Y-121931777D01*
X132333887Y-121932222D01*
X132798000Y-121740455D01*
X132798000Y-135573566D01*
X132401297Y-135737480D01*
X131929138Y-136208816D01*
X131673292Y-136824961D01*
X131672710Y-137492112D01*
X131927480Y-138108703D01*
X132236374Y-138418136D01*
X131826113Y-138417778D01*
X131354754Y-138612539D01*
X130993807Y-138972857D01*
X130798223Y-139443876D01*
X130797778Y-139953887D01*
X130992539Y-140425246D01*
X131352857Y-140786193D01*
X131823876Y-140981777D01*
X132333887Y-140982222D01*
X132805246Y-140787461D01*
X133166193Y-140427143D01*
X133268549Y-140180642D01*
X134732579Y-140180642D01*
X135101290Y-141072989D01*
X135783420Y-141756311D01*
X136675122Y-142126578D01*
X137640642Y-142127421D01*
X138532989Y-141758710D01*
X139216311Y-141076580D01*
X139586578Y-140184878D01*
X139586779Y-139953887D01*
X140957778Y-139953887D01*
X141152539Y-140425246D01*
X141512857Y-140786193D01*
X141983876Y-140981777D01*
X142493887Y-140982222D01*
X142965246Y-140787461D01*
X143326193Y-140427143D01*
X143521777Y-139956124D01*
X143522222Y-139446113D01*
X143327461Y-138974754D01*
X142967143Y-138613807D01*
X142496124Y-138418223D01*
X141986113Y-138417778D01*
X141514754Y-138612539D01*
X141153807Y-138972857D01*
X140958223Y-139443876D01*
X140957778Y-139953887D01*
X139586779Y-139953887D01*
X139587421Y-139219358D01*
X139218710Y-138327011D01*
X138536580Y-137643689D01*
X137644878Y-137273422D01*
X136679358Y-137272579D01*
X135787011Y-137641290D01*
X135103689Y-138323420D01*
X134733422Y-139215122D01*
X134732579Y-140180642D01*
X133268549Y-140180642D01*
X133361777Y-139956124D01*
X133362222Y-139446113D01*
X133167461Y-138974754D01*
X133029668Y-138836721D01*
X133682112Y-138837290D01*
X134298703Y-138582520D01*
X134770862Y-138111184D01*
X135026708Y-137495039D01*
X135027290Y-136827888D01*
X134772520Y-136211297D01*
X134301184Y-135739138D01*
X133902000Y-135573382D01*
X133902000Y-134952112D01*
X138022710Y-134952112D01*
X138277480Y-135568703D01*
X138748816Y-136040862D01*
X139364961Y-136296708D01*
X140032112Y-136297290D01*
X140648703Y-136042520D01*
X141120862Y-135571184D01*
X141376708Y-134955039D01*
X141377290Y-134287888D01*
X141122520Y-133671297D01*
X140651184Y-133199138D01*
X140035039Y-132943292D01*
X139367888Y-132942710D01*
X138751297Y-133197480D01*
X138279138Y-133668816D01*
X138023292Y-134284961D01*
X138022710Y-134952112D01*
X133902000Y-134952112D01*
X133902000Y-121130642D01*
X134732579Y-121130642D01*
X135101290Y-122022989D01*
X135783420Y-122706311D01*
X136675122Y-123076578D01*
X137640642Y-123077421D01*
X138532989Y-122708710D01*
X139216311Y-122026580D01*
X139586578Y-121134878D01*
X139586779Y-120903887D01*
X140957778Y-120903887D01*
X141152539Y-121375246D01*
X141512857Y-121736193D01*
X141983876Y-121931777D01*
X142493887Y-121932222D01*
X142965246Y-121737461D01*
X143326193Y-121377143D01*
X143521777Y-120906124D01*
X143522222Y-120396113D01*
X143327461Y-119924754D01*
X142967143Y-119563807D01*
X142496124Y-119368223D01*
X141986113Y-119367778D01*
X141514754Y-119562539D01*
X141153807Y-119922857D01*
X140958223Y-120393876D01*
X140957778Y-120903887D01*
X139586779Y-120903887D01*
X139587421Y-120169358D01*
X139218710Y-119277011D01*
X138536580Y-118593689D01*
X137644878Y-118223422D01*
X136679358Y-118222579D01*
X135787011Y-118591290D01*
X135103689Y-119273420D01*
X134733422Y-120165122D01*
X134732579Y-121130642D01*
X133902000Y-121130642D01*
X133902000Y-119696434D01*
X134298703Y-119532520D01*
X134770862Y-119061184D01*
X135026708Y-118445039D01*
X135027290Y-117777888D01*
X134772520Y-117161297D01*
X134301184Y-116689138D01*
X133902000Y-116523382D01*
X133902000Y-115902112D01*
X138022710Y-115902112D01*
X138277480Y-116518703D01*
X138748816Y-116990862D01*
X139364961Y-117246708D01*
X140032112Y-117247290D01*
X140648703Y-116992520D01*
X141120862Y-116521184D01*
X141376708Y-115905039D01*
X141377290Y-115237888D01*
X141122520Y-114621297D01*
X140651184Y-114149138D01*
X140035039Y-113893292D01*
X139367888Y-113892710D01*
X138751297Y-114147480D01*
X138279138Y-114618816D01*
X138023292Y-115234961D01*
X138022710Y-115902112D01*
X133902000Y-115902112D01*
X133902000Y-102080642D01*
X134732579Y-102080642D01*
X135101290Y-102972989D01*
X135783420Y-103656311D01*
X136675122Y-104026578D01*
X137640642Y-104027421D01*
X138532989Y-103658710D01*
X139216311Y-102976580D01*
X139586578Y-102084878D01*
X139586779Y-101853887D01*
X140957778Y-101853887D01*
X141152539Y-102325246D01*
X141512857Y-102686193D01*
X141983876Y-102881777D01*
X142493887Y-102882222D01*
X142965246Y-102687461D01*
X143326193Y-102327143D01*
X143521777Y-101856124D01*
X143522222Y-101346113D01*
X143327461Y-100874754D01*
X142967143Y-100513807D01*
X142496124Y-100318223D01*
X141986113Y-100317778D01*
X141514754Y-100512539D01*
X141153807Y-100872857D01*
X140958223Y-101343876D01*
X140957778Y-101853887D01*
X139586779Y-101853887D01*
X139587421Y-101119358D01*
X139218710Y-100227011D01*
X138536580Y-99543689D01*
X137644878Y-99173422D01*
X136679358Y-99172579D01*
X135787011Y-99541290D01*
X135103689Y-100223420D01*
X134733422Y-101115122D01*
X134732579Y-102080642D01*
X133902000Y-102080642D01*
X133902000Y-100646434D01*
X134298703Y-100482520D01*
X134770862Y-100011184D01*
X135026708Y-99395039D01*
X135027290Y-98727888D01*
X134772520Y-98111297D01*
X134301184Y-97639138D01*
X133902000Y-97473382D01*
X133902000Y-96852112D01*
X138022710Y-96852112D01*
X138277480Y-97468703D01*
X138748816Y-97940862D01*
X139364961Y-98196708D01*
X140032112Y-98197290D01*
X140648703Y-97942520D01*
X141120862Y-97471184D01*
X141376708Y-96855039D01*
X141377290Y-96187888D01*
X141122520Y-95571297D01*
X140651184Y-95099138D01*
X140035039Y-94843292D01*
X139367888Y-94842710D01*
X138751297Y-95097480D01*
X138279138Y-95568816D01*
X138023292Y-96184961D01*
X138022710Y-96852112D01*
X133902000Y-96852112D01*
X133902000Y-83030642D01*
X134732579Y-83030642D01*
X135101290Y-83922989D01*
X135783420Y-84606311D01*
X136675122Y-84976578D01*
X137640642Y-84977421D01*
X138532989Y-84608710D01*
X139216311Y-83926580D01*
X139586578Y-83034878D01*
X139586779Y-82803887D01*
X140957778Y-82803887D01*
X141152539Y-83275246D01*
X141512857Y-83636193D01*
X141983876Y-83831777D01*
X142493887Y-83832222D01*
X142965246Y-83637461D01*
X143326193Y-83277143D01*
X143521777Y-82806124D01*
X143522222Y-82296113D01*
X143327461Y-81824754D01*
X142967143Y-81463807D01*
X142496124Y-81268223D01*
X141986113Y-81267778D01*
X141514754Y-81462539D01*
X141153807Y-81822857D01*
X140958223Y-82293876D01*
X140957778Y-82803887D01*
X139586779Y-82803887D01*
X139587421Y-82069358D01*
X139218710Y-81177011D01*
X138536580Y-80493689D01*
X137644878Y-80123422D01*
X136679358Y-80122579D01*
X135787011Y-80491290D01*
X135103689Y-81173420D01*
X134733422Y-82065122D01*
X134732579Y-83030642D01*
X133902000Y-83030642D01*
X133902000Y-81596434D01*
X134298703Y-81432520D01*
X134770862Y-80961184D01*
X135026708Y-80345039D01*
X135027290Y-79677888D01*
X134772520Y-79061297D01*
X134301184Y-78589138D01*
X133902000Y-78423382D01*
X133902000Y-77802112D01*
X138022710Y-77802112D01*
X138277480Y-78418703D01*
X138748816Y-78890862D01*
X139364961Y-79146708D01*
X140032112Y-79147290D01*
X140648703Y-78892520D01*
X141120862Y-78421184D01*
X141376708Y-77805039D01*
X141377290Y-77137888D01*
X141122520Y-76521297D01*
X140651184Y-76049138D01*
X140035039Y-75793292D01*
X139367888Y-75792710D01*
X138751297Y-76047480D01*
X138279138Y-76518816D01*
X138023292Y-77134961D01*
X138022710Y-77802112D01*
X133902000Y-77802112D01*
X133902000Y-63980642D01*
X134732579Y-63980642D01*
X135101290Y-64872989D01*
X135783420Y-65556311D01*
X136675122Y-65926578D01*
X137640642Y-65927421D01*
X138532989Y-65558710D01*
X139216311Y-64876580D01*
X139586578Y-63984878D01*
X139586779Y-63753887D01*
X140957778Y-63753887D01*
X141152539Y-64225246D01*
X141512857Y-64586193D01*
X141983876Y-64781777D01*
X142493887Y-64782222D01*
X142965246Y-64587461D01*
X143326193Y-64227143D01*
X143521777Y-63756124D01*
X143521778Y-63753887D01*
X149847778Y-63753887D01*
X150042539Y-64225246D01*
X150402857Y-64586193D01*
X150873876Y-64781777D01*
X151383887Y-64782222D01*
X151848000Y-64590455D01*
X151848000Y-78423566D01*
X151451297Y-78587480D01*
X150979138Y-79058816D01*
X150723292Y-79674961D01*
X150722710Y-80342112D01*
X150977480Y-80958703D01*
X151286374Y-81268136D01*
X150876113Y-81267778D01*
X150404754Y-81462539D01*
X150043807Y-81822857D01*
X149848223Y-82293876D01*
X149847778Y-82803887D01*
X150042539Y-83275246D01*
X150402857Y-83636193D01*
X150873876Y-83831777D01*
X151383887Y-83832222D01*
X151848000Y-83640455D01*
X151848000Y-97473566D01*
X151451297Y-97637480D01*
X150979138Y-98108816D01*
X150723292Y-98724961D01*
X150722710Y-99392112D01*
X150977480Y-100008703D01*
X151286374Y-100318136D01*
X150876113Y-100317778D01*
X150404754Y-100512539D01*
X150043807Y-100872857D01*
X149848223Y-101343876D01*
X149847778Y-101853887D01*
X150042539Y-102325246D01*
X150402857Y-102686193D01*
X150873876Y-102881777D01*
X151383887Y-102882222D01*
X151848000Y-102690455D01*
X151848000Y-116523566D01*
X151451297Y-116687480D01*
X150979138Y-117158816D01*
X150723292Y-117774961D01*
X150722710Y-118442112D01*
X150977480Y-119058703D01*
X151286374Y-119368136D01*
X150876113Y-119367778D01*
X150404754Y-119562539D01*
X150043807Y-119922857D01*
X149848223Y-120393876D01*
X149847778Y-120903887D01*
X150042539Y-121375246D01*
X150402857Y-121736193D01*
X150873876Y-121931777D01*
X151383887Y-121932222D01*
X151848000Y-121740455D01*
X151848000Y-135573566D01*
X151451297Y-135737480D01*
X150979138Y-136208816D01*
X150723292Y-136824961D01*
X150722710Y-137492112D01*
X150977480Y-138108703D01*
X151286374Y-138418136D01*
X150876113Y-138417778D01*
X150404754Y-138612539D01*
X150043807Y-138972857D01*
X149848223Y-139443876D01*
X149847778Y-139953887D01*
X150042539Y-140425246D01*
X150402857Y-140786193D01*
X150873876Y-140981777D01*
X151383887Y-140982222D01*
X151855246Y-140787461D01*
X152216193Y-140427143D01*
X152318549Y-140180642D01*
X153782579Y-140180642D01*
X154151290Y-141072989D01*
X154833420Y-141756311D01*
X155725122Y-142126578D01*
X156690642Y-142127421D01*
X157582989Y-141758710D01*
X158266311Y-141076580D01*
X158636578Y-140184878D01*
X158636779Y-139953887D01*
X160007778Y-139953887D01*
X160202539Y-140425246D01*
X160562857Y-140786193D01*
X161033876Y-140981777D01*
X161543887Y-140982222D01*
X162015246Y-140787461D01*
X162376193Y-140427143D01*
X162571777Y-139956124D01*
X162572222Y-139446113D01*
X162377461Y-138974754D01*
X162017143Y-138613807D01*
X161546124Y-138418223D01*
X161036113Y-138417778D01*
X160564754Y-138612539D01*
X160203807Y-138972857D01*
X160008223Y-139443876D01*
X160007778Y-139953887D01*
X158636779Y-139953887D01*
X158637421Y-139219358D01*
X158268710Y-138327011D01*
X157586580Y-137643689D01*
X156694878Y-137273422D01*
X155729358Y-137272579D01*
X154837011Y-137641290D01*
X154153689Y-138323420D01*
X153783422Y-139215122D01*
X153782579Y-140180642D01*
X152318549Y-140180642D01*
X152411777Y-139956124D01*
X152412222Y-139446113D01*
X152217461Y-138974754D01*
X152079668Y-138836721D01*
X152732112Y-138837290D01*
X153348703Y-138582520D01*
X153820862Y-138111184D01*
X154076708Y-137495039D01*
X154077290Y-136827888D01*
X153822520Y-136211297D01*
X153351184Y-135739138D01*
X152952000Y-135573382D01*
X152952000Y-134952112D01*
X157072710Y-134952112D01*
X157327480Y-135568703D01*
X157798816Y-136040862D01*
X158414961Y-136296708D01*
X159082112Y-136297290D01*
X159698703Y-136042520D01*
X160170862Y-135571184D01*
X160426708Y-134955039D01*
X160427290Y-134287888D01*
X160172520Y-133671297D01*
X159701184Y-133199138D01*
X159085039Y-132943292D01*
X158417888Y-132942710D01*
X157801297Y-133197480D01*
X157329138Y-133668816D01*
X157073292Y-134284961D01*
X157072710Y-134952112D01*
X152952000Y-134952112D01*
X152952000Y-121130642D01*
X153782579Y-121130642D01*
X154151290Y-122022989D01*
X154833420Y-122706311D01*
X155725122Y-123076578D01*
X156690642Y-123077421D01*
X157582989Y-122708710D01*
X158266311Y-122026580D01*
X158636578Y-121134878D01*
X158636779Y-120903887D01*
X160007778Y-120903887D01*
X160202539Y-121375246D01*
X160562857Y-121736193D01*
X161033876Y-121931777D01*
X161543887Y-121932222D01*
X162015246Y-121737461D01*
X162376193Y-121377143D01*
X162571777Y-120906124D01*
X162572222Y-120396113D01*
X162377461Y-119924754D01*
X162017143Y-119563807D01*
X161546124Y-119368223D01*
X161036113Y-119367778D01*
X160564754Y-119562539D01*
X160203807Y-119922857D01*
X160008223Y-120393876D01*
X160007778Y-120903887D01*
X158636779Y-120903887D01*
X158637421Y-120169358D01*
X158268710Y-119277011D01*
X157586580Y-118593689D01*
X156694878Y-118223422D01*
X155729358Y-118222579D01*
X154837011Y-118591290D01*
X154153689Y-119273420D01*
X153783422Y-120165122D01*
X153782579Y-121130642D01*
X152952000Y-121130642D01*
X152952000Y-119696434D01*
X153348703Y-119532520D01*
X153820862Y-119061184D01*
X154076708Y-118445039D01*
X154077290Y-117777888D01*
X153822520Y-117161297D01*
X153351184Y-116689138D01*
X152952000Y-116523382D01*
X152952000Y-115902112D01*
X157072710Y-115902112D01*
X157327480Y-116518703D01*
X157798816Y-116990862D01*
X158414961Y-117246708D01*
X159082112Y-117247290D01*
X159698703Y-116992520D01*
X160170862Y-116521184D01*
X160426708Y-115905039D01*
X160427290Y-115237888D01*
X160172520Y-114621297D01*
X159701184Y-114149138D01*
X159085039Y-113893292D01*
X158417888Y-113892710D01*
X157801297Y-114147480D01*
X157329138Y-114618816D01*
X157073292Y-115234961D01*
X157072710Y-115902112D01*
X152952000Y-115902112D01*
X152952000Y-102080642D01*
X153782579Y-102080642D01*
X154151290Y-102972989D01*
X154833420Y-103656311D01*
X155725122Y-104026578D01*
X156690642Y-104027421D01*
X157582989Y-103658710D01*
X158266311Y-102976580D01*
X158636578Y-102084878D01*
X158636779Y-101853887D01*
X160007778Y-101853887D01*
X160202539Y-102325246D01*
X160562857Y-102686193D01*
X161033876Y-102881777D01*
X161543887Y-102882222D01*
X162015246Y-102687461D01*
X162376193Y-102327143D01*
X162552558Y-101902407D01*
X164842735Y-101902407D01*
X165074717Y-102463846D01*
X165503894Y-102893773D01*
X166064928Y-103126735D01*
X166672407Y-103127265D01*
X167233846Y-102895283D01*
X167663773Y-102466106D01*
X167896735Y-101905072D01*
X167897265Y-101297593D01*
X167665283Y-100736154D01*
X167236106Y-100306227D01*
X166675072Y-100073265D01*
X166067593Y-100072735D01*
X165506154Y-100304717D01*
X165076227Y-100733894D01*
X164843265Y-101294928D01*
X164842735Y-101902407D01*
X162552558Y-101902407D01*
X162571777Y-101856124D01*
X162572222Y-101346113D01*
X162377461Y-100874754D01*
X162017143Y-100513807D01*
X161546124Y-100318223D01*
X161036113Y-100317778D01*
X160564754Y-100512539D01*
X160203807Y-100872857D01*
X160008223Y-101343876D01*
X160007778Y-101853887D01*
X158636779Y-101853887D01*
X158637421Y-101119358D01*
X158268710Y-100227011D01*
X157586580Y-99543689D01*
X156694878Y-99173422D01*
X155729358Y-99172579D01*
X154837011Y-99541290D01*
X154153689Y-100223420D01*
X153783422Y-101115122D01*
X153782579Y-102080642D01*
X152952000Y-102080642D01*
X152952000Y-100646434D01*
X153348703Y-100482520D01*
X153820862Y-100011184D01*
X154076708Y-99395039D01*
X154077290Y-98727888D01*
X153822520Y-98111297D01*
X153351184Y-97639138D01*
X152952000Y-97473382D01*
X152952000Y-96852112D01*
X157072710Y-96852112D01*
X157327480Y-97468703D01*
X157798816Y-97940862D01*
X158414961Y-98196708D01*
X159082112Y-98197290D01*
X159698703Y-97942520D01*
X160170862Y-97471184D01*
X160426708Y-96855039D01*
X160427290Y-96187888D01*
X160172520Y-95571297D01*
X159701184Y-95099138D01*
X159085039Y-94843292D01*
X158417888Y-94842710D01*
X157801297Y-95097480D01*
X157329138Y-95568816D01*
X157073292Y-96184961D01*
X157072710Y-96852112D01*
X152952000Y-96852112D01*
X152952000Y-83030642D01*
X153782579Y-83030642D01*
X154151290Y-83922989D01*
X154833420Y-84606311D01*
X155725122Y-84976578D01*
X156690642Y-84977421D01*
X157582989Y-84608710D01*
X158266311Y-83926580D01*
X158636578Y-83034878D01*
X158636779Y-82803887D01*
X160007778Y-82803887D01*
X160202539Y-83275246D01*
X160562857Y-83636193D01*
X161033876Y-83831777D01*
X161543887Y-83832222D01*
X162015246Y-83637461D01*
X162376193Y-83277143D01*
X162571777Y-82806124D01*
X162572222Y-82296113D01*
X162377461Y-81824754D01*
X162017143Y-81463807D01*
X161546124Y-81268223D01*
X161036113Y-81267778D01*
X160564754Y-81462539D01*
X160203807Y-81822857D01*
X160008223Y-82293876D01*
X160007778Y-82803887D01*
X158636779Y-82803887D01*
X158637421Y-82069358D01*
X158268710Y-81177011D01*
X157586580Y-80493689D01*
X156694878Y-80123422D01*
X155729358Y-80122579D01*
X154837011Y-80491290D01*
X154153689Y-81173420D01*
X153783422Y-82065122D01*
X153782579Y-83030642D01*
X152952000Y-83030642D01*
X152952000Y-81596434D01*
X153348703Y-81432520D01*
X153820862Y-80961184D01*
X154076708Y-80345039D01*
X154077290Y-79677888D01*
X153822520Y-79061297D01*
X153351184Y-78589138D01*
X152952000Y-78423382D01*
X152952000Y-77802112D01*
X157072710Y-77802112D01*
X157327480Y-78418703D01*
X157798816Y-78890862D01*
X158414961Y-79146708D01*
X159082112Y-79147290D01*
X159698703Y-78892520D01*
X160170862Y-78421184D01*
X160426708Y-77805039D01*
X160427290Y-77137888D01*
X160172520Y-76521297D01*
X159701184Y-76049138D01*
X159085039Y-75793292D01*
X158417888Y-75792710D01*
X157801297Y-76047480D01*
X157329138Y-76518816D01*
X157073292Y-77134961D01*
X157072710Y-77802112D01*
X152952000Y-77802112D01*
X152952000Y-63980642D01*
X153782579Y-63980642D01*
X154151290Y-64872989D01*
X154833420Y-65556311D01*
X155725122Y-65926578D01*
X156690642Y-65927421D01*
X157582989Y-65558710D01*
X158266311Y-64876580D01*
X158636578Y-63984878D01*
X158636779Y-63753887D01*
X160007778Y-63753887D01*
X160202539Y-64225246D01*
X160562857Y-64586193D01*
X161033876Y-64781777D01*
X161543887Y-64782222D01*
X162015246Y-64587461D01*
X162376193Y-64227143D01*
X162571777Y-63756124D01*
X162572222Y-63246113D01*
X162377461Y-62774754D01*
X162017143Y-62413807D01*
X161546124Y-62218223D01*
X161036113Y-62217778D01*
X160564754Y-62412539D01*
X160203807Y-62772857D01*
X160008223Y-63243876D01*
X160007778Y-63753887D01*
X158636779Y-63753887D01*
X158637421Y-63019358D01*
X158268710Y-62127011D01*
X157586580Y-61443689D01*
X156694878Y-61073422D01*
X155729358Y-61072579D01*
X154837011Y-61441290D01*
X154153689Y-62123420D01*
X153783422Y-63015122D01*
X153782579Y-63980642D01*
X152952000Y-63980642D01*
X152952000Y-62546434D01*
X153348703Y-62382520D01*
X153820862Y-61911184D01*
X154076708Y-61295039D01*
X154077290Y-60627888D01*
X153822520Y-60011297D01*
X153351184Y-59539138D01*
X152735039Y-59283292D01*
X152067888Y-59282710D01*
X151451297Y-59537480D01*
X150979138Y-60008816D01*
X150723292Y-60624961D01*
X150722710Y-61292112D01*
X150977480Y-61908703D01*
X151286374Y-62218136D01*
X150876113Y-62217778D01*
X150404754Y-62412539D01*
X150043807Y-62772857D01*
X149848223Y-63243876D01*
X149847778Y-63753887D01*
X143521778Y-63753887D01*
X143522222Y-63246113D01*
X143327461Y-62774754D01*
X142967143Y-62413807D01*
X142496124Y-62218223D01*
X141986113Y-62217778D01*
X141514754Y-62412539D01*
X141153807Y-62772857D01*
X140958223Y-63243876D01*
X140957778Y-63753887D01*
X139586779Y-63753887D01*
X139587421Y-63019358D01*
X139218710Y-62127011D01*
X138536580Y-61443689D01*
X137644878Y-61073422D01*
X136679358Y-61072579D01*
X135787011Y-61441290D01*
X135103689Y-62123420D01*
X134733422Y-63015122D01*
X134732579Y-63980642D01*
X133902000Y-63980642D01*
X133902000Y-62546434D01*
X134298703Y-62382520D01*
X134770862Y-61911184D01*
X135026708Y-61295039D01*
X135027290Y-60627888D01*
X134772520Y-60011297D01*
X134301184Y-59539138D01*
X133685039Y-59283292D01*
X133017888Y-59282710D01*
X132401297Y-59537480D01*
X131929138Y-60008816D01*
X131673292Y-60624961D01*
X131672710Y-61292112D01*
X131927480Y-61908703D01*
X132236374Y-62218136D01*
X131826113Y-62217778D01*
X131354754Y-62412539D01*
X130993807Y-62772857D01*
X130798223Y-63243876D01*
X130797778Y-63753887D01*
X124471778Y-63753887D01*
X124472222Y-63246113D01*
X124277461Y-62774754D01*
X123917143Y-62413807D01*
X123446124Y-62218223D01*
X122936113Y-62217778D01*
X122464754Y-62412539D01*
X122103807Y-62772857D01*
X121908223Y-63243876D01*
X121907778Y-63753887D01*
X120536779Y-63753887D01*
X120537421Y-63019358D01*
X120168710Y-62127011D01*
X119486580Y-61443689D01*
X118594878Y-61073422D01*
X117629358Y-61072579D01*
X116737011Y-61441290D01*
X116053689Y-62123420D01*
X115683422Y-63015122D01*
X115682579Y-63980642D01*
X114852000Y-63980642D01*
X114852000Y-62546434D01*
X115248703Y-62382520D01*
X115720862Y-61911184D01*
X115976708Y-61295039D01*
X115977290Y-60627888D01*
X115722520Y-60011297D01*
X115251184Y-59539138D01*
X114635039Y-59283292D01*
X113967888Y-59282710D01*
X113351297Y-59537480D01*
X112879138Y-60008816D01*
X112623292Y-60624961D01*
X112622710Y-61292112D01*
X112877480Y-61908703D01*
X113186374Y-62218136D01*
X112776113Y-62217778D01*
X112304754Y-62412539D01*
X111943807Y-62772857D01*
X111748223Y-63243876D01*
X111747778Y-63753887D01*
X105421778Y-63753887D01*
X105422222Y-63246113D01*
X105227461Y-62774754D01*
X104867143Y-62413807D01*
X104396124Y-62218223D01*
X103886113Y-62217778D01*
X103414754Y-62412539D01*
X103053807Y-62772857D01*
X102858223Y-63243876D01*
X102857778Y-63753887D01*
X101486779Y-63753887D01*
X101487421Y-63019358D01*
X101118710Y-62127011D01*
X100436580Y-61443689D01*
X99544878Y-61073422D01*
X98579358Y-61072579D01*
X97687011Y-61441290D01*
X97003689Y-62123420D01*
X96633422Y-63015122D01*
X96632579Y-63980642D01*
X95802000Y-63980642D01*
X95802000Y-62546434D01*
X96198703Y-62382520D01*
X96670862Y-61911184D01*
X96926708Y-61295039D01*
X96927290Y-60627888D01*
X96672520Y-60011297D01*
X96201184Y-59539138D01*
X95585039Y-59283292D01*
X94917888Y-59282710D01*
X94301297Y-59537480D01*
X93829138Y-60008816D01*
X93573292Y-60624961D01*
X93572710Y-61292112D01*
X93827480Y-61908703D01*
X94136374Y-62218136D01*
X93726113Y-62217778D01*
X93254754Y-62412539D01*
X92893807Y-62772857D01*
X92698223Y-63243876D01*
X92697778Y-63753887D01*
X85468599Y-63753887D01*
X84502174Y-62787462D01*
X84726621Y-62246932D01*
X84727377Y-61380868D01*
X84396647Y-60580440D01*
X83977000Y-60160059D01*
X83977000Y-58752112D01*
X99922710Y-58752112D01*
X100177480Y-59368703D01*
X100648816Y-59840862D01*
X101264961Y-60096708D01*
X101932112Y-60097290D01*
X102548703Y-59842520D01*
X103020862Y-59371184D01*
X103276708Y-58755039D01*
X103276710Y-58752112D01*
X118972710Y-58752112D01*
X119227480Y-59368703D01*
X119698816Y-59840862D01*
X120314961Y-60096708D01*
X120982112Y-60097290D01*
X121598703Y-59842520D01*
X122070862Y-59371184D01*
X122326708Y-58755039D01*
X122326710Y-58752112D01*
X138022710Y-58752112D01*
X138277480Y-59368703D01*
X138748816Y-59840862D01*
X139364961Y-60096708D01*
X140032112Y-60097290D01*
X140648703Y-59842520D01*
X141120862Y-59371184D01*
X141376708Y-58755039D01*
X141376710Y-58752112D01*
X157072710Y-58752112D01*
X157327480Y-59368703D01*
X157798816Y-59840862D01*
X158414961Y-60096708D01*
X159082112Y-60097290D01*
X159698703Y-59842520D01*
X160170862Y-59371184D01*
X160426708Y-58755039D01*
X160427290Y-58087888D01*
X160172520Y-57471297D01*
X159701184Y-56999138D01*
X159085039Y-56743292D01*
X158417888Y-56742710D01*
X157801297Y-56997480D01*
X157329138Y-57468816D01*
X157073292Y-58084961D01*
X157072710Y-58752112D01*
X141376710Y-58752112D01*
X141377290Y-58087888D01*
X141122520Y-57471297D01*
X140651184Y-56999138D01*
X140035039Y-56743292D01*
X139367888Y-56742710D01*
X138751297Y-56997480D01*
X138279138Y-57468816D01*
X138023292Y-58084961D01*
X138022710Y-58752112D01*
X122326710Y-58752112D01*
X122327290Y-58087888D01*
X122072520Y-57471297D01*
X121601184Y-56999138D01*
X120985039Y-56743292D01*
X120317888Y-56742710D01*
X119701297Y-56997480D01*
X119229138Y-57468816D01*
X118973292Y-58084961D01*
X118972710Y-58752112D01*
X103276710Y-58752112D01*
X103277290Y-58087888D01*
X103022520Y-57471297D01*
X102551184Y-56999138D01*
X101935039Y-56743292D01*
X101267888Y-56742710D01*
X100651297Y-56997480D01*
X100179138Y-57468816D01*
X99923292Y-58084961D01*
X99922710Y-58752112D01*
X83977000Y-58752112D01*
X83977000Y-55863548D01*
X84394495Y-55446782D01*
X84616386Y-54912407D01*
X117852735Y-54912407D01*
X118084717Y-55473846D01*
X118513894Y-55903773D01*
X119074928Y-56136735D01*
X119682407Y-56137265D01*
X120243846Y-55905283D01*
X120673773Y-55476106D01*
X120906735Y-54915072D01*
X120906737Y-54912407D01*
X164842735Y-54912407D01*
X165074717Y-55473846D01*
X165503894Y-55903773D01*
X166064928Y-56136735D01*
X166672407Y-56137265D01*
X167233846Y-55905283D01*
X167663773Y-55476106D01*
X167896735Y-54915072D01*
X167897265Y-54307593D01*
X167665283Y-53746154D01*
X167236106Y-53316227D01*
X166675072Y-53083265D01*
X166067593Y-53082735D01*
X165506154Y-53314717D01*
X165076227Y-53743894D01*
X164843265Y-54304928D01*
X164842735Y-54912407D01*
X120906737Y-54912407D01*
X120907265Y-54307593D01*
X120675283Y-53746154D01*
X120246106Y-53316227D01*
X119685072Y-53083265D01*
X119077593Y-53082735D01*
X118516154Y-53314717D01*
X118086227Y-53743894D01*
X117853265Y-54304928D01*
X117852735Y-54912407D01*
X84616386Y-54912407D01*
X84726621Y-54646932D01*
X84727377Y-53780868D01*
X84396647Y-52980440D01*
X83988920Y-52572000D01*
X166320559Y-52572000D01*
X167146144Y-52736219D01*
G36*
X72600000Y-91465354D02*
X71906014Y-92159340D01*
X71863381Y-92093086D01*
X71879699Y-92086327D01*
X72058327Y-91907698D01*
X72155000Y-91674309D01*
X72155000Y-91333750D01*
X71996250Y-91175000D01*
X71247000Y-91175000D01*
X71247000Y-91195000D01*
X70993000Y-91195000D01*
X70993000Y-91175000D01*
X70973000Y-91175000D01*
X70973000Y-90921000D01*
X70993000Y-90921000D01*
X70993000Y-90071750D01*
X71247000Y-90071750D01*
X71247000Y-90921000D01*
X71996250Y-90921000D01*
X72155000Y-90762250D01*
X72155000Y-90421691D01*
X72058327Y-90188302D01*
X71879699Y-90009673D01*
X71646310Y-89913000D01*
X71405750Y-89913000D01*
X71247000Y-90071750D01*
X70993000Y-90071750D01*
X70834250Y-89913000D01*
X70593690Y-89913000D01*
X70360301Y-90009673D01*
X70352000Y-90017974D01*
X70352000Y-88484655D01*
X70407927Y-88571567D01*
X70550619Y-88669064D01*
X70720000Y-88703365D01*
X71520000Y-88703365D01*
X71678237Y-88673591D01*
X71823567Y-88580073D01*
X71921064Y-88437381D01*
X71955365Y-88268000D01*
X71955365Y-88083281D01*
X72600000Y-87438646D01*
X72600000Y-91465354D01*
X72600000Y-91465354D01*
G37*
X72600000Y-91465354D02*
X71906014Y-92159340D01*
X71863381Y-92093086D01*
X71879699Y-92086327D01*
X72058327Y-91907698D01*
X72155000Y-91674309D01*
X72155000Y-91333750D01*
X71996250Y-91175000D01*
X71247000Y-91175000D01*
X71247000Y-91195000D01*
X70993000Y-91195000D01*
X70993000Y-91175000D01*
X70973000Y-91175000D01*
X70973000Y-90921000D01*
X70993000Y-90921000D01*
X70993000Y-90071750D01*
X71247000Y-90071750D01*
X71247000Y-90921000D01*
X71996250Y-90921000D01*
X72155000Y-90762250D01*
X72155000Y-90421691D01*
X72058327Y-90188302D01*
X71879699Y-90009673D01*
X71646310Y-89913000D01*
X71405750Y-89913000D01*
X71247000Y-90071750D01*
X70993000Y-90071750D01*
X70834250Y-89913000D01*
X70593690Y-89913000D01*
X70360301Y-90009673D01*
X70352000Y-90017974D01*
X70352000Y-88484655D01*
X70407927Y-88571567D01*
X70550619Y-88669064D01*
X70720000Y-88703365D01*
X71520000Y-88703365D01*
X71678237Y-88673591D01*
X71823567Y-88580073D01*
X71921064Y-88437381D01*
X71955365Y-88268000D01*
X71955365Y-88083281D01*
X72600000Y-87438646D01*
X72600000Y-91465354D01*
G36*
X71999677Y-84445677D02*
X71880018Y-84624758D01*
X71880018Y-84624759D01*
X71838000Y-84836000D01*
X71838000Y-84912401D01*
X71646310Y-84833000D01*
X71405750Y-84833000D01*
X71247000Y-84991750D01*
X71247000Y-85841000D01*
X71267000Y-85841000D01*
X71267000Y-86095000D01*
X71247000Y-86095000D01*
X71247000Y-86115000D01*
X70993000Y-86115000D01*
X70993000Y-86095000D01*
X70973000Y-86095000D01*
X70973000Y-85841000D01*
X70993000Y-85841000D01*
X70993000Y-84991750D01*
X70834250Y-84833000D01*
X70593690Y-84833000D01*
X70360301Y-84929673D01*
X70352000Y-84937974D01*
X70352000Y-81797000D01*
X74648354Y-81797000D01*
X71999677Y-84445677D01*
X71999677Y-84445677D01*
G37*
X71999677Y-84445677D02*
X71880018Y-84624758D01*
X71880018Y-84624759D01*
X71838000Y-84836000D01*
X71838000Y-84912401D01*
X71646310Y-84833000D01*
X71405750Y-84833000D01*
X71247000Y-84991750D01*
X71247000Y-85841000D01*
X71267000Y-85841000D01*
X71267000Y-86095000D01*
X71247000Y-86095000D01*
X71247000Y-86115000D01*
X70993000Y-86115000D01*
X70993000Y-86095000D01*
X70973000Y-86095000D01*
X70973000Y-85841000D01*
X70993000Y-85841000D01*
X70993000Y-84991750D01*
X70834250Y-84833000D01*
X70593690Y-84833000D01*
X70360301Y-84929673D01*
X70352000Y-84937974D01*
X70352000Y-81797000D01*
X74648354Y-81797000D01*
X71999677Y-84445677D01*
G36*
X80705505Y-52977218D02*
X80373379Y-53777068D01*
X80372623Y-54643132D01*
X80703353Y-55443560D01*
X81123000Y-55863941D01*
X81123000Y-60160452D01*
X80705505Y-60577218D01*
X80373379Y-61377068D01*
X80372623Y-62243132D01*
X80703353Y-63043560D01*
X81315218Y-63656495D01*
X81923000Y-63908868D01*
X81923000Y-76702288D01*
X78022000Y-80603288D01*
X78022000Y-71483498D01*
X78170688Y-71335070D01*
X78296856Y-71031222D01*
X78297143Y-70702221D01*
X78171505Y-70398154D01*
X77939070Y-70165312D01*
X77635222Y-70039144D01*
X77306221Y-70038857D01*
X77006000Y-70162906D01*
X77006000Y-69959498D01*
X77154688Y-69811070D01*
X77280856Y-69507222D01*
X77281143Y-69178221D01*
X77155505Y-68874154D01*
X76923070Y-68641312D01*
X76619222Y-68515144D01*
X76290221Y-68514857D01*
X75986154Y-68640495D01*
X75753312Y-68872930D01*
X75627144Y-69176778D01*
X75626857Y-69505779D01*
X75752495Y-69809846D01*
X75902000Y-69959613D01*
X75902000Y-80543354D01*
X74877000Y-81568354D01*
X74877000Y-52572000D01*
X81111432Y-52572000D01*
X80705505Y-52977218D01*
X80705505Y-52977218D01*
G37*
X80705505Y-52977218D02*
X80373379Y-53777068D01*
X80372623Y-54643132D01*
X80703353Y-55443560D01*
X81123000Y-55863941D01*
X81123000Y-60160452D01*
X80705505Y-60577218D01*
X80373379Y-61377068D01*
X80372623Y-62243132D01*
X80703353Y-63043560D01*
X81315218Y-63656495D01*
X81923000Y-63908868D01*
X81923000Y-76702288D01*
X78022000Y-80603288D01*
X78022000Y-71483498D01*
X78170688Y-71335070D01*
X78296856Y-71031222D01*
X78297143Y-70702221D01*
X78171505Y-70398154D01*
X77939070Y-70165312D01*
X77635222Y-70039144D01*
X77306221Y-70038857D01*
X77006000Y-70162906D01*
X77006000Y-69959498D01*
X77154688Y-69811070D01*
X77280856Y-69507222D01*
X77281143Y-69178221D01*
X77155505Y-68874154D01*
X76923070Y-68641312D01*
X76619222Y-68515144D01*
X76290221Y-68514857D01*
X75986154Y-68640495D01*
X75753312Y-68872930D01*
X75627144Y-69176778D01*
X75626857Y-69505779D01*
X75752495Y-69809846D01*
X75902000Y-69959613D01*
X75902000Y-80543354D01*
X74877000Y-81568354D01*
X74877000Y-52572000D01*
X81111432Y-52572000D01*
X80705505Y-52977218D01*
M02*
